<svg width="16" height="16" viewBox="0 0 16 16" fill="none" xmlns="http://www.w3.org/2000/svg">
<path d="M7.64841 15.5425C11.8725 15.5425 15.2968 12.0632 15.2968 7.77124C15.2968 3.4793 11.8725 0 7.64841 0C3.42431 0 0 3.4793 0 7.77124C0 12.0632 3.42431 15.5425 7.64841 15.5425Z" fill="white"/>
<path d="M11.8793 5.10914C11.6084 5.22753 11.3235 5.30972 11.0318 5.35365C11.1678 5.35365 11.3666 5.08256 11.4503 4.98157C11.5751 4.82386 11.6692 4.64347 11.7275 4.45002C11.7308 4.44754 11.7334 4.44433 11.7352 4.44064C11.7371 4.43695 11.738 4.43288 11.738 4.42876C11.738 4.42463 11.7371 4.42056 11.7352 4.41687C11.7334 4.41318 11.7308 4.40997 11.7275 4.4075C11.7204 4.4033 11.7123 4.40109 11.704 4.40109C11.6957 4.40109 11.6876 4.4033 11.6805 4.4075C11.3636 4.57648 11.0282 4.70673 10.6813 4.79553C10.6711 4.80216 10.6593 4.80569 10.6472 4.80569C10.6352 4.80569 10.6234 4.80216 10.6132 4.79553C10.5818 4.76363 10.5557 4.73174 10.5243 4.70516C10.381 4.57848 10.2185 4.47617 10.043 4.40218C9.80761 4.30538 9.55332 4.26535 9.30013 4.28524C9.05327 4.30086 8.81253 4.36972 8.5939 4.48723C8.37425 4.60176 8.18014 4.76098 8.02365 4.95499C7.86136 5.15892 7.74527 5.39666 7.68361 5.65132C7.63653 5.8917 7.63653 6.13916 7.68361 6.37954C7.68361 6.41675 7.68361 6.42738 7.64699 6.41675C6.31491 6.28226 5.08096 5.64494 4.18899 4.63075C4.14714 4.58291 4.12621 4.58291 4.09483 4.63075C3.90805 4.96967 3.83654 5.36174 3.8914 5.74616C3.94626 6.13058 4.12442 6.48588 4.39824 6.75694C4.46416 6.82493 4.53404 6.88883 4.6075 6.9483C4.37581 6.9295 4.15004 6.86448 3.94311 6.75694C3.90649 6.75694 3.88556 6.75694 3.88033 6.79415C3.87525 6.86138 3.87525 6.92891 3.88033 6.99614C3.92102 7.31032 4.04325 7.60786 4.23447 7.8582C4.4257 8.10854 4.67902 8.30267 4.96847 8.42069C5.03816 8.45408 5.11213 8.47734 5.1882 8.48979C4.97366 8.52868 4.75404 8.52868 4.5395 8.48979C4.49242 8.48979 4.47148 8.48979 4.49241 8.54826C4.60137 8.84578 4.78448 9.10947 5.02382 9.31352C5.26316 9.51757 5.55054 9.65499 5.85783 9.71235C5.92061 9.71235 5.98339 9.71235 6.04093 9.71235C6.09848 9.71235 6.04093 9.71235 6.04093 9.71235C5.88922 9.95155 5.35561 10.127 5.10973 10.2173C4.65546 10.3805 4.17186 10.4422 3.69199 10.3981C3.61352 10.3981 3.59782 10.3981 3.5769 10.3981C3.55597 10.3981 3.57691 10.4299 3.60307 10.4512C3.62922 10.4725 3.79663 10.5735 3.89603 10.6319C4.19729 10.7935 4.51474 10.9218 4.84292 11.0146C5.6888 11.2733 6.58668 11.302 7.44686 11.0977C8.30704 10.8934 9.09941 10.4634 9.74481 9.85056C10.209 9.33897 10.568 8.73831 10.8007 8.08385C11.0334 7.42938 11.1351 6.73428 11.0998 6.03935C11.0998 5.9862 11.1625 5.9543 11.1992 5.92772C11.4546 5.72591 11.6801 5.48782 11.8688 5.22077C11.8971 5.18251 11.9118 5.1357 11.9107 5.08788C11.9107 5.08788 11.9107 5.09319 11.8793 5.10914Z" fill="#0F2637"/>
</svg>
