<svg width="16" height="16" viewBox="0 0 16 16" fill="none" xmlns="http://www.w3.org/2000/svg">
<path d="M7.79945 15.4653C12.1032 15.4653 15.5921 12.0032 15.5921 7.73263C15.5921 3.46202 12.1032 0 7.79945 0C3.49571 0 0.00683594 3.46202 0.00683594 7.73263C0.00683594 12.0032 3.49571 15.4653 7.79945 15.4653Z" fill="white"/>
<path d="M4.58442 6.27704H6.1909V11.3175H4.58442V6.27704ZM5.38766 3.77345C5.57114 3.77345 5.7505 3.82673 5.90305 3.92654C6.05561 4.02636 6.17452 4.16822 6.24473 4.33421C6.31495 4.5002 6.33331 4.68284 6.29752 4.85905C6.26173 5.03526 6.17337 5.19712 6.04363 5.32416C5.91389 5.4512 5.74859 5.53772 5.56864 5.57277C5.38869 5.60782 5.20217 5.58982 5.03266 5.52107C4.86314 5.45232 4.71826 5.33589 4.61633 5.18651C4.51439 5.03712 4.45998 4.8615 4.45998 4.68184C4.45923 4.56234 4.48271 4.44389 4.52906 4.33335C4.57542 4.22281 4.64372 4.12237 4.73002 4.03788C4.81631 3.95338 4.91888 3.88649 5.03177 3.8411C5.14466 3.79571 5.26563 3.77272 5.38766 3.77345Z" fill="#0F2637"/>
<path d="M7.07781 6.53467H8.446V7.18557C8.58432 6.94268 8.78288 6.7429 9.02091 6.60715C9.25895 6.4714 9.5277 6.40467 9.79904 6.41394C11.243 6.41394 11.5105 7.40604 11.5105 8.6921V11.3167H10.0818V8.99131C10.0818 8.46638 10.0818 7.72624 9.33961 7.72624C8.59746 7.72624 8.48638 8.3299 8.48638 8.95456V11.3167H7.05762L7.07781 6.53467Z" fill="#0F2637"/>
</svg>
