<svg width="33" height="32" viewBox="0 0 33 32" fill="none" xmlns="http://www.w3.org/2000/svg">
<path d="M16.6183 32C25.5234 32 32.7424 24.8366 32.7424 16C32.7424 7.16344 25.5234 0 16.6183 0C7.71315 0 0.494141 7.16344 0.494141 16C0.494141 24.8366 7.71315 32 16.6183 32Z" fill="#0F2637"/>
<path d="M9.96652 12.988H13.2906V23.4174H9.96652V12.988ZM11.6285 7.80765C12.0082 7.80765 12.3793 7.91788 12.695 8.12441C13.0106 8.33094 13.2567 8.62449 13.4019 8.96794C13.5472 9.31139 13.5852 9.68932 13.5112 10.0539C13.4371 10.4185 13.2543 10.7534 12.9858 11.0163C12.7174 11.2792 12.3754 11.4582 12.003 11.5307C11.6307 11.6032 11.2447 11.566 10.894 11.4237C10.5432 11.2815 10.2434 11.0406 10.0325 10.7315C9.82161 10.4224 9.70902 10.059 9.70902 9.68724C9.70747 9.43998 9.75605 9.19489 9.85197 8.96616C9.94788 8.73743 10.0892 8.52962 10.2678 8.35478C10.4463 8.17994 10.6586 8.04154 10.8921 7.94763C11.1257 7.85371 11.376 7.80613 11.6285 7.80765Z" fill="#F4F6FB"/>
<path d="M15.1258 13.5211H17.9568V14.8679C18.243 14.3653 18.6538 13.952 19.1463 13.6711C19.6389 13.3902 20.195 13.2521 20.7564 13.2713C23.7441 13.2713 24.2978 15.3241 24.2978 17.9852V23.4159H21.3414V18.6043C21.3414 17.5181 21.3414 15.9866 19.8058 15.9866C18.2701 15.9866 18.0403 17.2357 18.0403 18.5282V23.4159H15.084L15.1258 13.5211Z" fill="#F4F6FB"/>
</svg>
