<svg width="32" height="32" viewBox="0 0 32 32" fill="none" xmlns="http://www.w3.org/2000/svg">
<path d="M15.7471 32C24.444 32 31.4942 24.8366 31.4942 16C31.4942 7.16344 24.444 0 15.7471 0C7.05022 0 0 7.16344 0 16C0 24.8366 7.05022 32 15.7471 32Z" fill="#0F2637"/>
<path d="M24.4578 10.519C23.9 10.7628 23.3135 10.932 22.7128 11.0225C22.9929 11.0225 23.4022 10.4643 23.5745 10.2564C23.8314 9.93168 24.0252 9.56028 24.1454 9.16199C24.1521 9.15689 24.1575 9.15028 24.1612 9.14268C24.165 9.13508 24.1669 9.1267 24.1669 9.11821C24.1669 9.10971 24.165 9.10134 24.1612 9.09374C24.1575 9.08614 24.1521 9.07953 24.1454 9.07444C24.1307 9.06579 24.1139 9.06124 24.0969 9.06124C24.0799 9.06124 24.0632 9.06579 24.0485 9.07444C23.3962 9.42235 22.7056 9.69052 21.9912 9.87334C21.9703 9.88701 21.946 9.89427 21.9212 9.89427C21.8964 9.89427 21.8721 9.88701 21.8512 9.87334C21.7866 9.80768 21.7327 9.74201 21.6681 9.68729C21.373 9.42647 21.0384 9.21582 20.6772 9.06349C20.1925 8.86419 19.669 8.78178 19.1477 8.82272C18.6394 8.85489 18.1438 8.99666 17.6936 9.23859C17.2414 9.47439 16.8417 9.80221 16.5196 10.2017C16.1854 10.6215 15.9464 11.111 15.8195 11.6353C15.7225 12.1302 15.7225 12.6397 15.8195 13.1346C15.8195 13.2112 15.8194 13.2331 15.7441 13.2112C13.0015 12.9343 10.4609 11.6222 8.62448 9.53408C8.53831 9.43558 8.49523 9.43558 8.43061 9.53408C8.04606 10.2319 7.89882 11.0391 8.01177 11.8306C8.12472 12.6221 8.49153 13.3536 9.05531 13.9116C9.19102 14.0516 9.33488 14.1832 9.48614 14.3056C9.00911 14.2669 8.54429 14.133 8.11824 13.9116C8.04284 13.9116 7.99976 13.9116 7.98899 13.9883C7.97853 14.1267 7.97853 14.2657 7.98899 14.4041C8.07276 15.051 8.32442 15.6636 8.71812 16.179C9.11183 16.6944 9.63339 17.0941 10.2293 17.3371C10.3728 17.4058 10.5251 17.4537 10.6817 17.4794C10.24 17.5594 9.78785 17.5594 9.34614 17.4794C9.2492 17.4794 9.20609 17.4794 9.24918 17.5997C9.47352 18.2123 9.85053 18.7552 10.3433 19.1753C10.8361 19.5954 11.4277 19.8784 12.0604 19.9965C12.1897 19.9965 12.3189 19.9965 12.4374 19.9965C12.5559 19.9965 12.4374 19.9965 12.4374 19.9965C12.125 20.4889 11.0264 20.8501 10.5202 21.0361C9.58488 21.3721 8.58921 21.499 7.60122 21.4082C7.43966 21.4082 7.40734 21.4082 7.36426 21.4082C7.32118 21.4082 7.36428 21.4739 7.41814 21.5177C7.47199 21.5614 7.81666 21.7694 8.02131 21.8898C8.64157 22.2225 9.29515 22.4866 9.97084 22.6777C11.7124 23.2103 13.561 23.2693 15.332 22.8487C17.103 22.4281 18.7344 21.5427 20.0632 20.281C21.019 19.2277 21.7581 17.991 22.2372 16.6436C22.7162 15.2961 22.9256 13.865 22.8529 12.4342C22.8529 12.3248 22.9821 12.2591 23.0575 12.2044C23.5834 11.7889 24.0477 11.2987 24.4362 10.7489C24.4944 10.6701 24.5248 10.5737 24.5224 10.4753C24.5224 10.4753 24.5224 10.4862 24.4578 10.519Z" fill="#F4F6FB"/>
</svg>
