<svg width="430" height="312" viewBox="0 0 430 312" fill="none" xmlns="http://www.w3.org/2000/svg">
<g opacity="0.2">
<path opacity="0.2" d="M120.02 189.1H34.29C33.56 189.1 32.95 188.51 32.95 187.8V97.85C32.95 97.13 33.55 96.55 34.29 96.55H120.02C120.75 96.55 121.36 97.14 121.72 98.21V186.82C121.72 188.01 120.99 189.09 120.04 189.1C120.04 189.1 120.03 189.1 120.02 189.1Z" fill="#2C71F0"/>
</g>
<path d="M115.01 186.02H33.87C31.88 186.02 30.24 184.39 30.24 182.39V97.09C30.24 95.1 31.87 93.46 33.87 93.46H115.01C117 93.46 118.64 95.09 118.64 97.09V182.39C118.64 184.39 117.01 186.02 115.01 186.02Z" fill="url(#paint0_linear_1187_2336)"/>
<path d="M115.01 94.36C116.52 94.36 117.74 95.58 117.74 97.09V182.39C117.74 183.9 116.52 185.12 115.01 185.12H33.87C32.36 185.12 31.14 183.9 31.14 182.39V97.09C31.14 95.58 32.36 94.36 33.87 94.36H115.01ZM115.01 93.47H33.87C31.88 93.47 30.24 95.1 30.24 97.1V182.4C30.24 184.39 31.87 186.03 33.87 186.03H115.01C117 186.03 118.64 184.4 118.64 182.4V97.1C118.64 95.1 117.01 93.47 115.01 93.47Z" fill="#45515C"/>
<path d="M52.8299 170.29C57.6348 170.29 61.5299 166.395 61.5299 161.59C61.5299 156.785 57.6348 152.89 52.8299 152.89C48.025 152.89 44.1299 156.785 44.1299 161.59C44.1299 166.395 48.025 170.29 52.8299 170.29Z" fill="white" stroke="#45515C" stroke-width="1.4075" stroke-miterlimit="10"/>
<path d="M49.0698 159.54L52.8298 163.79L66.8298 150.69" stroke="#6499FC" stroke-width="1.6515" stroke-miterlimit="10" stroke-linecap="round" stroke-linejoin="round"/>
<path d="M76.24 119.37H43.54C42.67 119.37 41.97 118.67 41.97 117.8V117.19C41.97 116.32 42.67 115.62 43.54 115.62H76.25C77.12 115.62 77.82 116.32 77.82 117.19V117.8C77.82 118.67 77.11 119.37 76.24 119.37Z" fill="#45515C"/>
<path d="M53.91 129.9H43.54C42.67 129.9 41.97 129.2 41.97 128.33V127.72C41.97 126.85 42.67 126.15 43.54 126.15H53.91C54.78 126.15 55.48 126.85 55.48 127.72V128.33C55.48 129.2 54.78 129.9 53.91 129.9Z" fill="#45515C"/>
<g opacity="0.2">
<path opacity="0.2" d="M398.06 189.1H312.33C311.6 189.1 310.99 188.51 310.99 187.8V97.85C310.99 97.13 311.59 96.55 312.33 96.55H398.06C398.79 96.55 399.4 97.14 399.76 98.21V186.82C399.76 188.01 399.03 189.09 398.08 189.1C398.07 189.1 398.06 189.1 398.06 189.1Z" fill="#2C71F0"/>
</g>
<path d="M393.05 186.02H311.9C309.91 186.02 308.27 184.39 308.27 182.39V97.09C308.27 95.1 309.9 93.46 311.9 93.46H393.04C395.03 93.46 396.67 95.09 396.67 97.09V182.39C396.67 184.39 395.04 186.02 393.05 186.02Z" fill="url(#paint1_linear_1187_2336)"/>
<path d="M393.05 94.36C394.56 94.36 395.78 95.58 395.78 97.09V182.39C395.78 183.9 394.56 185.12 393.05 185.12H311.9C310.39 185.12 309.17 183.9 309.17 182.39V97.09C309.17 95.58 310.39 94.36 311.9 94.36H393.05ZM393.05 93.47H311.9C309.91 93.47 308.27 95.1 308.27 97.1V182.4C308.27 184.39 309.9 186.03 311.9 186.03H393.04C395.03 186.03 396.67 184.4 396.67 182.4V97.1C396.67 95.1 395.04 93.47 393.05 93.47Z" fill="#45515C"/>
<path d="M331.94 129.9H321.57C320.7 129.9 320 129.2 320 128.33V127.72C320 126.85 320.7 126.15 321.57 126.15H331.94C332.81 126.15 333.51 126.85 333.51 127.72V128.33C333.51 129.2 332.81 129.9 331.94 129.9Z" fill="#45515C"/>
<path d="M215 110.51H201.83C196.07 110.51 191.4 115.18 191.4 120.94V139.95" stroke="#45515C" stroke-miterlimit="10"/>
<path d="M215 117.69C211.04 117.69 207.82 114.47 207.82 110.51C207.82 106.55 211.04 103.34 215 103.34C218.96 103.34 222.17 106.56 222.17 110.51C222.18 114.47 218.96 117.69 215 117.69Z" fill="#C4C4C4"/>
<path d="M215 103.84C218.68 103.84 221.68 106.83 221.68 110.52C221.68 114.21 218.69 117.2 215 117.2C211.31 117.2 208.32 114.21 208.32 110.52C208.32 106.83 211.32 103.84 215 103.84ZM215 102.84C210.76 102.84 207.32 106.28 207.32 110.52C207.32 114.76 210.76 118.2 215 118.2C219.24 118.2 222.68 114.76 222.68 110.52C222.68 106.28 219.24 102.84 215 102.84Z" fill="#45515C"/>
<path d="M134.98 139.89H270.73" stroke="#45515C" stroke-miterlimit="10" stroke-dasharray="10 10"/>
<path d="M215 169.33H201.83C196.07 169.33 191.4 164.66 191.4 158.9V139.89" stroke="#45515C" stroke-miterlimit="10"/>
<path d="M191.59 147.26C187.63 147.26 184.41 144.04 184.41 140.09C184.41 136.13 187.63 132.91 191.59 132.91C195.55 132.91 198.76 136.13 198.76 140.09C198.76 144.04 195.54 147.26 191.59 147.26Z" fill="#6499FC"/>
<path d="M191.59 133.41C195.27 133.41 198.27 136.4 198.27 140.09C198.27 143.78 195.28 146.77 191.59 146.77C187.9 146.77 184.91 143.78 184.91 140.09C184.91 136.4 187.91 133.41 191.59 133.41ZM191.59 132.41C187.35 132.41 183.91 135.85 183.91 140.09C183.91 144.33 187.35 147.77 191.59 147.77C195.83 147.77 199.27 144.33 199.27 140.09C199.27 135.85 195.83 132.41 191.59 132.41Z" fill="#45515C"/>
<path d="M237.94 147.26C233.98 147.26 230.77 144.04 230.77 140.09C230.77 136.13 233.99 132.91 237.94 132.91C241.9 132.91 245.12 136.13 245.12 140.09C245.11 144.04 241.9 147.26 237.94 147.26Z" fill="#6499FC"/>
<path d="M237.94 133.41C241.62 133.41 244.62 136.4 244.62 140.09C244.62 143.78 241.63 146.77 237.94 146.77C234.25 146.77 231.26 143.78 231.26 140.09C231.26 136.4 234.26 133.41 237.94 133.41ZM237.94 132.41C233.7 132.41 230.26 135.85 230.26 140.09C230.26 144.33 233.7 147.77 237.94 147.77C242.18 147.77 245.62 144.33 245.62 140.09C245.62 135.85 242.18 132.41 237.94 132.41Z" fill="#45515C"/>
<path d="M215 176.51C211.04 176.51 207.82 173.29 207.82 169.34C207.82 165.38 211.04 162.16 215 162.16C218.96 162.16 222.17 165.38 222.17 169.34C222.18 173.29 218.96 176.51 215 176.51Z" fill="#C4C4C4"/>
<path d="M215 162.66C218.68 162.66 221.68 165.65 221.68 169.34C221.68 173.03 218.69 176.02 215 176.02C211.31 176.02 208.32 173.03 208.32 169.34C208.32 165.65 211.32 162.66 215 162.66ZM215 161.66C210.76 161.66 207.32 165.1 207.32 169.34C207.32 173.58 210.76 177.02 215 177.02C219.24 177.02 222.68 173.58 222.68 169.34C222.68 165.1 219.24 161.66 215 161.66Z" fill="#45515C"/>
<path d="M123.38 112C107.21 112 94.0901 125.11 94.0901 141.29C94.0901 151.93 99.7701 161.25 108.26 166.38C108.26 166.38 108.26 166.38 108.27 166.38C108.77 166.68 109.28 166.96 109.79 167.23C109.91 167.29 110.03 167.36 110.16 167.42C110.6 167.64 111.05 167.86 111.51 168.06C111.61 168.1 111.7 168.15 111.8 168.19C112.35 168.43 112.9 168.65 113.47 168.85C113.56 168.88 113.65 168.91 113.75 168.94C114.22 169.1 114.7 169.26 115.18 169.4C115.33 169.44 115.49 169.49 115.64 169.53C116.14 169.67 116.64 169.79 117.15 169.9C117.23 169.92 117.31 169.94 117.4 169.96C117.98 170.08 118.58 170.18 119.17 170.27C119.32 170.29 119.48 170.31 119.63 170.33C120.09 170.39 120.56 170.44 121.03 170.48C121.2 170.49 121.38 170.51 121.55 170.52C122.16 170.56 122.77 170.58 123.4 170.58C124.02 170.58 124.63 170.55 125.25 170.52C125.42 170.51 125.6 170.49 125.77 170.48C126.24 170.44 126.71 170.39 127.17 170.33C127.32 170.31 127.48 170.29 127.63 170.27C128.23 170.18 128.82 170.08 129.4 169.96C129.48 169.94 129.56 169.92 129.65 169.9C130.16 169.79 130.66 169.66 131.16 169.53C131.31 169.49 131.47 169.44 131.62 169.4C132.1 169.26 132.58 169.11 133.05 168.94C133.14 168.91 133.23 168.88 133.32 168.85C133.88 168.65 134.44 168.43 134.99 168.19C135.09 168.15 135.18 168.1 135.27 168.06C135.73 167.86 136.18 167.64 136.62 167.42C136.74 167.36 136.86 167.3 136.98 167.23C137.5 166.96 138.01 166.68 138.51 166.38C147 161.25 152.68 151.94 152.68 141.29C152.67 125.11 139.56 112 123.38 112Z" fill="#D4DBFF"/>
<path d="M120.99 168.98C137.166 168.98 150.28 155.866 150.28 139.69C150.28 123.514 137.166 110.4 120.99 110.4C104.814 110.4 91.7 123.514 91.7 139.69C91.7 155.866 104.814 168.98 120.99 168.98Z" fill="#6499FC" stroke="#45515C" stroke-miterlimit="10"/>
<path d="M133.49 152.99H108.49V131.73C108.49 126.8 112.53 122.76 117.46 122.76H124.52C129.45 122.76 133.49 126.8 133.49 131.73V152.99Z" fill="white" stroke="#45515C" stroke-miterlimit="10" stroke-linecap="round" stroke-linejoin="round"/>
<path d="M132.53 152.99H109.45C107.48 152.99 105.87 154.6 105.87 156.57V164.78C110.28 167.45 115.46 168.98 120.99 168.98C126.52 168.98 131.69 167.44 136.11 164.78V156.57C136.11 154.6 134.5 152.99 132.53 152.99Z" fill="white" stroke="#45515C" stroke-miterlimit="10" stroke-linecap="round" stroke-linejoin="round"/>
<path d="M121.85 160.49H120.13C117.7 160.49 115.71 158.5 115.71 156.07V148.12C115.71 145.69 117.7 143.7 120.13 143.7H121.85C124.28 143.7 126.27 145.69 126.27 148.12V156.07C126.28 158.5 124.29 160.49 121.85 160.49Z" fill="white" stroke="#45515C" stroke-miterlimit="10" stroke-linecap="round" stroke-linejoin="round"/>
<path d="M129.93 131.99V139.54C129.93 144.45 125.91 148.47 121 148.47C116.09 148.47 112.07 144.45 112.07 139.54V131.99" fill="white"/>
<path d="M129.93 131.99V139.54C129.93 144.45 125.91 148.47 121 148.47C116.09 148.47 112.07 144.45 112.07 139.54V131.99" stroke="#45515C" stroke-miterlimit="10" stroke-linecap="round" stroke-linejoin="round"/>
<path d="M110.85 131.61C110.85 131.61 118.86 132.73 121.1 126.14C121.1 126.14 123.38 132.73 131.13 131.44" fill="white"/>
<path d="M110.85 131.61C110.85 131.61 118.86 132.73 121.1 126.14C121.1 126.14 123.38 132.73 131.13 131.44" stroke="#45515C" stroke-miterlimit="10" stroke-linecap="round" stroke-linejoin="round"/>
<path d="M342.56 139.69C342.56 123.52 329.45 110.4 313.27 110.4C297.1 110.4 283.98 123.51 283.98 139.69C283.98 150.33 289.66 159.65 298.15 164.78C298.65 165.08 299.16 165.36 299.68 165.64C299.8 165.7 299.92 165.76 300.04 165.83C300.48 166.06 300.94 166.27 301.39 166.47C301.48 166.51 301.58 166.56 301.67 166.6C302.22 166.84 302.77 167.06 303.34 167.26C303.43 167.29 303.52 167.32 303.61 167.35C304.08 167.52 304.56 167.67 305.04 167.81C305.19 167.85 305.35 167.9 305.5 167.94C306 168.08 306.5 168.2 307.01 168.31C307.09 168.33 307.17 168.35 307.26 168.37C307.84 168.49 308.44 168.59 309.03 168.68C309.18 168.7 309.33 168.72 309.49 168.74C309.95 168.8 310.42 168.85 310.89 168.89C311.06 168.9 311.24 168.92 311.41 168.93C312.02 168.97 312.63 168.99 313.26 168.99C313.88 168.99 314.49 168.96 315.11 168.93C315.28 168.92 315.46 168.9 315.63 168.89C316.1 168.85 316.57 168.8 317.03 168.74C317.18 168.72 317.33 168.7 317.48 168.68C318.08 168.59 318.67 168.49 319.26 168.37C319.34 168.35 319.42 168.33 319.5 168.31C320.01 168.2 320.52 168.07 321.02 167.94C321.17 167.9 321.33 167.85 321.48 167.81C321.96 167.67 322.44 167.52 322.92 167.35C323.01 167.32 323.1 167.29 323.19 167.26C323.76 167.06 324.31 166.84 324.86 166.6C324.95 166.56 325.05 166.52 325.14 166.47C325.6 166.27 326.05 166.05 326.49 165.83C326.61 165.77 326.73 165.71 326.85 165.64C327.37 165.37 327.88 165.09 328.38 164.78C336.88 159.65 342.56 150.33 342.56 139.69Z" fill="#D4DBFF"/>
<path d="M310.89 168.48C326.79 168.48 339.68 155.59 339.68 139.69C339.68 123.79 326.79 110.9 310.89 110.9C294.99 110.9 282.1 123.79 282.1 139.69C282.1 155.59 294.99 168.48 310.89 168.48Z" fill="#C4C4C4"/>
<path d="M310.88 111.4C326.48 111.4 339.17 124.09 339.17 139.69C339.17 155.29 326.48 167.98 310.88 167.98C295.28 167.98 282.59 155.29 282.59 139.69C282.6 124.09 295.29 111.4 310.88 111.4ZM310.88 110.4C294.71 110.4 281.59 123.51 281.59 139.69C281.59 155.86 294.7 168.98 310.88 168.98C327.06 168.98 340.17 155.87 340.17 139.69C340.17 123.52 327.06 110.4 310.88 110.4Z" fill="#45515C"/>
<path d="M317.26 140.79H304.51C301.13 140.79 298.39 138.05 298.39 134.67V131.74C298.39 126.81 302.43 122.77 307.36 122.77H314.42C319.35 122.77 323.39 126.81 323.39 131.74V134.67C323.38 138.05 320.64 140.79 317.26 140.79Z" fill="white" stroke="#45515C" stroke-miterlimit="10" stroke-linecap="round" stroke-linejoin="round"/>
<path d="M322.42 152.99H299.34C297.37 152.99 295.76 154.6 295.76 156.57V164.78C300.17 167.45 305.35 168.98 310.88 168.98C316.41 168.98 321.58 167.44 326 164.78V156.57C326 154.6 324.39 152.99 322.42 152.99Z" fill="white" stroke="#45515C" stroke-miterlimit="10" stroke-linecap="round" stroke-linejoin="round"/>
<path d="M311.74 160.49H310.02C307.59 160.49 305.6 158.5 305.6 156.07V148.12C305.6 145.69 307.59 143.7 310.02 143.7H311.74C314.17 143.7 316.16 145.69 316.16 148.12V156.07C316.17 158.5 314.18 160.49 311.74 160.49Z" fill="white" stroke="#45515C" stroke-miterlimit="10" stroke-linecap="round" stroke-linejoin="round"/>
<path d="M319.82 131.99V139.54C319.82 144.45 315.8 148.47 310.89 148.47C305.98 148.47 301.96 144.45 301.96 139.54V131.99" fill="white"/>
<path d="M319.82 131.99V139.54C319.82 144.45 315.8 148.47 310.89 148.47C305.98 148.47 301.96 144.45 301.96 139.54V131.99" stroke="#45515C" stroke-miterlimit="10" stroke-linecap="round" stroke-linejoin="round"/>
<path d="M300.74 131.61C300.74 131.61 308.75 132.73 310.99 126.14C310.99 126.14 313.27 132.73 321.02 131.44" fill="white"/>
<path d="M300.74 131.61C300.74 131.61 308.75 132.73 310.99 126.14C310.99 126.14 313.27 132.73 321.02 131.44" stroke="#45515C" stroke-miterlimit="10" stroke-linecap="round" stroke-linejoin="round"/>
<path d="M264.32 133.56L270.73 139.98L264.09 146.61" stroke="#45515C" stroke-miterlimit="10" stroke-linecap="round" stroke-linejoin="round"/>
<path d="M314.7 276.3L314.83 277.76L309.02 281.29L307.88 280.47L314.7 276.3Z" fill="#45515C"/>
<path d="M279.103 221.366L275.312 223.677L287.175 243.136L290.966 240.825L279.103 221.366Z" fill="#45515C"/>
<path d="M305.23 279.14L278.06 234.57C277.34 233.39 277.71 231.84 278.9 231.12L284.12 227.93C285.3 227.21 286.85 227.58 287.57 228.77L314.74 273.34C315.46 274.52 315.09 276.07 313.9 276.79L308.68 279.98C307.49 280.7 305.95 280.33 305.23 279.14Z" fill="#6499FC"/>
<path d="M285.42 228.16C286.1 228.16 286.71 228.5 287.06 229.08L314.23 273.65C314.78 274.56 314.49 275.74 313.59 276.29L308.37 279.48C308.07 279.66 307.72 279.76 307.37 279.76C306.69 279.76 306.08 279.42 305.73 278.84L278.56 234.27C278.01 233.36 278.3 232.18 279.2 231.63L284.42 228.44C284.73 228.26 285.07 228.16 285.42 228.16ZM285.42 227.57C284.97 227.57 284.52 227.69 284.12 227.94L278.9 231.13C277.72 231.85 277.34 233.4 278.06 234.58L305.23 279.15C305.7 279.93 306.53 280.35 307.38 280.35C307.83 280.35 308.28 280.23 308.68 279.98L313.9 276.79C315.08 276.07 315.46 274.52 314.74 273.34L287.57 228.77C287.1 228 286.27 227.57 285.42 227.57Z" fill="#45515C"/>
<path d="M263.85 231.68C282.401 231.68 297.44 216.641 297.44 198.09C297.44 179.539 282.401 164.5 263.85 164.5C245.299 164.5 230.26 179.539 230.26 198.09C230.26 216.641 245.299 231.68 263.85 231.68Z" fill="#6499FC"/>
<path d="M263.85 165.13C282.02 165.13 296.81 179.92 296.81 198.09C296.81 216.26 282.02 231.05 263.85 231.05C245.68 231.05 230.89 216.26 230.89 198.09C230.89 179.92 245.68 165.13 263.85 165.13ZM263.85 164.51C245.3 164.51 230.26 179.55 230.26 198.1C230.26 216.65 245.3 231.69 263.85 231.69C282.4 231.69 297.44 216.65 297.44 198.1C297.43 179.55 282.4 164.51 263.85 164.51Z" fill="#45515C"/>
<path d="M263.85 228.37C280.573 228.37 294.13 214.813 294.13 198.09C294.13 181.367 280.573 167.81 263.85 167.81C247.127 167.81 233.57 181.367 233.57 198.09C233.57 214.813 247.127 228.37 263.85 228.37Z" stroke="#45515C" stroke-width="0.6264" stroke-miterlimit="10"/>
<path d="M263.85 225.96C279.242 225.96 291.72 213.482 291.72 198.09C291.72 182.698 279.242 170.22 263.85 170.22C248.458 170.22 235.98 182.698 235.98 198.09C235.98 213.482 248.458 225.96 263.85 225.96Z" fill="white"/>
<path d="M263.85 170.85C278.87 170.85 291.09 183.07 291.09 198.09C291.09 213.11 278.87 225.33 263.85 225.33C248.83 225.33 236.61 213.11 236.61 198.09C236.61 183.07 248.83 170.85 263.85 170.85ZM263.85 170.22C248.46 170.22 235.98 182.7 235.98 198.09C235.98 213.48 248.46 225.96 263.85 225.96C279.24 225.96 291.72 213.48 291.72 198.09C291.72 182.7 279.24 170.22 263.85 170.22Z" fill="#45515C"/>
<path d="M242.77 198.25C242.77 198.25 262.94 222.77 285.53 198.25C285.53 198.25 265.36 173.73 242.77 198.25Z" fill="white"/>
<path d="M242.77 198.25C242.77 198.25 262.94 222.77 285.53 198.25C285.53 198.25 265.36 173.73 242.77 198.25Z" stroke="#45515C" stroke-width="0.6264" stroke-miterlimit="10"/>
<path d="M264.05 187.97C269.72 187.97 274.33 192.58 274.33 198.25C274.33 203.92 269.72 208.53 264.05 208.53C258.38 208.53 253.77 203.92 253.77 198.25C253.78 192.58 258.39 187.97 264.05 187.97ZM264.05 187.35C258.03 187.35 253.15 192.23 253.15 198.25C253.15 204.27 258.03 209.15 264.05 209.15C270.07 209.15 274.95 204.27 274.95 198.25C274.95 192.23 270.08 187.35 264.05 187.35Z" fill="#45515C"/>
<path d="M264.05 206.66C268.695 206.66 272.46 202.895 272.46 198.25C272.46 193.605 268.695 189.84 264.05 189.84C259.405 189.84 255.64 193.605 255.64 198.25C255.64 202.895 259.405 206.66 264.05 206.66Z" fill="#6499FC"/>
<path d="M384.4 119.37H351.69C350.82 119.37 350.12 118.67 350.12 117.8V117.19C350.12 116.32 350.82 115.62 351.69 115.62H384.4C385.27 115.62 385.97 116.32 385.97 117.19V117.8C385.97 118.67 385.27 119.37 384.4 119.37Z" fill="#45515C"/>
<path d="M362.06 129.9H351.69C350.82 129.9 350.12 129.2 350.12 128.33V127.72C350.12 126.85 350.82 126.15 351.69 126.15H362.06C362.93 126.15 363.63 126.85 363.63 127.72V128.33C363.64 129.2 362.93 129.9 362.06 129.9Z" fill="#45515C"/>
<path d="M372.98 170.29C377.785 170.29 381.68 166.395 381.68 161.59C381.68 156.785 377.785 152.89 372.98 152.89C368.175 152.89 364.28 156.785 364.28 161.59C364.28 166.395 368.175 170.29 372.98 170.29Z" fill="white" stroke="#45515C" stroke-width="1.4075" stroke-miterlimit="10"/>
<path d="M369.22 159.54L372.98 163.79L386.98 150.69" stroke="#6499FC" stroke-width="1.6515" stroke-miterlimit="10" stroke-linecap="round" stroke-linejoin="round"/>
<defs>
<linearGradient id="paint0_linear_1187_2336" x1="74.4405" y1="186.022" x2="74.4405" y2="93.4666" gradientUnits="userSpaceOnUse">
<stop stop-color="#E5EAFF"/>
<stop offset="0.4462" stop-color="#E7ECFF"/>
<stop offset="0.6268" stop-color="#EEF1FF"/>
<stop offset="0.7592" stop-color="#FAFBFF"/>
<stop offset="0.7947" stop-color="white"/>
</linearGradient>
<linearGradient id="paint1_linear_1187_2336" x1="352.475" y1="186.022" x2="352.475" y2="93.4666" gradientUnits="userSpaceOnUse">
<stop stop-color="#E5EAFF"/>
<stop offset="0.4462" stop-color="#E7ECFF"/>
<stop offset="0.6268" stop-color="#EEF1FF"/>
<stop offset="0.7592" stop-color="#FAFBFF"/>
<stop offset="0.7947" stop-color="white"/>
</linearGradient>
</defs>
</svg>
