<svg width="430" height="312" viewBox="0 0 430 312" fill="none" xmlns="http://www.w3.org/2000/svg">
<path d="M293.42 223.75V207.25C293.42 192.64 305.27 180.79 319.88 180.79" stroke="#45515C" stroke-miterlimit="10" stroke-linecap="round" stroke-linejoin="round"/>
<path d="M293.42 223.62C293.42 238.23 281.57 250.08 266.96 250.08H257.68" stroke="#45515C" stroke-miterlimit="10" stroke-linecap="round" stroke-linejoin="round"/>
<path d="M263.37 256.49L256.95 250.08L263.59 243.44" stroke="#45515C" stroke-miterlimit="10" stroke-linecap="round" stroke-linejoin="round"/>
<path d="M137.96 223.75V207.25C137.96 192.64 126.11 180.79 111.5 180.79" stroke="#45515C" stroke-miterlimit="10" stroke-linecap="round" stroke-linejoin="round"/>
<path d="M137.96 223.62C137.96 238.23 149.81 250.08 164.42 250.08H173.7" stroke="#45515C" stroke-miterlimit="10" stroke-linecap="round" stroke-linejoin="round"/>
<path d="M168.01 256.49L174.42 250.08L167.78 243.44" stroke="#45515C" stroke-miterlimit="10" stroke-linecap="round" stroke-linejoin="round"/>
<g opacity="0.2">
<path opacity="0.2" d="M119.46 226.12H33.7399C33.0099 226.12 32.3999 225.53 32.3999 224.82V134.87C32.3999 134.15 32.9999 133.57 33.7399 133.57H119.47C120.2 133.57 120.81 134.16 121.17 135.23V223.84C121.17 225.03 120.44 226.11 119.49 226.12C119.48 226.12 119.47 226.12 119.46 226.12Z" fill="#2C71F0"/>
</g>
<path d="M114.46 223.04H33.3099C31.3199 223.04 29.6799 221.41 29.6799 219.41V134.11C29.6799 132.12 31.3099 130.48 33.3099 130.48H114.45C116.44 130.48 118.08 132.11 118.08 134.11V219.41C118.08 221.41 116.45 223.04 114.46 223.04Z" fill="url(#paint0_linear_1187_2041)"/>
<path d="M114.46 131.39C115.97 131.39 117.19 132.61 117.19 134.12V219.42C117.19 220.93 115.97 222.15 114.46 222.15H33.3099C31.7999 222.15 30.5799 220.93 30.5799 219.42V134.12C30.5799 132.61 31.7999 131.39 33.3099 131.39H114.46ZM114.46 130.49H33.3099C31.3199 130.49 29.6799 132.12 29.6799 134.12V219.42C29.6799 221.41 31.3099 223.05 33.3099 223.05H114.45C116.44 223.05 118.08 221.42 118.08 219.42V134.12C118.08 132.12 116.45 130.49 114.46 130.49Z" fill="#45515C"/>
<path d="M182.04 227.21L215.1 211.99L248.15 227.21L215.1 242.19L182.04 227.21Z" fill="white" stroke="#45515C" stroke-miterlimit="10" stroke-linecap="round" stroke-linejoin="round"/>
<path d="M182.04 227.21L181.87 268.65L214.88 285.9L215.1 242.19L182.04 227.21Z" fill="#C4C4C4" stroke="#45515C" stroke-miterlimit="10" stroke-linecap="round" stroke-linejoin="round"/>
<path d="M248.15 227.21L248.32 268.65L215.32 285.9L215.1 242.19L248.15 227.21Z" fill="#6499FC" stroke="#45515C" stroke-miterlimit="10" stroke-linecap="round" stroke-linejoin="round"/>
<path d="M227.92 224.88H202.28V228.17H227.92V224.88Z" fill="#C4C4C4" stroke="#45515C" stroke-miterlimit="10" stroke-linecap="round" stroke-linejoin="round"/>
<g opacity="0.2">
<path opacity="0.2" d="M298.03 171.24H132.81C131.39 171.24 130.24 170.33 130.24 169.22V29.51C130.24 28.4 131.4 27.49 132.81 27.49H298.03C299.45 27.49 300.6 28.4 301.31 30.07V169.78C300.61 170.33 299.45 171.24 298.03 171.24Z" fill="#2C71F0"/>
</g>
<path d="M294.85 167.57H131.74C129.75 167.57 128.11 165.94 128.11 163.94V27.44C128.11 25.45 129.74 23.81 131.74 23.81H294.85C296.84 23.81 298.48 25.44 298.48 27.44V163.94C298.48 165.94 296.85 167.57 294.85 167.57Z" fill="url(#paint1_linear_1187_2041)"/>
<path d="M294.85 24.82C296.3 24.82 297.48 26 297.48 27.45V163.95C297.48 165.4 296.3 166.58 294.85 166.58H131.74C130.29 166.58 129.11 165.4 129.11 163.95V27.44C129.11 25.99 130.29 24.81 131.74 24.81H294.85V24.82ZM294.85 23.82H131.74C129.75 23.82 128.11 25.45 128.11 27.45V163.95C128.11 165.94 129.74 167.58 131.74 167.58H294.85C296.84 167.58 298.48 165.95 298.48 163.95V27.44C298.48 25.45 296.85 23.82 294.85 23.82Z" fill="#45515C"/>
<path d="M297.55 72.57C304.376 72.57 309.91 67.0362 309.91 60.21C309.91 53.3838 304.376 47.85 297.55 47.85C290.724 47.85 285.19 53.3838 285.19 60.21C285.19 67.0362 290.724 72.57 297.55 72.57Z" fill="white" stroke="#45515C" stroke-width="2" stroke-miterlimit="10"/>
<path d="M292.2 57.3L297.55 63.34L317.44 44.73" stroke="#6499FC" stroke-width="2.3466" stroke-miterlimit="10" stroke-linecap="round" stroke-linejoin="round"/>
<path d="M97.5 203.69C102.305 203.69 106.2 199.795 106.2 194.99C106.2 190.185 102.305 186.29 97.5 186.29C92.6952 186.29 88.8 190.185 88.8 194.99C88.8 199.795 92.6952 203.69 97.5 203.69Z" fill="white" stroke="#45515C" stroke-width="1.4075" stroke-miterlimit="10"/>
<path d="M93.74 192.94L97.5 197.2L111.5 184.1" stroke="#6499FC" stroke-width="1.6515" stroke-miterlimit="10" stroke-linecap="round" stroke-linejoin="round"/>
<path d="M212.38 192.33C223.127 192.33 231.84 183.617 231.84 172.87C231.84 162.123 223.127 153.41 212.38 153.41C201.632 153.41 192.92 162.123 192.92 172.87C192.92 183.617 201.632 192.33 212.38 192.33Z" fill="#45515C"/>
<path d="M215.12 194.02C204.66 194.02 196.16 185.51 196.16 175.06C196.16 164.61 204.67 156.1 215.12 156.1C225.57 156.1 234.08 164.61 234.08 175.06C234.08 185.51 225.58 194.02 215.12 194.02Z" fill="white"/>
<path d="M215.12 156.6C225.3 156.6 233.58 164.88 233.58 175.06C233.58 185.24 225.3 193.52 215.12 193.52C204.94 193.52 196.66 185.24 196.66 175.06C196.66 164.88 204.94 156.6 215.12 156.6ZM215.12 155.6C204.37 155.6 195.66 164.31 195.66 175.06C195.66 185.81 204.37 194.52 215.12 194.52C225.87 194.52 234.58 185.81 234.58 175.06C234.58 164.31 225.87 155.6 215.12 155.6Z" fill="#45515C"/>
<path d="M215.12 189.66C223.183 189.66 229.72 183.123 229.72 175.06C229.72 166.997 223.183 160.46 215.12 160.46C207.057 160.46 200.52 166.997 200.52 175.06C200.52 183.123 207.057 189.66 215.12 189.66Z" fill="white"/>
<path d="M215.12 160.46H215.11H215.1H215.09H215.08H215.07H215.06H215.05H215.04H215.03H215.02H215.01H215H214.99H214.98H214.97H214.96H214.95H214.94H214.93H214.92H214.91H214.9H214.89H214.88H214.87H214.86H214.85H214.84H214.83H214.82H214.81H214.8H214.79H214.78H214.77H214.76H214.75H214.74H214.73H214.72H214.71H214.7H214.69H214.68H214.67H214.66H214.65H214.64H214.63H214.62H214.61C214.6 160.46 214.6 160.46 214.59 160.46H214.58C214.57 160.46 214.57 160.46 214.56 160.46H214.55C214.54 160.46 214.54 160.46 214.53 160.46H214.52C214.51 160.46 214.51 160.46 214.5 160.46H214.49H214.48H214.47H214.46H214.45H214.44H214.43H214.42H214.41H214.4H214.39H214.38H214.37H214.36H214.35H214.34H214.33H214.32H214.31H214.3H214.29H214.28H214.27H214.26H214.25H214.24H214.23H214.22H214.21H214.2H214.19H214.18C214.17 160.46 214.17 160.46 214.16 160.46H214.15C214.14 160.46 214.14 160.46 214.13 160.46H214.12C214.11 160.46 214.11 160.46 214.1 160.46H214.09C214.08 160.46 214.08 160.46 214.07 160.46H214.06C214.05 160.46 214.05 160.46 214.04 160.46H214.03C214.02 160.46 214.02 160.46 214.01 160.46H214C213.99 160.46 213.99 160.46 213.98 160.46H213.97C213.96 160.46 213.96 160.46 213.95 160.46H213.94C213.93 160.46 213.93 160.46 213.92 160.46H213.91C213.9 160.46 213.9 160.46 213.89 160.46H213.88C213.87 160.46 213.87 160.46 213.86 160.46H213.85H213.84H213.83H213.82C213.81 160.46 213.81 160.46 213.8 160.46H213.79C213.78 160.46 213.78 160.46 213.77 160.46H213.76C213.75 160.46 213.74 160.46 213.73 160.46C213.72 160.46 213.71 160.46 213.7 160.46H213.69C213.68 160.46 213.67 160.46 213.67 160.46C213.66 160.46 213.65 160.46 213.64 160.46C213.63 160.46 213.62 160.46 213.61 160.46C213.6 160.46 213.59 160.46 213.58 160.46C213.57 160.46 213.56 160.46 213.55 160.46C213.54 160.46 213.53 160.46 213.52 160.46H213.51C213.49 160.46 213.47 160.46 213.45 160.47C213.41 160.48 213.37 160.48 213.34 160.49C212.85 160.56 212.36 160.65 211.89 160.77L212.13 161.74C213.19 161.48 214.29 161.35 215.39 161.35V160.46H215.12ZM208.33 162.13C208.04 162.28 207.77 162.44 207.49 162.61C207.48 162.61 207.48 162.62 207.47 162.62C207.46 162.62 207.46 162.63 207.45 162.63C207.45 162.63 207.44 162.63 207.44 162.64C207.43 162.64 207.43 162.65 207.42 162.65C207.42 162.65 207.41 162.65 207.41 162.66C207.41 162.66 207.4 162.66 207.4 162.67C207.4 162.67 207.39 162.67 207.39 162.68C207.39 162.68 207.39 162.68 207.38 162.68C207.38 162.68 207.37 162.68 207.37 162.69C207.37 162.69 207.36 162.69 207.36 162.7H207.35H207.34C207.34 162.7 207.34 162.7 207.33 162.7H207.32H207.31C207.31 162.7 207.31 162.7 207.3 162.7H207.29C207.29 162.7 207.29 162.7 207.28 162.7H207.27C207.27 162.7 207.27 162.7 207.26 162.7C207.26 162.7 207.26 162.7 207.25 162.7C207.25 162.7 207.25 162.7 207.24 162.7C207.24 162.7 207.24 162.7 207.23 162.7C207.23 162.7 207.23 162.7 207.22 162.7C207.22 162.7 207.22 162.7 207.21 162.7C207.21 162.7 207.21 162.7 207.2 162.7C207.2 162.7 207.2 162.7 207.19 162.7C207.19 162.7 207.19 162.7 207.18 162.7C207.18 162.7 207.18 162.7 207.17 162.7C207.17 162.7 207.17 162.7 207.16 162.7C207.16 162.7 207.15 162.7 207.15 162.71C207.15 162.71 207.14 162.71 207.14 162.72C207.13 162.72 207.13 162.73 207.12 162.73C207.12 162.73 207.11 162.73 207.11 162.74C207.11 162.74 207.11 162.74 207.1 162.74C207.1 162.74 207.09 162.74 207.09 162.75C207.08 162.75 207.08 162.76 207.07 162.76C207.06 162.76 207.06 162.77 207.05 162.77C207.05 162.77 207.04 162.77 207.04 162.78C207.03 162.78 207.03 162.79 207.02 162.79C207.01 162.8 207 162.8 206.99 162.81C206.75 162.97 206.52 163.13 206.3 163.31C206.29 163.32 206.28 163.32 206.27 163.33C206.26 163.33 206.26 163.34 206.25 163.34C206.24 163.35 206.23 163.35 206.22 163.36C206.21 163.36 206.21 163.37 206.2 163.37C206.2 163.37 206.19 163.37 206.19 163.38C206.19 163.38 206.19 163.38 206.18 163.38C206.18 163.38 206.17 163.38 206.17 163.39C206.17 163.39 206.17 163.39 206.16 163.39C206.16 163.39 206.15 163.39 206.15 163.4C206.15 163.4 206.14 163.4 206.14 163.41C206.14 163.41 206.13 163.41 206.13 163.42C206.13 163.42 206.13 163.42 206.12 163.43C206.12 163.43 206.12 163.43 206.11 163.44C206.11 163.44 206.11 163.44 206.1 163.45C206.1 163.45 206.1 163.45 206.09 163.45C206.09 163.45 206.09 163.45 206.08 163.45C206.08 163.45 206.08 163.45 206.07 163.45C206.07 163.45 206.07 163.45 206.06 163.46C206.06 163.46 206.06 163.46 206.05 163.46C206.05 163.46 206.05 163.46 206.04 163.46C206.04 163.46 206.04 163.46 206.03 163.46C206.03 163.46 206.03 163.46 206.02 163.47C206.02 163.47 206.02 163.47 206.01 163.48C206.01 163.48 206.01 163.48 206 163.49C206 163.49 206 163.49 205.99 163.5C205.99 163.5 205.99 163.5 205.98 163.51C205.98 163.51 205.98 163.51 205.97 163.52C205.97 163.52 205.97 163.52 205.96 163.53C205.96 163.53 205.95 163.53 205.95 163.54C205.95 163.54 205.95 163.54 205.94 163.55C205.94 163.55 205.93 163.55 205.93 163.56C205.93 163.56 205.92 163.56 205.92 163.57C205.92 163.57 205.92 163.57 205.91 163.58C205.9 163.58 205.9 163.59 205.89 163.59C205.88 163.59 205.88 163.6 205.87 163.6C205.87 163.6 205.86 163.6 205.86 163.61C205.85 163.61 205.85 163.62 205.84 163.62C205.71 163.72 205.59 163.83 205.47 163.94L206.13 164.69C206.95 163.96 207.86 163.33 208.83 162.82L208.33 162.13ZM203.1 166.77C202.88 167.09 202.67 167.43 202.47 167.77C202.46 167.78 202.46 167.79 202.45 167.8C202.45 167.81 202.44 167.81 202.44 167.82C202.44 167.82 202.44 167.83 202.43 167.83C202.43 167.84 202.42 167.84 202.42 167.85C202.42 167.85 202.42 167.86 202.41 167.86C202.41 167.86 202.41 167.86 202.41 167.87V167.88C202.41 167.88 202.41 167.88 202.41 167.89C202.41 167.89 202.41 167.89 202.41 167.9C202.41 167.9 202.41 167.9 202.41 167.91C202.41 167.91 202.41 167.91 202.41 167.92C202.41 167.92 202.41 167.92 202.41 167.93C202.41 167.93 202.41 167.93 202.41 167.94C202.41 167.94 202.41 167.94 202.41 167.95C202.41 167.95 202.41 167.95 202.41 167.96C202.41 167.96 202.41 167.96 202.41 167.97C202.41 167.97 202.41 167.97 202.41 167.98C202.41 167.98 202.41 167.98 202.41 167.99C202.41 167.99 202.41 167.99 202.41 168V168.01C202.41 168.01 202.41 168.01 202.41 168.02V168.03C202.41 168.03 202.41 168.03 202.41 168.04C202.41 168.04 202.41 168.04 202.41 168.05V168.06C202.41 168.06 202.41 168.06 202.41 168.07V168.08V168.09V168.1V168.11V168.12V168.13C202.41 168.14 202.4 168.14 202.4 168.15V168.16C202.4 168.17 202.39 168.17 202.39 168.18C202.39 168.19 202.38 168.19 202.38 168.2C202.09 168.74 201.84 169.3 201.62 169.87L202.56 170.22C202.95 169.2 203.46 168.22 204.08 167.32L203.1 166.77ZM200.62 173.31C200.61 173.36 200.61 173.41 200.6 173.46V173.47C200.6 173.47 200.6 173.47 200.6 173.48C200.6 173.48 200.6 173.48 200.6 173.49C200.6 173.49 200.6 173.49 200.6 173.5C200.6 173.5 200.6 173.5 200.6 173.51C200.6 173.51 200.6 173.51 200.6 173.52C200.6 173.52 200.6 173.52 200.6 173.53V173.54V173.55V173.56V173.57V173.58C200.6 173.59 200.6 173.59 200.6 173.6V173.61C200.56 173.99 200.54 174.38 200.53 174.77C200.53 174.78 200.53 174.79 200.53 174.8V174.81C200.53 174.82 200.53 174.83 200.53 174.83V174.84C200.53 174.85 200.53 174.85 200.53 174.86V174.87V174.88V174.89V174.9V174.91C200.53 174.92 200.53 174.92 200.53 174.93V174.94V174.95V174.96V174.97V174.98V174.99V175V175.01V175.02V175.03V175.04V175.05V175.06V175.07V175.08V175.09V175.1V175.11V175.12V175.13V175.14V175.15V175.16V175.17V175.18V175.19V175.2C200.53 175.21 200.53 175.21 200.53 175.22V175.23V175.24V175.25V175.26C200.53 175.27 200.53 175.27 200.53 175.28V175.29C200.53 175.3 200.53 175.3 200.53 175.31V175.32V175.33V175.34V175.35C200.53 175.36 200.53 175.37 200.53 175.38C200.53 175.39 200.53 175.4 200.53 175.41V175.42C200.53 175.43 200.53 175.44 200.53 175.44C200.54 175.87 200.58 176.3 200.63 176.72L201.62 176.6C201.55 176.06 201.52 175.5 201.52 174.95C201.52 174.4 201.55 173.86 201.62 173.32L200.62 173.31ZM202.4 179.9L201.47 180.26C201.47 180.27 201.48 180.28 201.48 180.29V180.3C201.48 180.3 201.48 180.3 201.48 180.31V180.32C201.48 180.33 201.48 180.33 201.49 180.34V180.35C201.49 180.35 201.49 180.35 201.49 180.36C201.49 180.36 201.49 180.36 201.49 180.37C201.49 180.37 201.49 180.37 201.49 180.38C201.49 180.38 201.49 180.38 201.49 180.39C201.49 180.39 201.49 180.39 201.49 180.4C201.49 180.4 201.49 180.4 201.49 180.41V180.42C201.49 180.42 201.49 180.42 201.49 180.43V180.44V180.45V180.46V180.47V180.48V180.49V180.5V180.51V180.52C201.49 180.53 201.5 180.53 201.5 180.54C201.85 181.41 202.29 182.24 202.8 183.02C202.81 183.03 202.81 183.04 202.82 183.05C202.82 183.06 202.83 183.06 202.83 183.07C202.83 183.07 202.83 183.08 202.84 183.08C202.84 183.08 202.84 183.09 202.85 183.09C202.85 183.09 202.85 183.1 202.86 183.1C202.86 183.1 202.86 183.11 202.87 183.11C202.87 183.11 202.87 183.12 202.88 183.12C202.88 183.12 202.88 183.13 202.89 183.13C202.89 183.13 202.89 183.13 202.89 183.14C202.89 183.14 202.89 183.15 202.9 183.15C202.9 183.15 202.9 183.16 202.91 183.16C202.91 183.16 202.91 183.16 202.91 183.17C202.91 183.17 202.91 183.18 202.92 183.18C202.92 183.18 202.92 183.18 202.92 183.19C202.92 183.19 202.92 183.19 202.92 183.2C202.92 183.2 202.92 183.2 202.92 183.21C202.92 183.21 202.92 183.21 202.92 183.22C202.92 183.22 202.92 183.22 202.92 183.23C202.92 183.23 202.92 183.23 202.92 183.24C202.92 183.24 202.92 183.24 202.92 183.25C202.92 183.25 202.92 183.25 202.92 183.26C202.92 183.26 202.92 183.26 202.92 183.27C202.92 183.27 202.92 183.27 202.92 183.28C202.92 183.28 202.92 183.28 202.92 183.29C202.92 183.29 202.92 183.29 202.92 183.3C202.92 183.3 202.92 183.3 202.92 183.31L203.74 182.74C203.31 181.89 202.79 180.92 202.4 179.9ZM206.11 185.25L205.45 186C206.33 186.78 207.3 187.45 208.35 188L208.81 187.11C207.84 186.6 206.94 185.98 206.11 185.25ZM211.88 188.27L211.64 189.24C212.5 189.45 213.4 189.59 214.32 189.64C214.33 189.64 214.34 189.64 214.35 189.64H214.36C214.37 189.64 214.37 189.64 214.38 189.64H214.39C214.4 189.64 214.41 189.64 214.41 189.64H214.42C214.43 189.64 214.44 189.64 214.44 189.64H214.45C214.46 189.64 214.47 189.64 214.48 189.64C214.49 189.64 214.5 189.64 214.51 189.64H214.52C214.53 189.64 214.53 189.64 214.54 189.64H214.55C214.56 189.64 214.56 189.64 214.57 189.64H214.58C214.59 189.64 214.59 189.64 214.6 189.64H214.61C214.62 189.64 214.62 189.64 214.63 189.64H214.64H214.65H214.66H214.67H214.68H214.69H214.7H214.71H214.72H214.73H214.74H214.75H214.76H214.77H214.78H214.79H214.8C214.81 189.64 214.81 189.64 214.82 189.64H214.83H214.84H214.85H214.86H214.87H214.88H214.89H214.9H214.91H214.92H214.93H214.94H214.95H214.96H214.97H214.98H214.99H215V188.64C214.02 188.66 212.94 188.53 211.88 188.27ZM221.46 187.1C220.49 187.61 219.46 188.01 218.4 188.27L218.64 189.24C219 189.15 219.36 189.05 219.72 188.93C219.73 188.93 219.74 188.92 219.75 188.92C219.76 188.92 219.77 188.91 219.78 188.91C219.79 188.91 219.79 188.91 219.8 188.9C219.81 188.9 219.82 188.89 219.83 188.89C219.84 188.89 219.84 188.89 219.85 188.88H219.86C219.87 188.88 219.87 188.88 219.88 188.87C219.89 188.87 219.89 188.87 219.9 188.86H219.91C219.92 188.86 219.92 188.86 219.93 188.85H219.94C219.94 188.85 219.94 188.85 219.95 188.85H219.96C219.97 188.85 219.97 188.85 219.98 188.84H219.99C219.99 188.84 219.99 188.84 220 188.84H220.01C220.01 188.84 220.01 188.84 220.02 188.84H220.03C220.03 188.84 220.03 188.84 220.04 188.84C220.04 188.84 220.04 188.84 220.05 188.84C220.05 188.84 220.05 188.84 220.06 188.84C220.06 188.84 220.06 188.84 220.07 188.84C220.07 188.84 220.07 188.84 220.08 188.84C220.08 188.84 220.08 188.84 220.09 188.84C220.09 188.84 220.09 188.84 220.1 188.84C220.1 188.84 220.1 188.84 220.11 188.84C220.11 188.84 220.11 188.84 220.12 188.84C220.12 188.84 220.12 188.84 220.13 188.84C220.13 188.84 220.13 188.84 220.14 188.84C220.14 188.84 220.14 188.84 220.15 188.84C220.15 188.84 220.15 188.84 220.16 188.84H220.17C220.17 188.84 220.17 188.84 220.18 188.84C220.18 188.84 220.18 188.84 220.19 188.84H220.2C220.2 188.84 220.2 188.84 220.21 188.84H220.22C220.22 188.84 220.22 188.84 220.23 188.84C220.23 188.84 220.23 188.84 220.24 188.84H220.25C220.25 188.84 220.25 188.84 220.26 188.84H220.27H220.28H220.29H220.3H220.31H220.32H220.33H220.34H220.35H220.36H220.37H220.38C220.39 188.84 220.39 188.83 220.4 188.83H220.41H220.42H220.43C220.44 188.83 220.44 188.82 220.45 188.82H220.46C220.47 188.82 220.47 188.81 220.48 188.81C220.49 188.81 220.5 188.8 220.51 188.8C220.52 188.8 220.52 188.79 220.53 188.79C220.99 188.6 221.44 188.39 221.88 188.16L221.46 187.1ZM226.33 182.76C225.71 183.66 224.98 184.49 224.16 185.22L224.82 185.97C224.83 185.97 224.83 185.96 224.84 185.96C224.84 185.96 224.84 185.96 224.85 185.95C224.85 185.95 224.85 185.95 224.86 185.94C224.86 185.94 224.86 185.94 224.87 185.93C224.87 185.93 224.88 185.93 224.88 185.92C224.88 185.92 224.89 185.92 224.89 185.91C224.89 185.91 224.9 185.91 224.9 185.9C224.9 185.9 224.9 185.9 224.91 185.89C224.91 185.89 224.91 185.89 224.92 185.88C224.92 185.88 224.92 185.88 224.93 185.87C224.93 185.87 224.93 185.87 224.94 185.86C224.94 185.86 224.94 185.86 224.95 185.85C224.95 185.85 224.95 185.85 224.96 185.84C224.96 185.84 224.96 185.84 224.97 185.83C224.97 185.83 224.97 185.83 224.98 185.82C224.98 185.82 224.98 185.82 224.99 185.81C224.99 185.81 224.99 185.81 225 185.8C225 185.8 225 185.8 225.01 185.79C225.01 185.79 225.01 185.79 225.02 185.78C225.02 185.78 225.02 185.78 225.03 185.77C225.03 185.77 225.03 185.77 225.04 185.76C225.04 185.76 225.04 185.76 225.05 185.75C225.05 185.75 225.05 185.75 225.06 185.74C225.06 185.74 225.06 185.74 225.07 185.73C225.07 185.73 225.07 185.73 225.08 185.72C225.08 185.72 225.08 185.72 225.09 185.71C225.09 185.71 225.09 185.71 225.1 185.7C225.1 185.7 225.1 185.7 225.11 185.69C225.11 185.69 225.11 185.69 225.12 185.68C225.12 185.68 225.12 185.68 225.13 185.68C225.13 185.68 225.13 185.68 225.14 185.67C225.14 185.67 225.14 185.67 225.15 185.66C225.15 185.66 225.15 185.66 225.16 185.66C225.16 185.66 225.16 185.66 225.17 185.66C225.17 185.66 225.17 185.66 225.18 185.65C225.18 185.65 225.18 185.65 225.19 185.64C225.19 185.64 225.19 185.64 225.2 185.63C225.2 185.63 225.2 185.63 225.21 185.62C225.21 185.62 225.21 185.62 225.22 185.61C225.22 185.61 225.22 185.61 225.23 185.61C225.23 185.61 225.23 185.61 225.24 185.6C225.24 185.6 225.24 185.6 225.25 185.59L225.26 185.58L225.27 185.57C225.27 185.57 225.27 185.57 225.28 185.56C225.28 185.56 225.29 185.56 225.29 185.55L225.3 185.54L225.31 185.53L225.32 185.52L225.33 185.51L225.34 185.5C225.35 185.49 225.36 185.48 225.36 185.48C225.88 184.96 226.37 184.4 226.81 183.81C226.81 183.8 226.82 183.8 226.82 183.79C226.82 183.79 226.82 183.78 226.83 183.78C226.83 183.78 226.83 183.77 226.84 183.77C226.84 183.77 226.84 183.77 226.84 183.76C226.84 183.76 226.84 183.76 226.84 183.75C226.84 183.75 226.84 183.75 226.84 183.74C226.84 183.74 226.84 183.74 226.84 183.73C226.84 183.73 226.84 183.73 226.84 183.72C226.84 183.72 226.84 183.72 226.84 183.71C226.84 183.71 226.84 183.71 226.85 183.7C226.85 183.7 226.85 183.7 226.86 183.69C226.86 183.69 226.86 183.69 226.87 183.68C226.87 183.68 226.87 183.67 226.88 183.67C226.88 183.67 226.88 183.66 226.89 183.66C226.89 183.66 226.89 183.65 226.9 183.65C226.9 183.64 226.91 183.64 226.91 183.63C226.97 183.55 227.03 183.46 227.09 183.38L226.33 182.76ZM228.63 176.67C228.5 177.76 228.24 178.83 227.85 179.86L228.79 180.21C228.87 180.01 228.94 179.81 229 179.6C229 179.59 229.01 179.58 229.01 179.57V179.56V179.55V179.54V179.53V179.52V179.51V179.5V179.49V179.48V179.47V179.46V179.45C229.01 179.45 229.01 179.45 229.01 179.44V179.43V179.42C229.01 179.42 229.01 179.42 229.01 179.41V179.4C229.01 179.4 229.01 179.4 229.01 179.39C229.01 179.39 229.01 179.39 229.01 179.38C229.01 179.38 229.01 179.38 229.01 179.37C229.01 179.37 229.01 179.37 229.01 179.36C229.01 179.36 229.01 179.36 229.01 179.35C229.01 179.35 229.01 179.35 229.01 179.34C229.01 179.34 229.01 179.34 229.01 179.33C229.01 179.33 229.01 179.33 229.01 179.32C229.01 179.32 229.01 179.32 229.01 179.31C229.01 179.31 229.01 179.31 229.01 179.3C229.01 179.3 229.01 179.3 229.01 179.29C229.01 179.29 229.01 179.29 229.01 179.28C229.01 179.28 229.01 179.28 229.01 179.27V179.26V179.25C229.01 179.25 229.01 179.25 229.01 179.24V179.23C229.01 179.22 229.01 179.22 229.02 179.21V179.2C229.02 179.19 229.02 179.19 229.03 179.18C229.03 179.17 229.03 179.17 229.04 179.16V179.15C229.04 179.14 229.04 179.14 229.05 179.13C229.21 178.59 229.33 178.03 229.43 177.46C229.43 177.45 229.43 177.44 229.44 177.43C229.44 177.42 229.44 177.41 229.45 177.4C229.45 177.39 229.45 177.39 229.45 177.38V177.37V177.36C229.45 177.36 229.45 177.36 229.45 177.35V177.34C229.45 177.34 229.45 177.34 229.45 177.33V177.32V177.31C229.45 177.31 229.45 177.31 229.45 177.3C229.45 177.3 229.45 177.3 229.45 177.29C229.45 177.29 229.45 177.29 229.45 177.28C229.45 177.28 229.45 177.28 229.45 177.27V177.26V177.25C229.45 177.25 229.45 177.25 229.45 177.24V177.23C229.45 177.23 229.45 177.23 229.45 177.22C229.45 177.22 229.45 177.22 229.45 177.21V177.2V177.19V177.18V177.17V177.16V177.15V177.14V177.13V177.12C229.45 177.11 229.45 177.11 229.45 177.1V177.09C229.46 177.01 229.47 176.92 229.48 176.84L228.63 176.67ZM228.76 169.85L227.83 170.21C228.22 171.23 228.49 172.3 228.62 173.39L229.61 173.27C229.59 173.11 229.57 172.95 229.54 172.8C229.54 172.79 229.54 172.79 229.54 172.78V172.77C229.54 172.76 229.54 172.76 229.54 172.75V172.74C229.54 172.73 229.54 172.73 229.54 172.72V172.71C229.54 172.71 229.54 172.71 229.54 172.7V172.69V172.68C229.54 172.68 229.54 172.68 229.54 172.67V172.66C229.54 172.66 229.54 172.66 229.54 172.65C229.54 172.65 229.54 172.65 229.54 172.64C229.54 172.64 229.54 172.64 229.54 172.63C229.54 172.63 229.54 172.63 229.54 172.62C229.54 172.62 229.54 172.62 229.54 172.61V172.6C229.54 172.6 229.54 172.6 229.54 172.59C229.54 172.59 229.54 172.59 229.54 172.58C229.54 172.58 229.54 172.58 229.54 172.57V172.56C229.54 172.56 229.54 172.56 229.54 172.55V172.54V172.53C229.54 172.53 229.54 172.53 229.54 172.52V172.51V172.5C229.54 172.5 229.54 172.5 229.54 172.49V172.48V172.47V172.46V172.45V172.44V172.43V172.42V172.41V172.4V172.39V172.38V172.37C229.54 172.36 229.54 172.36 229.54 172.35V172.34V172.33V172.32V172.31C229.54 172.3 229.54 172.3 229.54 172.29V172.28V172.27V172.26C229.54 172.25 229.54 172.25 229.54 172.24V172.23C229.54 172.22 229.54 172.22 229.54 172.21C229.54 172.2 229.54 172.19 229.53 172.18V172.17C229.53 172.16 229.53 172.16 229.53 172.15C229.44 171.73 229.34 171.31 229.21 170.9C229.2 170.87 229.19 170.84 229.18 170.81V170.8C229.18 170.79 229.18 170.79 229.17 170.78V170.77V170.76V170.75C229.17 170.74 229.17 170.74 229.16 170.73V170.72C229.16 170.71 229.16 170.71 229.15 170.7V170.69C229.15 170.68 229.15 170.68 229.14 170.67V170.66V170.65V170.64V170.63V170.62V170.61V170.6V170.59V170.58V170.57V170.56V170.55V170.54V170.53V170.52V170.51V170.5V170.49C229.14 170.49 229.14 170.49 229.14 170.48V170.47C229.14 170.47 229.14 170.47 229.14 170.46C229.14 170.46 229.14 170.46 229.14 170.45V170.44C229.14 170.44 229.14 170.44 229.14 170.43C229.14 170.43 229.14 170.43 229.14 170.42V170.41C229.14 170.41 229.14 170.41 229.14 170.4V170.39V170.38C229.14 170.38 229.14 170.38 229.14 170.37V170.36C229.14 170.36 229.14 170.36 229.14 170.35C229.14 170.35 229.14 170.35 229.14 170.34C229.14 170.34 229.14 170.34 229.14 170.33C229.14 170.33 229.14 170.33 229.14 170.32C229.14 170.32 229.14 170.32 229.14 170.31C229.14 170.31 229.14 170.31 229.14 170.3C229.14 170.3 229.14 170.3 229.14 170.29V170.28C229.14 170.28 229.14 170.28 229.14 170.27V170.26C229.14 170.26 229.14 170.26 229.14 170.25C229.14 170.25 229.14 170.25 229.14 170.24V170.23C229.14 170.23 229.14 170.23 229.14 170.22V170.21V170.2C229.14 170.2 229.14 170.2 229.14 170.19V170.18C229.14 170.18 229.14 170.18 229.14 170.17V170.16V170.15C229.14 170.14 229.14 170.14 229.13 170.13C229.13 170.12 229.12 170.11 229.12 170.1C229.12 170.09 229.12 170.09 229.11 170.08V170.07C229.11 170.06 229.11 170.06 229.1 170.05C228.79 169.92 228.78 169.88 228.76 169.85ZM224.77 164.11L224.11 164.86C224.93 165.59 225.67 166.41 226.29 167.31L227.11 166.74C227.04 166.64 226.97 166.54 226.9 166.45L226.89 166.44C226.89 166.43 226.88 166.43 226.88 166.42C226.88 166.41 226.87 166.41 226.87 166.4C226.87 166.4 226.87 166.39 226.86 166.39C226.86 166.39 226.86 166.39 226.85 166.38C226.85 166.38 226.85 166.37 226.84 166.37C226.84 166.37 226.84 166.36 226.83 166.36C226.83 166.36 226.83 166.36 226.82 166.35C226.82 166.35 226.82 166.35 226.81 166.34C226.81 166.34 226.81 166.34 226.81 166.33C226.81 166.33 226.81 166.33 226.81 166.32C226.81 166.32 226.81 166.32 226.81 166.31C226.81 166.31 226.81 166.31 226.81 166.3C226.81 166.3 226.81 166.3 226.81 166.29C226.81 166.29 226.81 166.29 226.81 166.28C226.81 166.28 226.81 166.28 226.8 166.27C226.8 166.27 226.8 166.27 226.8 166.26C226.8 166.26 226.8 166.26 226.79 166.25C226.79 166.25 226.79 166.25 226.79 166.24C226.79 166.24 226.79 166.24 226.79 166.23C226.79 166.23 226.79 166.23 226.78 166.22C226.78 166.22 226.78 166.22 226.78 166.21C226.78 166.21 226.78 166.21 226.77 166.2C226.77 166.2 226.77 166.2 226.77 166.19C226.77 166.19 226.77 166.19 226.76 166.18C226.76 166.18 226.76 166.18 226.75 166.17C226.75 166.17 226.75 166.17 226.74 166.16C226.74 166.16 226.74 166.15 226.73 166.15C226.73 166.15 226.73 166.15 226.72 166.14C226.72 166.14 226.72 166.13 226.71 166.13C226.71 166.13 226.71 166.12 226.7 166.12C226.7 166.12 226.7 166.12 226.69 166.11C226.69 166.11 226.69 166.11 226.68 166.1C226.68 166.1 226.68 166.09 226.67 166.09C226.67 166.09 226.67 166.08 226.66 166.08C226.66 166.07 226.65 166.07 226.65 166.06C226.65 166.06 226.65 166.05 226.64 166.05C226.64 166.05 226.64 166.04 226.63 166.04C226.63 166.04 226.63 166.03 226.62 166.03C226.62 166.02 226.61 166.02 226.61 166.01C226.61 166.01 226.61 166 226.6 166C226.6 166 226.6 166 226.59 165.99C226.59 165.99 226.59 165.98 226.58 165.98C226.58 165.97 226.57 165.97 226.57 165.96C226.57 165.95 226.56 165.95 226.56 165.94C226.56 165.94 226.56 165.93 226.55 165.93C226.55 165.93 226.55 165.93 226.54 165.92C226.54 165.92 226.54 165.91 226.53 165.91C226.53 165.9 226.52 165.9 226.52 165.89C226.52 165.89 226.52 165.88 226.51 165.88C226.51 165.88 226.51 165.87 226.5 165.87C226.5 165.87 226.5 165.86 226.49 165.86C226.49 165.85 226.48 165.85 226.48 165.84C226.48 165.83 226.47 165.83 226.47 165.82C226.47 165.82 226.47 165.81 226.46 165.81C226.46 165.8 226.45 165.8 226.45 165.79C226.45 165.79 226.45 165.78 226.44 165.78C226.44 165.78 226.44 165.77 226.43 165.77C226.43 165.77 226.43 165.77 226.42 165.76C226.42 165.76 226.42 165.75 226.41 165.75C226.41 165.75 226.41 165.74 226.4 165.74C226.4 165.74 226.39 165.73 226.39 165.72C226.39 165.72 226.39 165.72 226.38 165.71C226.38 165.71 226.38 165.71 226.37 165.7C226.37 165.7 226.37 165.69 226.36 165.69C226.36 165.69 226.35 165.68 226.35 165.67C226.35 165.67 226.35 165.66 226.34 165.66C226.34 165.66 226.34 165.65 226.33 165.65C226.33 165.65 226.33 165.64 226.32 165.64C226.32 165.64 226.31 165.63 226.31 165.62C226.31 165.62 226.31 165.61 226.3 165.61C226.3 165.61 226.3 165.61 226.29 165.6C226.29 165.6 226.29 165.6 226.28 165.59C226.28 165.59 226.28 165.59 226.27 165.58C226.27 165.58 226.27 165.58 226.26 165.57C226.26 165.57 226.26 165.57 226.25 165.56C226.25 165.56 226.25 165.56 226.24 165.55C226.24 165.55 226.24 165.55 226.23 165.54C226.23 165.54 226.23 165.54 226.22 165.53C226.22 165.53 226.22 165.53 226.21 165.52C226.21 165.52 226.21 165.52 226.2 165.51C226.2 165.51 226.2 165.51 226.19 165.5C226.19 165.5 226.19 165.5 226.18 165.49C226.18 165.49 226.18 165.49 226.17 165.48C226.17 165.48 226.17 165.48 226.16 165.47C226.16 165.47 226.16 165.47 226.15 165.46C226.15 165.46 226.15 165.46 226.14 165.45C226.14 165.45 226.14 165.45 226.13 165.44C226.13 165.44 226.13 165.44 226.12 165.43C226.12 165.43 226.12 165.43 226.11 165.42C226.11 165.42 226.11 165.42 226.1 165.41C226.1 165.41 226.1 165.41 226.09 165.4C226.09 165.4 226.09 165.4 226.08 165.39C226.08 165.39 226.08 165.39 226.07 165.38C226.07 165.38 226.07 165.38 226.06 165.37C226.06 165.37 226.06 165.37 226.06 165.36C226.06 165.36 226.06 165.36 226.05 165.35C226.05 165.35 226.05 165.35 226.04 165.34C226.04 165.34 226.04 165.34 226.03 165.33C226.03 165.33 226.03 165.33 226.02 165.32C226.02 165.32 226.02 165.32 226.01 165.31C226.01 165.31 226.01 165.31 226.01 165.3C226.01 165.3 226.01 165.3 226.01 165.29C226.01 165.29 226.01 165.29 226 165.28C226 165.28 226 165.28 225.99 165.27C225.99 165.27 225.99 165.27 225.99 165.26C225.99 165.26 225.99 165.26 225.98 165.25C225.98 165.25 225.98 165.25 225.98 165.24C225.98 165.24 225.98 165.24 225.97 165.23C225.97 165.23 225.97 165.23 225.97 165.22L225.96 165.21L225.95 165.2L225.94 165.19L225.93 165.18L225.92 165.17L225.91 165.16L225.9 165.15L225.89 165.14L225.88 165.13C225.88 165.12 225.87 165.12 225.87 165.12C225.49 164.77 225.14 164.43 224.77 164.11ZM218.58 160.87L218.34 161.84C219.4 162.1 220.44 162.49 221.41 162.99L221.87 162.1C221.54 161.93 221.21 161.77 220.87 161.63C220.86 161.63 220.86 161.62 220.85 161.62H220.84C220.83 161.62 220.83 161.61 220.82 161.61H220.81H220.8H220.79H220.78H220.77H220.76C220.76 161.61 220.76 161.61 220.75 161.61H220.74H220.73C220.73 161.61 220.73 161.61 220.72 161.61C220.72 161.61 220.72 161.61 220.71 161.61C220.71 161.61 220.71 161.61 220.7 161.61C220.7 161.61 220.7 161.61 220.69 161.61H220.68C220.68 161.61 220.68 161.61 220.67 161.61H220.66C220.66 161.61 220.66 161.61 220.65 161.61C220.65 161.61 220.65 161.61 220.64 161.61C220.64 161.61 220.64 161.61 220.63 161.61H220.62C220.62 161.61 220.62 161.61 220.61 161.61H220.6H220.59C220.59 161.61 220.59 161.61 220.58 161.61H220.57C220.56 161.61 220.56 161.61 220.55 161.6H220.54C219.98 161.38 219.41 161.19 218.82 161.03C218.81 161.03 218.81 161.03 218.8 161.02C218.79 161.02 218.78 161.01 218.77 161.01H218.76C218.76 161.01 218.76 161.01 218.75 161.01H218.74C218.74 161.01 218.74 161.01 218.73 161.01H218.72H218.71C218.71 161.01 218.71 161.01 218.7 161.01C218.7 161.01 218.7 161.01 218.69 161.01C218.69 161.01 218.69 161.01 218.68 161.01H218.67C218.67 161.01 218.67 161.01 218.66 161.01C218.66 161.01 218.66 161.01 218.65 161.01C218.65 161.01 218.65 161.01 218.64 161.01H218.63C218.63 161.01 218.63 161.01 218.62 161.01H218.61C218.59 160.87 218.59 160.87 218.58 160.87Z" fill="#45515C"/>
<path d="M216.76 174.35L214.71 174.16C213.49 174.05 213.05 173.56 213.05 172.88V172.87C213.05 171.81 213.93 171.39 215.82 171.39C216.97 171.39 218.77 171.56 218.77 171.56V171.08V170.56V170.08C218.12 170.04 217.44 169.97 216.61 169.94V168.53V168.05H215.35V168.53V169.94C212.97 170 211.71 170.77 211.71 172.33V172.81V173.02V173.5C211.71 174.69 212.81 175.49 214.34 175.64L216.38 175.83C217.6 175.94 218.04 176.43 218.04 177.11V177.14C218.04 178.19 217.16 178.62 215.27 178.62C213.76 178.62 211.78 178.47 211.78 178.47V178.95V179.47V179.95C211.78 179.95 213.47 180.09 215.36 180.09V181.59V182.07H216.62V181.59V180.02C218.46 179.8 219.38 179.03 219.38 177.69V177.21V176.97V176.49C219.37 175.29 218.36 174.5 216.76 174.35Z" fill="#45515C"/>
<path d="M212.38 159.31C223.127 159.31 231.84 150.597 231.84 139.85C231.84 129.103 223.127 120.39 212.38 120.39C201.632 120.39 192.92 129.103 192.92 139.85C192.92 150.597 201.632 159.31 212.38 159.31Z" fill="#45515C"/>
<path d="M215.12 161.01C225.591 161.01 234.08 152.521 234.08 142.05C234.08 131.579 225.591 123.09 215.12 123.09C204.649 123.09 196.16 131.579 196.16 142.05C196.16 152.521 204.649 161.01 215.12 161.01Z" fill="white"/>
<path d="M215.12 123.58C225.3 123.58 233.58 131.86 233.58 142.04C233.58 152.22 225.3 160.5 215.12 160.5C204.94 160.5 196.66 152.22 196.66 142.04C196.66 131.86 204.94 123.58 215.12 123.58ZM215.12 122.58C204.37 122.58 195.66 131.29 195.66 142.04C195.66 152.79 204.37 161.5 215.12 161.5C225.87 161.5 234.58 152.79 234.58 142.04C234.58 131.29 225.87 122.58 215.12 122.58Z" fill="#45515C"/>
<path d="M215.12 156.65C223.183 156.65 229.72 150.113 229.72 142.05C229.72 133.987 223.183 127.45 215.12 127.45C207.057 127.45 200.52 133.987 200.52 142.05C200.52 150.113 207.057 156.65 215.12 156.65Z" fill="white"/>
<path d="M215.12 127.45H215.11H215.1H215.09H215.08H215.07H215.06H215.05H215.04H215.03H215.02H215.01H215H214.99H214.98H214.97H214.96H214.95H214.94H214.93H214.92H214.91H214.9H214.89H214.88H214.87H214.86H214.85H214.84H214.83H214.82H214.81H214.8H214.79H214.78H214.77H214.76H214.75H214.74H214.73H214.72H214.71H214.7H214.69H214.68H214.67H214.66H214.65H214.64H214.63H214.62H214.61C214.6 127.45 214.6 127.45 214.59 127.45H214.58C214.57 127.45 214.57 127.45 214.56 127.45H214.55C214.54 127.45 214.54 127.45 214.53 127.45H214.52H214.51H214.5H214.49H214.48H214.47H214.46H214.45H214.44H214.43H214.42H214.41H214.4H214.39H214.38H214.37H214.36H214.35H214.34H214.33H214.32H214.31H214.3H214.29H214.28H214.27H214.26H214.25H214.24H214.23H214.22H214.21H214.2H214.19H214.18H214.17H214.16H214.15H214.14H214.13H214.12C214.11 127.45 214.11 127.45 214.1 127.45H214.09C214.08 127.45 214.08 127.45 214.07 127.45H214.06C214.05 127.45 214.05 127.45 214.04 127.45H214.03C214.02 127.45 214.02 127.45 214.01 127.45H214C213.99 127.45 213.99 127.45 213.98 127.45H213.97C213.96 127.45 213.96 127.45 213.95 127.45H213.94C213.93 127.45 213.93 127.45 213.92 127.45H213.91C213.9 127.45 213.9 127.45 213.89 127.45H213.88C213.87 127.45 213.87 127.45 213.86 127.45H213.85H213.84H213.83H213.82H213.81H213.8H213.79C213.78 127.45 213.78 127.45 213.77 127.45H213.76C213.75 127.45 213.75 127.45 213.74 127.45H213.73H213.72C213.71 127.45 213.71 127.45 213.7 127.45H213.69H213.68H213.67H213.66C213.65 127.45 213.65 127.45 213.64 127.45C213.63 127.45 213.62 127.45 213.61 127.45C213.6 127.45 213.59 127.45 213.58 127.45C213.57 127.45 213.56 127.45 213.55 127.45C213.54 127.45 213.53 127.45 213.52 127.45H213.51C213.5 127.45 213.49 127.45 213.49 127.45H213.48C213.47 127.45 213.46 127.45 213.46 127.45C213.42 127.46 213.38 127.46 213.35 127.47C212.86 127.54 212.37 127.63 211.9 127.75L212.14 128.72C213.2 128.46 214.3 128.33 215.4 128.33V127.45H215.12ZM208.33 129.12C208.24 129.17 208.15 129.21 208.07 129.26C208.06 129.27 208.05 129.27 208.04 129.28C208.03 129.28 208.03 129.29 208.02 129.29C208.01 129.29 208.01 129.3 208 129.3C208 129.3 207.99 129.3 207.99 129.31C207.98 129.31 207.98 129.32 207.97 129.32C207.96 129.32 207.96 129.33 207.95 129.33C207.95 129.33 207.94 129.33 207.94 129.34C207.94 129.34 207.94 129.34 207.93 129.34C207.93 129.34 207.92 129.34 207.92 129.35C207.91 129.35 207.91 129.36 207.9 129.36C207.9 129.36 207.89 129.36 207.89 129.37C207.89 129.37 207.89 129.37 207.88 129.37C207.88 129.37 207.87 129.37 207.87 129.38C207.86 129.38 207.86 129.39 207.85 129.39C207.85 129.39 207.84 129.39 207.84 129.4C207.84 129.4 207.84 129.4 207.83 129.4C207.83 129.4 207.82 129.4 207.82 129.41C207.82 129.41 207.82 129.41 207.81 129.41C207.81 129.41 207.8 129.41 207.8 129.42H207.79H207.78C207.78 129.42 207.78 129.42 207.77 129.42C207.77 129.42 207.77 129.42 207.76 129.42C207.76 129.42 207.76 129.42 207.75 129.42C207.75 129.42 207.75 129.42 207.74 129.42C207.74 129.42 207.74 129.42 207.73 129.42C207.73 129.42 207.73 129.42 207.72 129.42C207.72 129.42 207.72 129.42 207.71 129.42C207.71 129.42 207.71 129.42 207.7 129.42C207.7 129.42 207.7 129.42 207.69 129.42C207.69 129.42 207.69 129.42 207.68 129.42C207.68 129.42 207.68 129.42 207.67 129.42C207.67 129.42 207.67 129.42 207.66 129.42C207.66 129.42 207.66 129.42 207.65 129.42C207.65 129.42 207.65 129.42 207.64 129.42C207.64 129.42 207.64 129.42 207.63 129.42C207.63 129.42 207.63 129.42 207.62 129.42C207.62 129.42 207.62 129.42 207.61 129.42C207.61 129.42 207.61 129.42 207.6 129.42C207.6 129.42 207.6 129.42 207.59 129.42C207.59 129.42 207.59 129.42 207.58 129.42C207.58 129.42 207.58 129.42 207.57 129.42C207.57 129.42 207.57 129.42 207.56 129.42C207.56 129.42 207.56 129.42 207.55 129.42C207.55 129.42 207.55 129.42 207.54 129.42C207.54 129.42 207.54 129.42 207.53 129.42C207.53 129.42 207.53 129.42 207.52 129.42C207.52 129.42 207.52 129.42 207.51 129.42C207.51 129.42 207.51 129.42 207.5 129.42C207.5 129.42 207.5 129.42 207.49 129.42C207.49 129.42 207.49 129.42 207.48 129.42C207.48 129.42 207.48 129.42 207.47 129.42C207.47 129.42 207.47 129.42 207.46 129.42C207.46 129.42 207.46 129.42 207.45 129.42C207.45 129.42 207.45 129.42 207.44 129.42C207.44 129.42 207.44 129.42 207.43 129.42C207.43 129.42 207.43 129.42 207.42 129.42C207.42 129.42 207.42 129.42 207.41 129.42C207.41 129.42 207.41 129.42 207.4 129.42C207.4 129.42 207.4 129.42 207.39 129.42C207.39 129.42 207.39 129.42 207.38 129.42C207.38 129.42 207.38 129.42 207.37 129.42C207.37 129.42 207.37 129.42 207.36 129.42C207.36 129.42 207.36 129.42 207.35 129.42C207.35 129.42 207.35 129.42 207.34 129.42C207.34 129.42 207.34 129.42 207.33 129.42C207.33 129.42 207.32 129.42 207.32 129.43C207.32 129.43 207.32 129.43 207.31 129.43C207.31 129.43 207.31 129.43 207.3 129.43C207.3 129.43 207.29 129.43 207.29 129.44C207.29 129.44 207.29 129.44 207.28 129.44C207.28 129.44 207.27 129.44 207.27 129.45C207.27 129.45 207.27 129.45 207.26 129.45C207.26 129.45 207.26 129.45 207.25 129.45C207.25 129.45 207.24 129.45 207.24 129.46C207.24 129.46 207.23 129.46 207.23 129.47C207.23 129.47 207.22 129.47 207.22 129.48C207.22 129.48 207.21 129.48 207.21 129.49C207.21 129.49 207.2 129.49 207.2 129.5C207.2 129.5 207.2 129.5 207.19 129.5C207.19 129.5 207.19 129.5 207.18 129.5C207.18 129.5 207.17 129.5 207.17 129.51C207.17 129.51 207.17 129.51 207.16 129.51C207.16 129.51 207.15 129.51 207.15 129.52C207.15 129.52 207.14 129.52 207.14 129.53C207.14 129.53 207.14 129.53 207.13 129.53C207.13 129.53 207.13 129.53 207.12 129.53C207.12 129.53 207.12 129.53 207.11 129.53C207.11 129.53 207.11 129.53 207.1 129.53C207.1 129.53 207.1 129.53 207.09 129.53C207.09 129.53 207.09 129.53 207.08 129.54C207.08 129.54 207.07 129.54 207.07 129.55C207.07 129.55 207.07 129.55 207.06 129.55C207.06 129.55 207.06 129.55 207.05 129.55C207.05 129.55 207.04 129.55 207.04 129.56C207.04 129.56 207.04 129.56 207.03 129.57C207.03 129.57 207.02 129.57 207.02 129.58C207.02 129.58 207.02 129.58 207.01 129.59C207.01 129.59 207.01 129.59 207 129.59C207 129.59 207 129.59 206.99 129.59C206.99 129.59 206.99 129.59 206.98 129.59C206.98 129.59 206.98 129.59 206.97 129.59C206.97 129.59 206.97 129.59 206.96 129.59C206.96 129.59 206.96 129.59 206.95 129.59C206.95 129.59 206.95 129.59 206.94 129.59C206.94 129.59 206.94 129.59 206.93 129.59C206.93 129.59 206.93 129.59 206.92 129.59C206.92 129.59 206.92 129.59 206.91 129.59C206.91 129.59 206.91 129.59 206.9 129.59C206.9 129.59 206.9 129.59 206.89 129.59C206.89 129.59 206.89 129.59 206.88 129.59C206.88 129.59 206.88 129.59 206.87 129.59C206.87 129.59 206.87 129.59 206.86 129.59C206.86 129.59 206.86 129.59 206.85 129.59C206.85 129.59 206.85 129.59 206.84 129.59C206.84 129.59 206.84 129.59 206.83 129.59C206.83 129.59 206.83 129.59 206.82 129.59C206.82 129.59 206.82 129.59 206.81 129.59C206.81 129.59 206.81 129.59 206.8 129.59C206.8 129.59 206.8 129.59 206.79 129.59C206.79 129.59 206.79 129.59 206.78 129.59C206.78 129.59 206.78 129.59 206.77 129.59C206.77 129.59 206.77 129.59 206.76 129.59C206.76 129.59 206.76 129.59 206.75 129.59C206.75 129.59 206.75 129.59 206.74 129.59C206.74 129.59 206.74 129.59 206.73 129.6C206.73 129.6 206.73 129.6 206.72 129.6C206.72 129.6 206.72 129.6 206.71 129.61C206.71 129.61 206.71 129.61 206.7 129.61C206.7 129.61 206.7 129.61 206.69 129.61C206.69 129.61 206.69 129.61 206.68 129.62C206.68 129.62 206.68 129.62 206.67 129.62C206.67 129.62 206.67 129.62 206.66 129.63C206.66 129.63 206.66 129.63 206.65 129.63C206.65 129.63 206.65 129.63 206.64 129.63C206.64 129.63 206.64 129.63 206.63 129.64C206.63 129.64 206.63 129.64 206.62 129.64C206.62 129.64 206.62 129.64 206.61 129.65C206.61 129.65 206.61 129.65 206.6 129.65C206.6 129.65 206.6 129.65 206.59 129.66C206.59 129.66 206.59 129.66 206.58 129.67C206.58 129.67 206.58 129.67 206.57 129.67C206.57 129.67 206.57 129.67 206.56 129.68C206.56 129.68 206.56 129.68 206.55 129.69C206.55 129.69 206.55 129.69 206.54 129.7C206.54 129.7 206.54 129.7 206.53 129.71C206.53 129.71 206.53 129.71 206.52 129.72C206.52 129.72 206.51 129.72 206.51 129.73C206.51 129.73 206.51 129.73 206.5 129.74C206.5 129.74 206.5 129.74 206.49 129.75C206.49 129.75 206.48 129.75 206.48 129.76C206.48 129.76 206.48 129.76 206.47 129.77C206.47 129.77 206.46 129.77 206.46 129.78C206.46 129.78 206.46 129.78 206.45 129.79C206.45 129.79 206.44 129.79 206.44 129.8C206.43 129.8 206.43 129.81 206.42 129.81C206.42 129.81 206.41 129.81 206.41 129.82C206.4 129.82 206.4 129.83 206.39 129.83C206.38 129.83 206.38 129.84 206.37 129.84C206.36 129.85 206.35 129.85 206.34 129.86C206.33 129.86 206.33 129.87 206.32 129.87C206.18 129.99 206.04 130.1 205.9 130.22L206.56 130.97C207.38 130.24 208.29 129.61 209.26 129.1L208.33 129.12ZM203.1 133.76C202.72 134.31 202.37 134.89 202.07 135.5C202.06 135.52 202.05 135.53 202.05 135.55C202.04 135.57 202.03 135.58 202.03 135.6C202.03 135.61 202.02 135.61 202.02 135.62C202.02 135.62 202.02 135.63 202.01 135.63C202.01 135.64 202 135.64 202 135.65C202 135.65 202 135.66 201.99 135.66C201.99 135.66 201.99 135.66 201.99 135.67V135.68C201.99 135.68 201.99 135.68 201.99 135.69C201.99 135.69 201.99 135.7 201.98 135.7C201.98 135.7 201.98 135.71 201.97 135.71C201.97 135.71 201.97 135.71 201.97 135.72C201.97 135.72 201.97 135.73 201.96 135.73C201.96 135.73 201.96 135.73 201.96 135.74C201.96 135.74 201.96 135.75 201.95 135.75V135.76C201.95 135.76 201.95 135.76 201.95 135.77V135.78C201.95 135.78 201.95 135.78 201.95 135.79V135.8V135.81V135.82C201.95 135.82 201.95 135.82 201.95 135.83C201.95 135.83 201.95 135.83 201.95 135.84C201.95 135.84 201.95 135.84 201.95 135.85C201.95 135.85 201.95 135.85 201.95 135.86C201.95 135.86 201.95 135.86 201.95 135.87C201.95 135.87 201.95 135.87 201.95 135.88C201.95 135.88 201.95 135.88 201.95 135.89C201.95 135.89 201.95 135.89 201.95 135.9C201.95 135.9 201.95 135.9 201.95 135.91C201.95 135.91 201.95 135.91 201.95 135.92C201.95 135.92 201.95 135.92 201.95 135.93C201.95 135.93 201.95 135.93 201.95 135.94C201.95 135.94 201.95 135.94 201.95 135.95C201.95 135.95 201.95 135.95 201.95 135.96C201.95 135.96 201.95 135.96 201.95 135.97C201.95 135.97 201.95 135.97 201.95 135.98C201.95 135.98 201.95 135.98 201.95 135.99C201.95 135.99 201.95 135.99 201.95 136C201.95 136 201.95 136 201.95 136.01C201.95 136.01 201.95 136.01 201.95 136.02C201.95 136.02 201.95 136.02 201.95 136.03C201.95 136.03 201.95 136.03 201.95 136.04C201.95 136.04 201.95 136.04 201.95 136.05C201.95 136.05 201.95 136.05 201.95 136.06C201.95 136.06 201.95 136.06 201.95 136.07C201.95 136.07 201.95 136.07 201.95 136.08C201.95 136.08 201.95 136.08 201.95 136.09C201.95 136.09 201.95 136.09 201.95 136.1C201.95 136.1 201.95 136.1 201.95 136.11C201.95 136.11 201.95 136.11 201.95 136.12V136.13C201.95 136.13 201.95 136.13 201.95 136.14C201.95 136.14 201.95 136.14 201.95 136.15V136.16C201.95 136.16 201.95 136.16 201.95 136.17V136.18C201.95 136.18 201.95 136.18 201.95 136.19C201.95 136.19 201.95 136.19 201.95 136.2V136.21C201.95 136.21 201.95 136.21 201.95 136.22V136.23C201.95 136.23 201.95 136.23 201.95 136.24C201.95 136.24 201.95 136.24 201.95 136.25V136.26C201.95 136.26 201.95 136.26 201.95 136.27C201.95 136.27 201.95 136.27 201.95 136.28C201.95 136.28 201.95 136.28 201.95 136.29C201.95 136.3 201.95 136.29 201.95 136.3C201.95 136.31 201.95 136.3 201.95 136.31C201.95 136.31 201.95 136.31 201.95 136.32C201.95 136.32 201.95 136.32 201.95 136.33C201.95 136.33 201.95 136.33 201.95 136.34C201.95 136.34 201.95 136.34 201.95 136.35C201.95 136.35 201.95 136.35 201.95 136.36C201.95 136.36 201.95 136.36 201.95 136.37C201.95 136.37 201.95 136.37 201.95 136.38C201.95 136.38 201.95 136.38 201.95 136.39C201.95 136.39 201.95 136.39 201.95 136.4C201.95 136.4 201.95 136.4 201.95 136.41C201.95 136.41 201.95 136.41 201.95 136.42C201.95 136.42 201.95 136.42 201.95 136.43C201.95 136.43 201.95 136.43 201.95 136.44C201.95 136.44 201.95 136.44 201.95 136.45C201.95 136.45 201.95 136.45 201.95 136.46C201.95 136.46 201.95 136.46 201.95 136.47C201.95 136.47 201.95 136.47 201.95 136.48C201.95 136.48 201.95 136.48 201.95 136.49C201.95 136.49 201.95 136.49 201.95 136.5C201.95 136.5 201.95 136.5 201.95 136.51V136.52C201.95 136.52 201.95 136.52 201.95 136.53V136.54C201.95 136.54 201.95 136.54 201.95 136.55V136.56V136.57C201.95 136.57 201.95 136.57 201.95 136.58V136.59C201.95 136.6 201.95 136.6 201.94 136.61V136.62C201.94 136.62 201.94 136.62 201.94 136.63V136.64C201.94 136.65 201.94 136.65 201.93 136.66V136.67C201.93 136.67 201.93 136.67 201.93 136.68V136.69C201.93 136.7 201.93 136.7 201.92 136.71C201.92 136.72 201.91 136.73 201.91 136.74C201.9 136.76 201.9 136.77 201.89 136.79L202.83 137.14C203.22 136.12 203.73 135.14 204.35 134.24L203.1 133.76ZM200.62 140.29C200.61 140.35 200.6 140.42 200.6 140.48V140.49C200.6 140.49 200.6 140.49 200.6 140.5V140.51C200.6 140.51 200.6 140.51 200.6 140.52C200.6 140.52 200.6 140.52 200.6 140.53V140.54C200.6 140.54 200.6 140.54 200.6 140.55V140.56V140.57V140.58V140.59V140.6C200.56 140.97 200.54 141.35 200.53 141.73C200.53 141.74 200.53 141.75 200.53 141.76V141.77C200.53 141.78 200.53 141.79 200.53 141.79V141.8C200.53 141.81 200.53 141.81 200.53 141.82V141.83V141.84V141.85V141.86V141.87C200.53 141.88 200.53 141.88 200.53 141.89V141.9V141.91V141.92V141.93V141.94V141.95V141.96V141.97V141.98V141.99V142V142.01V142.02V142.03V142.04V142.05V142.06V142.07V142.08V142.09V142.1V142.11V142.12V142.13V142.14V142.15V142.16C200.53 142.17 200.53 142.17 200.53 142.18V142.19C200.53 142.2 200.53 142.2 200.53 142.21V142.22C200.53 142.23 200.53 142.23 200.53 142.24V142.25C200.53 142.26 200.53 142.26 200.53 142.27V142.28C200.53 142.29 200.53 142.29 200.53 142.3V142.31C200.53 142.32 200.53 142.33 200.53 142.34C200.53 142.35 200.53 142.36 200.53 142.37C200.53 142.38 200.53 142.39 200.53 142.41C200.54 142.84 200.58 143.27 200.63 143.69L201.62 143.57C201.55 143.03 201.52 142.47 201.52 141.92C201.52 141.37 201.55 140.83 201.62 140.29H200.62ZM202.4 146.88L201.47 147.24C201.53 147.41 201.6 147.57 201.67 147.73C201.67 147.74 201.68 147.74 201.68 147.75C201.68 147.76 201.69 147.77 201.69 147.78C201.69 147.79 201.7 147.79 201.7 147.8V147.81C201.7 147.82 201.71 147.82 201.71 147.83C201.71 147.84 201.72 147.84 201.72 147.85C201.72 147.86 201.73 147.87 201.73 147.88C201.73 147.89 201.74 147.89 201.74 147.9V147.91C201.74 147.92 201.75 147.92 201.75 147.93C201.75 147.94 201.76 147.94 201.76 147.95V147.96V147.97V147.98C201.76 147.99 201.77 147.99 201.77 148V148.01C201.77 148.02 201.78 148.02 201.78 148.03V148.04V148.05V148.06V148.07V148.08V148.09V148.1V148.11V148.12V148.13V148.14V148.15V148.16V148.17V148.18V148.19V148.2V148.21V148.22V148.23V148.24V148.25V148.26V148.27V148.28V148.29C201.78 148.29 201.78 148.29 201.78 148.3V148.31C201.78 148.31 201.78 148.31 201.78 148.32V148.33V148.34C201.78 148.34 201.78 148.34 201.78 148.35V148.36C201.78 148.36 201.78 148.36 201.78 148.37C201.78 148.37 201.78 148.37 201.78 148.38V148.39C201.78 148.39 201.78 148.39 201.78 148.4V148.41C201.78 148.41 201.78 148.41 201.78 148.42C201.78 148.42 201.78 148.42 201.78 148.43V148.44C201.78 148.44 201.78 148.44 201.78 148.45V148.46C201.78 148.46 201.78 148.46 201.78 148.47C201.78 148.47 201.78 148.47 201.78 148.48V148.49C201.78 148.49 201.78 148.49 201.78 148.5V148.51C201.78 148.51 201.78 148.51 201.78 148.52C201.78 148.52 201.78 148.52 201.78 148.53C201.78 148.53 201.78 148.53 201.78 148.54C201.78 148.54 201.78 148.54 201.78 148.55V148.56C201.78 148.56 201.78 148.56 201.78 148.57C201.78 148.57 201.78 148.57 201.78 148.58C201.78 148.58 201.78 148.58 201.78 148.59C201.78 148.59 201.78 148.59 201.78 148.6C201.78 148.6 201.78 148.6 201.78 148.61C201.78 148.61 201.78 148.61 201.78 148.62C201.78 148.62 201.78 148.62 201.78 148.63C201.78 148.63 201.78 148.63 201.78 148.64C201.78 148.64 201.78 148.64 201.78 148.65C201.78 148.65 201.78 148.65 201.78 148.66C201.78 148.66 201.78 148.66 201.78 148.67C201.78 148.67 201.78 148.67 201.78 148.68C201.78 148.68 201.78 148.68 201.78 148.69C201.78 148.69 201.78 148.69 201.78 148.7C201.78 148.7 201.78 148.7 201.78 148.71C201.78 148.71 201.78 148.71 201.78 148.72C201.78 148.72 201.78 148.72 201.78 148.73C201.78 148.73 201.78 148.73 201.78 148.74C201.78 148.74 201.78 148.74 201.78 148.75C201.78 148.75 201.78 148.75 201.78 148.76C201.78 148.76 201.78 148.76 201.78 148.77C201.78 148.77 201.78 148.77 201.78 148.78C201.78 148.78 201.78 148.78 201.78 148.79C201.78 148.79 201.78 148.79 201.78 148.8C201.78 148.8 201.78 148.8 201.78 148.81C201.78 148.81 201.78 148.81 201.78 148.82C201.78 148.82 201.78 148.82 201.78 148.83C201.78 148.83 201.78 148.83 201.78 148.84C201.78 148.84 201.78 148.84 201.78 148.85V148.86C201.78 148.86 201.78 148.86 201.78 148.87V148.88C201.78 148.88 201.78 148.89 201.79 148.89C201.79 148.89 201.79 148.89 201.79 148.9V148.91C201.79 148.91 201.79 148.91 201.79 148.92C201.79 148.92 201.79 148.93 201.8 148.93V148.94V148.95C201.8 148.95 201.8 148.95 201.8 148.96V148.97C201.8 148.98 201.81 148.98 201.81 148.99V149C201.81 149 201.81 149 201.81 149.01C201.81 149.01 201.81 149.02 201.82 149.02C201.82 149.02 201.82 149.03 201.83 149.03C201.83 149.03 201.83 149.03 201.83 149.04C201.83 149.04 201.83 149.05 201.84 149.05C201.84 149.05 201.84 149.05 201.84 149.06C201.84 149.06 201.84 149.07 201.85 149.07C201.85 149.07 201.85 149.08 201.86 149.08C201.86 149.08 201.86 149.08 201.86 149.09V149.1C201.86 149.1 201.86 149.1 201.86 149.11C201.86 149.11 201.86 149.12 201.87 149.12V149.13C201.87 149.13 201.87 149.13 201.87 149.14V149.15C201.87 149.15 201.87 149.15 201.87 149.16C201.87 149.16 201.87 149.17 201.88 149.17C201.88 149.18 201.89 149.18 201.89 149.19C201.89 149.19 201.89 149.2 201.9 149.2C201.9 149.21 201.91 149.21 201.91 149.22C201.91 149.23 201.92 149.23 201.92 149.24C201.92 149.24 201.92 149.25 201.93 149.25C201.93 149.26 201.94 149.26 201.94 149.27C201.94 149.28 201.95 149.28 201.95 149.29C201.95 149.29 201.95 149.3 201.96 149.3C201.96 149.31 201.97 149.31 201.97 149.32C201.97 149.33 201.98 149.33 201.98 149.34C201.98 149.34 201.98 149.35 201.99 149.35C201.99 149.36 202 149.36 202 149.37C202.01 149.38 202.01 149.39 202.02 149.4C202.02 149.41 202.03 149.41 202.03 149.42C202.03 149.43 202.04 149.43 202.04 149.44C202.04 149.44 202.04 149.45 202.05 149.45C202.05 149.46 202.06 149.46 202.06 149.47C202.07 149.48 202.07 149.49 202.08 149.5C202.08 149.51 202.09 149.51 202.09 149.52C202.1 149.54 202.11 149.55 202.12 149.57C202.13 149.58 202.13 149.59 202.14 149.6C202.15 149.62 202.16 149.63 202.17 149.65C202.3 149.87 202.44 150.08 202.59 150.29L203.41 149.72C203.31 148.88 202.79 147.9 202.4 146.88ZM206.11 152.24L205.45 152.99C206.33 153.77 207.3 154.44 208.35 154.99L208.81 154.1C207.84 153.59 206.94 152.96 206.11 152.24ZM211.88 155.26L211.64 156.23C211.73 156.25 211.83 156.27 211.92 156.3C211.94 156.3 211.96 156.31 211.99 156.31H212C212.04 156.32 212.09 156.33 212.13 156.34C212.14 156.34 212.15 156.34 212.16 156.35H212.17C212.18 156.35 212.18 156.35 212.19 156.35H212.2C212.21 156.35 212.22 156.35 212.23 156.36C212.24 156.36 212.24 156.36 212.25 156.36C212.26 156.36 212.28 156.37 212.29 156.37C212.3 156.37 212.31 156.37 212.32 156.38C212.33 156.38 212.34 156.38 212.35 156.39C212.36 156.39 212.37 156.39 212.38 156.4H212.39C212.4 156.4 212.4 156.4 212.41 156.4C212.42 156.4 212.43 156.4 212.44 156.41C212.46 156.41 212.47 156.42 212.48 156.42C212.49 156.42 212.49 156.42 212.5 156.42H212.51C212.52 156.42 212.53 156.42 212.54 156.43C212.55 156.43 212.56 156.43 212.57 156.44H212.58C212.59 156.44 212.59 156.44 212.6 156.44H212.61C212.62 156.44 212.62 156.44 212.63 156.44H212.64C212.65 156.44 212.65 156.44 212.66 156.44H212.67C212.68 156.44 212.68 156.44 212.69 156.44H212.7C212.71 156.44 212.71 156.44 212.72 156.44H212.73C212.74 156.44 212.75 156.44 212.76 156.45H212.77C212.78 156.45 212.78 156.45 212.79 156.45H212.8H212.81H212.82H212.83C212.84 156.45 212.84 156.45 212.85 156.45H212.86C212.87 156.45 212.87 156.45 212.88 156.45H212.89C212.9 156.45 212.9 156.45 212.91 156.45H212.92H212.93H212.94H212.95H212.96H212.97H212.98H212.99C213 156.45 213 156.45 213.01 156.45H213.02C213.03 156.45 213.03 156.45 213.04 156.45H213.05C213.06 156.45 213.06 156.45 213.07 156.45H213.08C213.09 156.45 213.09 156.45 213.1 156.45H213.11C213.12 156.45 213.12 156.45 213.13 156.45H213.14H213.15H213.16H213.17H213.18H213.19H213.2H213.21C213.22 156.45 213.22 156.45 213.23 156.45H213.24C213.25 156.45 213.25 156.45 213.26 156.45H213.27C213.28 156.45 213.28 156.45 213.29 156.45H213.3C213.31 156.45 213.31 156.45 213.32 156.45H213.33H213.34H213.35H213.36H213.37H213.38H213.39H213.4H213.41H213.42H213.43H213.44H213.45H213.46C213.47 156.45 213.47 156.45 213.48 156.45H213.49C213.5 156.45 213.5 156.45 213.51 156.45H213.52H213.53H213.54H213.55H213.56H213.57H213.58H213.59H213.6H213.61H213.62H213.63H213.64H213.65C213.66 156.45 213.66 156.45 213.67 156.45H213.68H213.69H213.7H213.71H213.72H213.73H213.74H213.75H213.76H213.77H213.78H213.79H213.8H213.81H213.82H213.83H213.84H213.85H213.86H213.87C213.88 156.45 213.88 156.45 213.89 156.45H213.9C213.91 156.45 213.91 156.45 213.92 156.45H213.93H213.94H213.95H213.96H213.97H213.98H213.99H214H214.01H214.02H214.03H214.04H214.05H214.06H214.07H214.08H214.09C214.1 156.45 214.1 156.45 214.11 156.45H214.12H214.13H214.14H214.15C214.16 156.45 214.16 156.45 214.17 156.45H214.18H214.19H214.2H214.21H214.22H214.23H214.24H214.25H214.26H214.27H214.28H214.29H214.3H214.31H214.32H214.33H214.34C214.35 156.45 214.35 156.45 214.36 156.45H214.37H214.38H214.39H214.4H214.41H214.42H214.43H214.44H214.45H214.46H214.47H214.48H214.49H214.5H214.51H214.52H214.53C214.54 156.45 214.54 156.45 214.55 156.45H214.56H214.57H214.58H214.59H214.6H214.61H214.62H214.63H214.64H214.65H214.66H214.67H214.68H214.69H214.7H214.71H214.72H214.73V155.45C214.02 155.65 212.94 155.51 211.88 155.26ZM221.46 154.08C220.49 154.59 219.46 154.99 218.4 155.25L218.64 156.22C219.21 156.08 219.77 155.9 220.31 155.7C220.32 155.7 220.33 155.69 220.34 155.69C220.35 155.69 220.35 155.68 220.36 155.68H220.37H220.38H220.39H220.4H220.41H220.42H220.43H220.44H220.45C220.45 155.68 220.45 155.68 220.46 155.68H220.47C220.47 155.68 220.47 155.68 220.48 155.68C220.48 155.68 220.48 155.68 220.49 155.68H220.5C220.5 155.68 220.5 155.68 220.51 155.68H220.52H220.53C220.53 155.68 220.53 155.68 220.54 155.68C220.54 155.68 220.54 155.68 220.55 155.68C220.55 155.68 220.55 155.68 220.56 155.68C220.56 155.68 220.56 155.68 220.57 155.68C220.58 155.68 220.57 155.68 220.58 155.68H220.59C220.59 155.68 220.59 155.68 220.6 155.68C220.6 155.68 220.6 155.68 220.61 155.68H220.62C220.62 155.68 220.62 155.68 220.63 155.68C220.63 155.68 220.63 155.68 220.64 155.68C220.64 155.68 220.64 155.68 220.65 155.68H220.66C220.66 155.68 220.66 155.68 220.67 155.68H220.68H220.69C220.69 155.68 220.69 155.68 220.7 155.68H220.71C220.71 155.68 220.71 155.68 220.72 155.68H220.73H220.74C220.74 155.68 220.74 155.68 220.75 155.68H220.76C220.77 155.68 220.77 155.67 220.78 155.67C221.08 155.54 221.38 155.4 221.68 155.26C221.69 155.26 221.7 155.25 221.71 155.24C221.72 155.24 221.72 155.23 221.73 155.23H221.74H221.75H221.76C221.76 155.23 221.76 155.23 221.77 155.23H221.78C221.78 155.23 221.78 155.23 221.79 155.23C221.79 155.23 221.79 155.23 221.8 155.23C221.8 155.23 221.8 155.23 221.81 155.23C221.81 155.23 221.81 155.23 221.82 155.23C221.82 155.23 221.82 155.23 221.83 155.23C221.83 155.23 221.83 155.23 221.84 155.23C221.84 155.23 221.84 155.23 221.85 155.23H221.86C221.86 155.23 221.86 155.23 221.87 155.23H221.88H221.89H221.9H221.91L221.46 154.08ZM226.33 149.75C225.71 150.65 224.98 151.48 224.16 152.21L224.82 152.96C225.01 152.79 225.2 152.61 225.38 152.43C225.39 152.42 225.4 152.41 225.4 152.41C225.41 152.4 225.41 152.4 225.42 152.4C225.42 152.4 225.42 152.4 225.43 152.39C225.43 152.39 225.43 152.39 225.44 152.38C225.44 152.38 225.44 152.38 225.45 152.37C225.45 152.37 225.45 152.37 225.46 152.36C225.46 152.36 225.46 152.36 225.47 152.35C225.47 152.35 225.47 152.35 225.48 152.34C225.48 152.34 225.48 152.34 225.49 152.33C225.49 152.33 225.49 152.33 225.5 152.32C225.5 152.32 225.5 152.32 225.51 152.31C225.51 152.31 225.51 152.31 225.52 152.3C225.52 152.3 225.52 152.3 225.53 152.29C225.53 152.29 225.53 152.29 225.54 152.28C225.54 152.28 225.54 152.28 225.55 152.27C225.55 152.27 225.55 152.27 225.56 152.26C225.56 152.26 225.56 152.26 225.57 152.25C225.57 152.25 225.57 152.25 225.57 152.24C225.57 152.24 225.57 152.24 225.58 152.23C225.58 152.23 225.58 152.23 225.59 152.22C225.59 152.22 225.59 152.22 225.6 152.21C225.6 152.21 225.6 152.21 225.61 152.2C225.61 152.2 225.61 152.2 225.62 152.19C225.62 152.19 225.62 152.19 225.63 152.18C225.63 152.18 225.63 152.18 225.64 152.17L225.65 152.16L225.66 152.15L225.67 152.14L225.68 152.13L225.69 152.12L225.7 152.11L225.71 152.1L225.72 152.09C226.22 151.56 226.68 150.99 227.09 150.39L226.33 149.75ZM228.63 143.66C228.5 144.75 228.24 145.82 227.85 146.85L228.79 147.2C228.79 147.19 228.79 147.19 228.8 147.18C228.8 147.17 228.81 147.16 228.81 147.15C228.81 147.14 228.82 147.13 228.82 147.12C228.82 147.11 228.83 147.1 228.83 147.09C228.83 147.08 228.83 147.08 228.84 147.07V147.06C228.84 147.05 228.84 147.05 228.85 147.04V147.03C228.85 147.02 228.85 147.02 228.86 147.01C228.86 147 228.86 147 228.87 146.99V146.98C228.87 146.97 228.87 146.97 228.88 146.96V146.95C228.88 146.94 228.88 146.94 228.89 146.93V146.92C228.89 146.91 228.89 146.91 228.9 146.9V146.89C228.9 146.88 228.9 146.88 228.91 146.87V146.86V146.85V146.84C228.91 146.83 228.91 146.83 228.92 146.82V146.81C228.92 146.8 228.92 146.8 228.93 146.79V146.78V146.77V146.76V146.75V146.74V146.73V146.72V146.71V146.7V146.69V146.68V146.67V146.66V146.65V146.64V146.63V146.62V146.61C228.93 146.61 228.93 146.61 228.93 146.6V146.59V146.58C228.93 146.58 228.93 146.58 228.93 146.57V146.56C228.93 146.56 228.93 146.56 228.93 146.55C228.93 146.55 228.93 146.55 228.93 146.54V146.53C228.93 146.53 228.93 146.53 228.93 146.52V146.51V146.5C228.93 146.5 228.93 146.5 228.93 146.49V146.48V146.47C228.93 146.47 228.93 146.47 228.93 146.46V146.45C228.93 146.45 228.93 146.45 228.93 146.44C228.93 146.44 228.93 146.44 228.93 146.43C228.93 146.43 228.93 146.43 228.93 146.42C228.93 146.42 228.93 146.42 228.93 146.41C228.93 146.41 228.93 146.41 228.93 146.4C228.93 146.4 228.93 146.4 228.93 146.39C228.93 146.39 228.93 146.39 228.93 146.38C228.93 146.38 228.93 146.38 228.93 146.37C228.93 146.37 228.93 146.37 228.93 146.36C228.93 146.36 228.93 146.36 228.93 146.35C228.93 146.35 228.93 146.35 228.93 146.34C228.93 146.34 228.93 146.34 228.93 146.33C228.93 146.33 228.93 146.33 228.93 146.32C228.93 146.32 228.93 146.32 228.93 146.31C228.93 146.31 228.93 146.31 228.93 146.3V146.29C228.93 146.29 228.93 146.29 228.93 146.28C228.93 146.28 228.93 146.28 228.93 146.27V146.26C228.93 146.26 228.93 146.26 228.93 146.25V146.24V146.23C228.93 146.23 228.93 146.23 228.93 146.22C228.93 146.22 228.93 146.22 228.93 146.21V146.2C228.93 146.2 228.93 146.2 228.93 146.19V146.18V146.17C228.93 146.17 228.93 146.17 228.93 146.16V146.15C228.93 146.14 228.93 146.14 228.94 146.13V146.12C228.94 146.11 228.94 146.11 228.95 146.1V146.09C228.95 146.08 228.95 146.08 228.96 146.07C228.96 146.06 228.96 146.06 228.97 146.05V146.04C228.97 146.03 228.97 146.03 228.98 146.02V146.01C228.98 146 228.98 146 228.99 145.99C229.18 145.3 229.32 144.58 229.41 143.85L228.63 143.66ZM228.76 136.84L227.83 137.2C228.22 138.22 228.49 139.29 228.62 140.38L229.61 140.26C229.48 139.2 229.24 138.17 228.89 137.19C228.89 137.18 228.88 137.17 228.88 137.16C228.88 137.15 228.88 137.15 228.87 137.14V137.13C228.87 137.12 228.87 137.12 228.86 137.11V137.1C228.86 137.09 228.86 137.09 228.85 137.08V137.07V137.06V137.05V137.04C228.85 137.04 228.85 137.04 228.85 137.03V137.02V137.01C228.85 137.01 228.85 137.01 228.85 137V136.99C228.85 136.99 228.85 136.99 228.85 136.98C228.85 136.98 228.85 136.98 228.85 136.97V136.96C228.85 136.96 228.85 136.96 228.85 136.95C228.85 136.95 228.85 136.95 228.85 136.94C228.85 136.94 228.85 136.94 228.85 136.93C228.85 136.93 228.85 136.93 228.85 136.92C228.85 136.92 228.85 136.92 228.85 136.91C228.85 136.91 228.85 136.91 228.85 136.9C228.85 136.9 228.85 136.9 228.85 136.89C228.85 136.89 228.85 136.89 228.85 136.88C228.85 136.88 228.85 136.88 228.85 136.87C228.77 136.85 228.77 136.85 228.76 136.84C228.77 136.84 228.77 136.84 228.76 136.84ZM224.77 131.09L224.11 131.84C224.93 132.57 225.67 133.39 226.29 134.29L227.11 133.72C226.44 132.75 225.66 131.87 224.77 131.09ZM218.58 127.86L218.34 128.83C219.4 129.09 220.44 129.48 221.41 129.98L221.87 129.09C221.17 128.72 220.44 128.41 219.67 128.16C219.66 128.16 219.65 128.15 219.64 128.15C219.63 128.15 219.63 128.15 219.62 128.14H219.61C219.6 128.14 219.6 128.14 219.59 128.13C219.58 128.13 219.58 128.13 219.57 128.12H219.56C219.55 128.12 219.55 128.12 219.54 128.11H219.53C219.52 128.11 219.52 128.11 219.51 128.1H219.5H219.49H219.48H219.47H219.46H219.45H219.44H219.43H219.42H219.41H219.4H219.39H219.38H219.37H219.36H219.35H219.34H219.33H219.32C219.32 128.1 219.32 128.1 219.31 128.1H219.3H219.29C219.29 128.1 219.29 128.1 219.28 128.1H219.27C219.27 128.1 219.27 128.1 219.26 128.1C219.26 128.1 219.26 128.1 219.25 128.1H219.24C219.24 128.1 219.24 128.1 219.23 128.1H219.22C219.22 128.1 219.22 128.1 219.21 128.1C219.21 128.1 219.21 128.1 219.2 128.1C219.2 128.1 219.2 128.1 219.19 128.1C219.19 128.1 219.19 128.1 219.18 128.1C219.18 128.1 219.18 128.1 219.17 128.1C219.17 128.1 219.17 128.1 219.16 128.1C219.16 128.1 219.16 128.1 219.15 128.1C219.15 128.1 219.15 128.1 219.14 128.1C219.14 128.1 219.14 128.1 219.13 128.1C219.13 128.1 219.13 128.1 219.12 128.1C219.12 128.1 219.12 128.1 219.11 128.1C219.11 128.1 219.11 128.1 219.1 128.1C219.1 128.1 219.1 128.1 219.09 128.1C219.09 128.1 219.09 128.1 219.08 128.1C219.08 128.1 219.08 128.1 219.07 128.1H219.06C219.06 128.1 219.06 128.1 219.05 128.1C219.05 128.1 219.05 128.1 219.04 128.1C219.04 128.1 219.04 128.1 219.03 128.1C219.03 128.1 219.03 128.1 219.02 128.1H219.01H219C219 128.1 219 128.1 218.99 128.1H218.98C218.97 128.1 218.97 128.1 218.96 128.09H218.95C218.95 128.09 218.95 128.09 218.94 128.09H218.93C218.92 128.09 218.92 128.09 218.91 128.08H218.9C218.89 128.08 218.89 128.08 218.88 128.07C218.87 128.07 218.86 128.06 218.85 128.06C218.73 127.89 218.65 127.88 218.58 127.86Z" fill="#45515C"/>
<path d="M216.76 141.33L214.71 141.14C213.49 141.03 213.05 140.54 213.05 139.86V139.85C213.05 138.79 213.93 138.37 215.82 138.37C216.97 138.37 218.77 138.54 218.77 138.54V138.06V137.54V137.06C218.12 137.02 217.44 136.95 216.61 136.92V135.51V135.03H215.35V135.51V136.92C212.97 136.98 211.71 137.75 211.71 139.31V139.79V140V140.48C211.71 141.67 212.81 142.47 214.34 142.62L216.38 142.81C217.6 142.92 218.04 143.41 218.04 144.09V144.12C218.04 145.17 217.16 145.6 215.27 145.6C213.76 145.6 211.78 145.45 211.78 145.45V145.93V146.45V146.93C211.78 146.93 213.47 147.07 215.36 147.07V148.57V149.05H216.62V148.57V147C218.46 146.78 219.38 146.01 219.38 144.67V144.19V143.95V143.47C219.37 142.28 218.36 141.49 216.76 141.33Z" fill="#45515C"/>
<path d="M234.4 51.54H195.9V132.64H234.4V51.54Z" fill="white" stroke="#45515C" stroke-miterlimit="10" stroke-linecap="round" stroke-linejoin="round"/>
<path d="M195.79 87.78H166.14V132.64H195.79V87.78Z" fill="#C4C4C4" stroke="#45515C" stroke-miterlimit="10" stroke-linecap="round" stroke-linejoin="round"/>
<path d="M195.8 85.68H164.28V87.78H195.8V85.68Z" fill="white" stroke="#45515C" stroke-miterlimit="10" stroke-linecap="round" stroke-linejoin="round"/>
<path d="M235.71 49.21H194.58V51.54H235.71V49.21Z" fill="white" stroke="#45515C" stroke-miterlimit="10" stroke-linecap="round" stroke-linejoin="round"/>
<path d="M221.31 119.12H208.2V132.23H221.31V119.12Z" fill="white" stroke="#45515C" stroke-miterlimit="10" stroke-linecap="round" stroke-linejoin="round"/>
<path d="M214.88 119.23V131.82" stroke="#45515C" stroke-miterlimit="10" stroke-linecap="round" stroke-linejoin="round"/>
<path d="M203.03 55.74H200.47V61.57H203.03V55.74Z" fill="white" stroke="#45515C" stroke-miterlimit="10" stroke-linecap="round" stroke-linejoin="round"/>
<path d="M208.39 55.74H205.83V61.57H208.39V55.74Z" fill="white" stroke="#45515C" stroke-miterlimit="10" stroke-linecap="round" stroke-linejoin="round"/>
<path d="M213.75 55.74H211.19V61.57H213.75V55.74Z" fill="white" stroke="#45515C" stroke-miterlimit="10" stroke-linecap="round" stroke-linejoin="round"/>
<path d="M219.11 55.74H216.55V61.57H219.11V55.74Z" fill="white" stroke="#45515C" stroke-miterlimit="10" stroke-linecap="round" stroke-linejoin="round"/>
<path d="M224.46 55.74H221.9V61.57H224.46V55.74Z" fill="white" stroke="#45515C" stroke-miterlimit="10" stroke-linecap="round" stroke-linejoin="round"/>
<path d="M229.82 55.74H227.26V61.57H229.82V55.74Z" fill="white" stroke="#45515C" stroke-miterlimit="10" stroke-linecap="round" stroke-linejoin="round"/>
<path d="M203.03 65.76H200.47V71.59H203.03V65.76Z" fill="white" stroke="#45515C" stroke-miterlimit="10" stroke-linecap="round" stroke-linejoin="round"/>
<path d="M208.39 65.76H205.83V71.59H208.39V65.76Z" fill="white" stroke="#45515C" stroke-miterlimit="10" stroke-linecap="round" stroke-linejoin="round"/>
<path d="M213.75 65.76H211.19V71.59H213.75V65.76Z" fill="white" stroke="#45515C" stroke-miterlimit="10" stroke-linecap="round" stroke-linejoin="round"/>
<path d="M219.11 65.76H216.55V71.59H219.11V65.76Z" fill="white" stroke="#45515C" stroke-miterlimit="10" stroke-linecap="round" stroke-linejoin="round"/>
<path d="M224.46 65.76H221.9V71.59H224.46V65.76Z" fill="white" stroke="#45515C" stroke-miterlimit="10" stroke-linecap="round" stroke-linejoin="round"/>
<path d="M229.82 65.76H227.26V71.59H229.82V65.76Z" fill="white" stroke="#45515C" stroke-miterlimit="10" stroke-linecap="round" stroke-linejoin="round"/>
<path d="M203.03 75.78H200.47V81.61H203.03V75.78Z" fill="white" stroke="#45515C" stroke-miterlimit="10" stroke-linecap="round" stroke-linejoin="round"/>
<path d="M208.39 75.78H205.83V81.61H208.39V75.78Z" fill="white" stroke="#45515C" stroke-miterlimit="10" stroke-linecap="round" stroke-linejoin="round"/>
<path d="M213.75 75.78H211.19V81.61H213.75V75.78Z" fill="white" stroke="#45515C" stroke-miterlimit="10" stroke-linecap="round" stroke-linejoin="round"/>
<path d="M219.11 75.78H216.55V81.61H219.11V75.78Z" fill="white" stroke="#45515C" stroke-miterlimit="10" stroke-linecap="round" stroke-linejoin="round"/>
<path d="M224.46 75.78H221.9V81.61H224.46V75.78Z" fill="white" stroke="#45515C" stroke-miterlimit="10" stroke-linecap="round" stroke-linejoin="round"/>
<path d="M229.82 75.78H227.26V81.61H229.82V75.78Z" fill="white" stroke="#45515C" stroke-miterlimit="10" stroke-linecap="round" stroke-linejoin="round"/>
<path d="M203.03 85.8H200.47V91.63H203.03V85.8Z" fill="white" stroke="#45515C" stroke-miterlimit="10" stroke-linecap="round" stroke-linejoin="round"/>
<path d="M208.39 85.8H205.83V91.63H208.39V85.8Z" fill="white" stroke="#45515C" stroke-miterlimit="10" stroke-linecap="round" stroke-linejoin="round"/>
<path d="M213.75 85.8H211.19V91.63H213.75V85.8Z" fill="white" stroke="#45515C" stroke-miterlimit="10" stroke-linecap="round" stroke-linejoin="round"/>
<path d="M219.11 85.8H216.55V91.63H219.11V85.8Z" fill="white" stroke="#45515C" stroke-miterlimit="10" stroke-linecap="round" stroke-linejoin="round"/>
<path d="M224.46 85.8H221.9V91.63H224.46V85.8Z" fill="white" stroke="#45515C" stroke-miterlimit="10" stroke-linecap="round" stroke-linejoin="round"/>
<path d="M229.82 85.8H227.26V91.63H229.82V85.8Z" fill="white" stroke="#45515C" stroke-miterlimit="10" stroke-linecap="round" stroke-linejoin="round"/>
<path d="M203.03 95.82H200.47V101.65H203.03V95.82Z" fill="white" stroke="#45515C" stroke-miterlimit="10" stroke-linecap="round" stroke-linejoin="round"/>
<path d="M208.39 95.82H205.83V101.65H208.39V95.82Z" fill="white" stroke="#45515C" stroke-miterlimit="10" stroke-linecap="round" stroke-linejoin="round"/>
<path d="M213.75 95.82H211.19V101.65H213.75V95.82Z" fill="white" stroke="#45515C" stroke-miterlimit="10" stroke-linecap="round" stroke-linejoin="round"/>
<path d="M219.11 95.82H216.55V101.65H219.11V95.82Z" fill="white" stroke="#45515C" stroke-miterlimit="10" stroke-linecap="round" stroke-linejoin="round"/>
<path d="M224.46 95.82H221.9V101.65H224.46V95.82Z" fill="white" stroke="#45515C" stroke-miterlimit="10" stroke-linecap="round" stroke-linejoin="round"/>
<path d="M229.82 95.82H227.26V101.65H229.82V95.82Z" fill="white" stroke="#45515C" stroke-miterlimit="10" stroke-linecap="round" stroke-linejoin="round"/>
<path d="M192.82 92.09H169.75V95.81H192.82V92.09Z" fill="white" stroke="#45515C" stroke-miterlimit="10" stroke-linecap="round" stroke-linejoin="round"/>
<path d="M192.82 99.78H169.75V103.5H192.82V99.78Z" fill="white" stroke="#45515C" stroke-miterlimit="10" stroke-linecap="round" stroke-linejoin="round"/>
<path d="M192.82 107.47H169.75V111.19H192.82V107.47Z" fill="white" stroke="#45515C" stroke-miterlimit="10" stroke-linecap="round" stroke-linejoin="round"/>
<path d="M192.82 115.15H169.75V118.87H192.82V115.15Z" fill="white" stroke="#45515C" stroke-miterlimit="10" stroke-linecap="round" stroke-linejoin="round"/>
<path d="M234.401 132.637L264.051 132.637L264.051 87.7774L234.401 87.7774L234.401 132.637Z" fill="#C4C4C4" stroke="#45515C" stroke-miterlimit="10" stroke-linecap="round" stroke-linejoin="round"/>
<path d="M234.395 87.7774L265.915 87.7774L265.915 85.6774L234.395 85.6774L234.395 87.7774Z" fill="white" stroke="#45515C" stroke-miterlimit="10" stroke-linecap="round" stroke-linejoin="round"/>
<path d="M237.372 95.8183L260.442 95.8183L260.442 92.0983L237.372 92.0983L237.372 95.8183Z" fill="white" stroke="#45515C" stroke-miterlimit="10" stroke-linecap="round" stroke-linejoin="round"/>
<path d="M237.372 103.503L260.442 103.503L260.442 99.7825L237.372 99.7825L237.372 103.503Z" fill="white" stroke="#45515C" stroke-miterlimit="10" stroke-linecap="round" stroke-linejoin="round"/>
<path d="M237.372 111.187L260.442 111.187L260.442 107.467L237.372 107.467L237.372 111.187Z" fill="white" stroke="#45515C" stroke-miterlimit="10" stroke-linecap="round" stroke-linejoin="round"/>
<path d="M237.372 118.881L260.442 118.881L260.442 115.161L237.372 115.161L237.372 118.881Z" fill="white" stroke="#45515C" stroke-miterlimit="10" stroke-linecap="round" stroke-linejoin="round"/>
<path d="M229.83 114.7L215.15 106.05L200.47 114.7H229.83Z" fill="white" stroke="#45515C" stroke-miterlimit="10" stroke-linecap="round" stroke-linejoin="round"/>
<path d="M200.47 132.64V114.7" stroke="#45515C" stroke-miterlimit="10" stroke-linecap="round" stroke-linejoin="round"/>
<path d="M229.83 132.64V114.7" stroke="#45515C" stroke-miterlimit="10" stroke-linecap="round" stroke-linejoin="round"/>
<path d="M214.88 112.17C215.421 112.17 215.86 111.731 215.86 111.19C215.86 110.649 215.421 110.21 214.88 110.21C214.339 110.21 213.9 110.649 213.9 111.19C213.9 111.731 214.339 112.17 214.88 112.17Z" fill="white" stroke="#45515C" stroke-width="0.5" stroke-miterlimit="10" stroke-linecap="round" stroke-linejoin="round"/>
<path d="M73.8798 167.84C90.0563 167.84 103.17 154.726 103.17 138.55C103.17 122.374 90.0563 109.26 73.8798 109.26C57.7034 109.26 44.5898 122.374 44.5898 138.55C44.5898 154.726 57.7034 167.84 73.8798 167.84Z" fill="#6499FC" stroke="#45515C" stroke-miterlimit="10" stroke-linecap="round" stroke-linejoin="round"/>
<path d="M77.8799 139.09H69.8799C65.1899 139.09 61.3799 135.28 61.3799 130.59C61.3799 125.66 65.4199 121.62 70.3499 121.62H77.4099C82.3399 121.62 86.3799 125.66 86.3799 130.59C86.3799 135.28 82.5799 139.09 77.8799 139.09Z" fill="white" stroke="#45515C" stroke-miterlimit="10" stroke-linecap="round" stroke-linejoin="round"/>
<path d="M85.4198 151.85H62.3498C60.3798 151.85 58.7698 153.46 58.7698 155.43V163.64C63.1798 166.31 68.3598 167.84 73.8898 167.84C79.4198 167.84 84.5898 166.3 89.0098 163.64V155.43C88.9998 153.46 87.3898 151.85 85.4198 151.85Z" fill="white" stroke="#45515C" stroke-miterlimit="10" stroke-linecap="round" stroke-linejoin="round"/>
<path d="M74.7399 159.34H73.0199C70.5899 159.34 68.5999 157.35 68.5999 154.92V146.97C68.5999 144.54 70.5899 142.55 73.0199 142.55H74.7399C77.1699 142.55 79.1599 144.54 79.1599 146.97V154.92C79.1699 157.35 77.1799 159.34 74.7399 159.34Z" fill="white" stroke="#45515C" stroke-miterlimit="10" stroke-linecap="round" stroke-linejoin="round"/>
<path d="M82.82 130.84V138.39C82.82 143.3 78.8 147.32 73.89 147.32C68.98 147.32 64.96 143.3 64.96 138.39V130.84" fill="white"/>
<path d="M82.82 130.84V138.39C82.82 143.3 78.8 147.32 73.89 147.32C68.98 147.32 64.96 143.3 64.96 138.39V130.84" stroke="#45515C" stroke-miterlimit="10" stroke-linecap="round" stroke-linejoin="round"/>
<path d="M63.7397 130.47C63.7397 130.47 71.7497 131.59 73.9897 125C73.9897 125 76.2697 131.59 84.0197 130.3" fill="white"/>
<path d="M63.7397 130.47C63.7397 130.47 71.7497 131.59 73.9897 125C73.9897 125 76.2697 131.59 84.0197 130.3" stroke="#45515C" stroke-miterlimit="10" stroke-linecap="round" stroke-linejoin="round"/>
<path d="M75.6899 190.8H42.9799C42.1099 190.8 41.4099 190.1 41.4099 189.23V188.62C41.4099 187.75 42.1099 187.05 42.9799 187.05H75.6899C76.5599 187.05 77.2599 187.75 77.2599 188.62V189.23C77.2599 190.1 76.5599 190.8 75.6899 190.8Z" fill="#45515C"/>
<path d="M53.3499 201.33H42.9799C42.1099 201.33 41.4099 200.63 41.4099 199.76V199.15C41.4099 198.28 42.1099 197.58 42.9799 197.58H53.3499C54.2199 197.58 54.9199 198.28 54.9199 199.15V199.76C54.9199 200.63 54.2199 201.33 53.3499 201.33Z" fill="#45515C"/>
<g opacity="0.2">
<path opacity="0.2" d="M398.61 226.12H312.88C312.15 226.12 311.54 225.53 311.54 224.82V134.87C311.54 134.15 312.14 133.57 312.88 133.57H398.61C399.34 133.57 399.95 134.16 400.31 135.23V223.84C400.31 225.03 399.58 226.11 398.63 226.12C398.63 226.12 398.62 226.12 398.61 226.12Z" fill="#2C71F0"/>
</g>
<path d="M393.6 223.04H312.46C310.47 223.04 308.83 221.41 308.83 219.41V134.11C308.83 132.12 310.46 130.48 312.46 130.48H393.6C395.59 130.48 397.23 132.11 397.23 134.11V219.41C397.23 221.41 395.6 223.04 393.6 223.04Z" fill="url(#paint2_linear_1187_2041)"/>
<path d="M393.6 131.39C395.11 131.39 396.33 132.61 396.33 134.12V219.42C396.33 220.93 395.11 222.15 393.6 222.15H312.46C310.95 222.15 309.73 220.93 309.73 219.42V134.12C309.73 132.61 310.95 131.39 312.46 131.39H393.6ZM393.6 130.49H312.46C310.47 130.49 308.83 132.12 308.83 134.12V219.42C308.83 221.41 310.46 223.05 312.46 223.05H393.6C395.59 223.05 397.23 221.42 397.23 219.42V134.12C397.23 132.12 395.6 130.49 393.6 130.49Z" fill="#45515C"/>
<path d="M376.65 203.69C381.455 203.69 385.35 199.795 385.35 194.99C385.35 190.185 381.455 186.29 376.65 186.29C371.845 186.29 367.95 190.185 367.95 194.99C367.95 199.795 371.845 203.69 376.65 203.69Z" fill="white" stroke="#45515C" stroke-width="1.4075" stroke-miterlimit="10"/>
<path d="M372.88 192.94L376.65 197.2L390.64 184.1" stroke="#6499FC" stroke-width="1.6515" stroke-miterlimit="10" stroke-linecap="round" stroke-linejoin="round"/>
<path d="M353.03 167.84C369.206 167.84 382.32 154.726 382.32 138.55C382.32 122.374 369.206 109.26 353.03 109.26C336.854 109.26 323.74 122.374 323.74 138.55C323.74 154.726 336.854 167.84 353.03 167.84Z" fill="#6499FC" stroke="#45515C" stroke-miterlimit="10" stroke-linecap="round" stroke-linejoin="round"/>
<path d="M365.53 139.09H340.53V130.59C340.53 125.66 344.57 121.62 349.5 121.62H356.56C361.49 121.62 365.53 125.66 365.53 130.59V139.09Z" fill="white" stroke="#45515C" stroke-miterlimit="10" stroke-linecap="round" stroke-linejoin="round"/>
<path d="M364.57 151.85H341.49C339.52 151.85 337.91 153.46 337.91 155.43V163.64C342.32 166.31 347.5 167.84 353.03 167.84C358.56 167.84 363.73 166.3 368.15 163.64V155.43C368.15 153.46 366.54 151.85 364.57 151.85Z" fill="white" stroke="#45515C" stroke-miterlimit="10" stroke-linecap="round" stroke-linejoin="round"/>
<path d="M353.89 159.34H352.17C349.74 159.34 347.75 157.35 347.75 154.92V146.97C347.75 144.54 349.74 142.55 352.17 142.55H353.89C356.32 142.55 358.31 144.54 358.31 146.97V154.92C358.31 157.35 356.32 159.34 353.89 159.34Z" fill="white" stroke="#45515C" stroke-miterlimit="10" stroke-linecap="round" stroke-linejoin="round"/>
<path d="M361.96 130.84V138.39C361.96 143.3 357.94 147.32 353.03 147.32C348.12 147.32 344.1 143.3 344.1 138.39V130.84" fill="white"/>
<path d="M361.96 130.84V138.39C361.96 143.3 357.94 147.32 353.03 147.32C348.12 147.32 344.1 143.3 344.1 138.39V130.84" stroke="#45515C" stroke-miterlimit="10" stroke-linecap="round" stroke-linejoin="round"/>
<path d="M342.89 130.47C342.89 130.47 350.9 131.59 353.14 125C353.14 125 355.42 131.59 363.17 130.3" fill="white"/>
<path d="M342.89 130.47C342.89 130.47 350.9 131.59 353.14 125C353.14 125 355.42 131.59 363.17 130.3" stroke="#45515C" stroke-miterlimit="10" stroke-linecap="round" stroke-linejoin="round"/>
<path d="M354.83 190.8H322.12C321.25 190.8 320.55 190.1 320.55 189.23V188.62C320.55 187.75 321.25 187.05 322.12 187.05H354.83C355.7 187.05 356.4 187.75 356.4 188.62V189.23C356.41 190.1 355.7 190.8 354.83 190.8Z" fill="#45515C"/>
<path d="M332.5 201.33H322.13C321.26 201.33 320.56 200.63 320.56 199.76V199.15C320.56 198.28 321.26 197.58 322.13 197.58H332.5C333.37 197.58 334.07 198.28 334.07 199.15V199.76C334.07 200.63 333.37 201.33 332.5 201.33Z" fill="#45515C"/>
<defs>
<linearGradient id="paint0_linear_1187_2041" x1="73.8843" y1="223.045" x2="73.8843" y2="130.489" gradientUnits="userSpaceOnUse">
<stop stop-color="#E5EAFF"/>
<stop offset="0.4462" stop-color="#E7ECFF"/>
<stop offset="0.6268" stop-color="#EEF1FF"/>
<stop offset="0.7592" stop-color="#FAFBFF"/>
<stop offset="0.7947" stop-color="white"/>
</linearGradient>
<linearGradient id="paint1_linear_1187_2041" x1="213.295" y1="167.568" x2="213.295" y2="23.8171" gradientUnits="userSpaceOnUse">
<stop stop-color="#E5EAFF"/>
<stop offset="0.4462" stop-color="#E7ECFF"/>
<stop offset="0.6268" stop-color="#EEF1FF"/>
<stop offset="0.7592" stop-color="#FAFBFF"/>
<stop offset="0.7947" stop-color="white"/>
</linearGradient>
<linearGradient id="paint2_linear_1187_2041" x1="353.031" y1="223.045" x2="353.031" y2="130.489" gradientUnits="userSpaceOnUse">
<stop stop-color="#E5EAFF"/>
<stop offset="0.4462" stop-color="#E7ECFF"/>
<stop offset="0.6268" stop-color="#EEF1FF"/>
<stop offset="0.7592" stop-color="#FAFBFF"/>
<stop offset="0.7947" stop-color="white"/>
</linearGradient>
</defs>
</svg>
