<svg width="71" height="25" viewBox="0 0 71 25" fill="none" xmlns="http://www.w3.org/2000/svg">
<path d="M12.444 16.6219L10.416 17.2459V17.9999H18.32V17.2459L16.266 16.6739L9.844 0.215942H8.986L2.226 16.6479L0.145996 17.2459V17.9999H5.658V17.2459L3.63 16.6739L5.502 11.9159H10.65L12.444 16.6219ZM8.154 5.25994L10.208 10.7459H5.97L8.154 5.25994Z" fill="white"/>
<path d="M26.6116 17.9999V17.3759L24.7916 16.8559V9.23794C25.6756 8.24994 26.4296 8.06794 27.1056 8.06794C27.9376 8.06794 28.7436 8.43194 29.3416 8.79594C29.6536 8.45794 30.1476 7.62594 30.1476 6.63794C30.1476 5.54594 29.3676 5.31194 28.7436 5.31194C27.5996 5.31194 26.3516 6.06594 24.7916 8.14594V5.31194L19.9296 6.42994V7.13194L21.5676 7.39194V16.8559L19.9296 17.3759V17.9999H26.6116Z" fill="white"/>
<path d="M37.0717 5.31194C34.4977 5.31194 31.7157 6.63794 31.7157 9.60194C31.7157 11.6819 32.9117 12.8779 34.4717 13.4499C32.9637 14.1779 31.6637 15.3999 31.6637 16.8559C31.6637 18.3119 32.8597 18.5719 33.7437 18.7019C32.2357 19.1439 31.0657 20.1319 31.0657 21.5359C31.0657 23.1479 33.0157 24.1099 36.7857 24.1099C41.0757 24.1099 44.1177 22.0559 44.1177 19.3779C44.1177 16.3099 41.2837 15.8939 38.8397 15.8939H35.5117C34.8357 15.8939 34.6017 15.6599 34.6017 15.1919C34.6017 14.8279 34.8097 14.1779 35.2257 13.6579C35.7977 13.8139 36.4217 13.8659 37.0457 13.8659C39.6457 13.8659 42.3757 12.5139 42.3757 9.67994C42.3757 8.43194 41.9857 7.49594 41.3617 6.81994H41.7257C43.0257 6.81994 43.9877 6.29994 43.9877 5.33794C43.9877 4.42794 43.2857 3.85594 42.1157 3.85594H41.4137C41.5437 4.29794 41.6217 4.84394 41.6217 5.18194C41.6217 5.80594 41.3877 6.11794 40.6597 6.22194C39.6717 5.57194 38.3717 5.31194 37.0717 5.31194ZM37.2537 23.2779C35.1997 23.2779 33.7957 22.6019 33.7957 20.8339C33.7957 20.0539 34.1337 19.3259 34.4977 18.9619H38.5797C40.3997 18.9619 41.6477 19.1959 41.6477 20.5739C41.6477 22.4979 38.9437 23.2779 37.2537 23.2779ZM37.0457 6.06594C38.9177 6.06594 39.2037 8.32794 39.2037 9.73194C39.2037 11.7079 38.4757 13.0599 37.0977 13.0599C35.2257 13.0599 34.9137 10.8499 34.9137 9.47194C34.9397 7.33994 35.8757 6.06594 37.0457 6.06594Z" fill="white"/>
<path d="M54.4915 18.3639L59.3535 17.3499V16.6739L57.7155 16.4139V5.31194L52.8535 6.42994V7.13194L54.4915 7.39194V15.4259C53.8155 16.1539 52.8795 16.5699 52.0475 16.5699C50.6175 16.5699 50.0195 15.7379 50.0195 14.0999V5.31194L45.1575 6.42994V7.13194L46.7955 7.39194V14.4379C46.7955 16.8559 47.8875 18.3639 50.2795 18.3639C51.8395 18.3639 53.2175 17.7139 54.4915 16.5439V18.3639Z" fill="white"/>
<path d="M70.5319 14.3599C70.5319 10.3819 63.7199 10.9019 63.7199 8.01594C63.7199 6.79394 64.4999 6.11794 65.6439 6.11794C67.2819 6.11794 67.5159 7.80794 67.5679 9.41994C68.5819 9.41994 70.1679 9.28994 70.1679 7.91194C70.1679 6.45594 68.5039 5.31194 66.0339 5.31194C63.5639 5.31194 61.3799 6.50794 61.3799 9.28994C61.3799 13.4499 68.2439 13.0079 68.2439 15.8419C68.2439 16.9339 67.2559 17.5319 65.9819 17.5319C64.0319 17.5319 63.1999 16.1799 63.0959 14.1259C61.8219 14.2039 60.7819 14.8539 60.7819 15.9979C60.7819 17.5059 63.2779 18.3639 65.5659 18.3639C68.2959 18.3639 70.5319 17.1159 70.5319 14.3599Z" fill="white"/>
</svg>
