<svg width="430" height="313" viewBox="0 0 430 313" fill="none" xmlns="http://www.w3.org/2000/svg">
<path d="M292.339 243.898H226.962C225.9 243.898 225.046 243.044 225.046 241.982V241.237C225.046 240.175 225.9 239.321 226.962 239.321H292.339C293.401 239.321 294.256 240.175 294.256 241.237V241.982C294.256 243.044 293.401 243.898 292.339 243.898Z" fill="#45515C"/>
<path d="M270.295 256.751H226.962C225.9 256.751 225.046 255.896 225.046 254.834V254.09C225.046 253.028 225.9 252.173 226.962 252.173H270.295C271.357 252.173 272.211 253.028 272.211 254.09V254.834C272.211 255.896 271.357 256.751 270.295 256.751Z" fill="#45515C"/>
<path d="M292.339 202.299H226.962C225.9 202.299 225.046 201.444 225.046 200.382V199.638C225.046 198.576 225.9 197.721 226.962 197.721H292.339C293.401 197.721 294.256 198.576 294.256 199.638V200.382C294.256 201.444 293.401 202.299 292.339 202.299Z" fill="#45515C"/>
<path d="M270.295 215.151H226.962C225.9 215.151 225.046 214.297 225.046 213.235V212.49C225.046 211.428 225.9 210.574 226.962 210.574H270.295C271.357 210.574 272.211 211.428 272.211 212.49V213.235C272.211 214.297 271.357 215.151 270.295 215.151Z" fill="#45515C"/>
<path d="M15.6216 204.362C27.7791 184.087 47.4801 184.087 59.6377 204.362C70.2938 222.146 87.578 222.146 98.2463 204.362L99.2228 202.726C111.38 182.451 131.081 182.451 143.239 202.726" stroke="#6499FC" stroke-width="2" stroke-miterlimit="10" stroke-linecap="round" stroke-linejoin="round"/>
<path d="M39.6559 195.768C43.2423 195.768 46.1497 192.861 46.1497 189.274C46.1497 185.688 43.2423 182.781 39.6559 182.781C36.0695 182.781 33.1621 185.688 33.1621 189.274C33.1621 192.861 36.0695 195.768 39.6559 195.768Z" fill="white" stroke="#45515C" stroke-miterlimit="10" stroke-linecap="round" stroke-linejoin="round"/>
<path d="M79.4239 224.198C83.0104 224.198 85.9177 221.291 85.9177 217.704C85.9177 214.118 83.0104 211.21 79.4239 211.21C75.8375 211.21 72.9302 214.118 72.9302 217.704C72.9302 221.291 75.8375 224.198 79.4239 224.198Z" fill="white" stroke="#45515C" stroke-miterlimit="10" stroke-linecap="round" stroke-linejoin="round"/>
<path d="M120.767 194.011C124.354 194.011 127.261 191.104 127.261 187.517C127.261 183.931 124.354 181.024 120.767 181.024C117.181 181.024 114.273 183.931 114.273 187.517C114.273 191.104 117.181 194.011 120.767 194.011Z" fill="white" stroke="#45515C" stroke-miterlimit="10" stroke-linecap="round" stroke-linejoin="round"/>
<path d="M146.217 149.091H34.7122C32.2831 149.091 30.2812 147.102 30.2812 144.66V43.8848C30.2812 41.4557 32.2709 39.4539 34.7122 39.4539H146.217C148.646 39.4539 150.648 41.4435 150.648 43.8848V144.66C150.648 147.089 148.658 149.091 146.217 149.091Z" fill="url(#paint0_linear_1187_1154)"/>
<path d="M150.135 45.3003H30.5376V47.0458H150.135V45.3003Z" fill="#E5EAFF"/>
<path d="M146.217 39.9543C148.378 39.9543 150.148 41.712 150.148 43.8848V144.66C150.148 146.821 148.39 148.591 146.217 148.591H34.7122C32.5516 148.591 30.7817 146.833 30.7817 144.66V43.8848C30.7817 41.7242 32.5394 39.9543 34.7122 39.9543H146.217ZM146.217 39.4539H34.7122C32.2831 39.4539 30.2812 41.4435 30.2812 43.8848V144.66C30.2812 147.089 32.2709 149.091 34.7122 149.091H146.217C148.646 149.091 150.648 147.102 150.648 144.66V43.8848C150.648 41.4435 148.658 39.4539 146.217 39.4539Z" fill="#45515C"/>
<path d="M30.2812 45.3007V41.2726C30.2812 40.2717 31.0991 39.4539 32.1 39.4539H148.829C149.83 39.4539 150.648 40.2717 150.648 41.2726V45.3007" fill="#45515C"/>
<path d="M134.535 126.449H44.9165" stroke="#45515C" stroke-width="0.8047" stroke-miterlimit="10"/>
<path d="M60.4186 123.3H57.599C55.9145 123.3 54.5596 121.933 54.5596 120.261V106.151C54.5596 104.466 55.9267 103.111 57.599 103.111H60.4186C62.1031 103.111 63.458 104.478 63.458 106.151V120.261C63.4702 121.933 62.1031 123.3 60.4186 123.3Z" fill="white" stroke="#45515C" stroke-width="0.8047" stroke-miterlimit="10" stroke-linecap="round" stroke-linejoin="round"/>
<path d="M76.8971 90.4413C78.0323 90.4413 78.96 91.369 78.96 92.5042V120.249C78.96 121.384 78.0323 122.312 76.8971 122.312H74.0775C72.9423 122.312 72.0146 121.384 72.0146 120.249V92.5042C72.0146 91.369 72.9423 90.4413 74.0775 90.4413H76.8971ZM76.8971 89.4648H74.0775C72.393 89.4648 71.0381 90.832 71.0381 92.5042V120.249C71.0381 121.934 72.4052 123.289 74.0775 123.289H76.8971C78.5816 123.289 79.9365 121.922 79.9365 120.249V92.5042C79.9487 90.8197 78.5816 89.4648 76.8971 89.4648Z" fill="#45515C"/>
<path d="M93.3756 83.8854C94.5108 83.8854 95.4385 84.8131 95.4385 85.9483V120.26C95.4385 121.396 94.5108 122.323 93.3756 122.323H90.556C89.4208 122.323 88.4931 121.396 88.4931 120.26V85.9483C88.4931 84.8131 89.4208 83.8854 90.556 83.8854H93.3756ZM93.3756 82.8967H90.556C88.8715 82.8967 87.5166 84.2638 87.5166 85.9361V120.248C87.5166 121.933 88.8837 123.288 90.556 123.288H93.3756C95.0601 123.288 96.415 121.92 96.415 120.248V85.9483C96.4272 84.2638 95.0601 82.8967 93.3756 82.8967Z" fill="#45515C"/>
<path d="M107.035 122.812C105.631 122.812 104.483 121.665 104.483 120.261V68.6647C104.483 67.261 105.631 66.1136 107.035 66.1136H109.854C111.258 66.1136 112.405 67.261 112.405 68.6647V120.249C112.405 121.652 111.258 122.8 109.854 122.8H107.035V122.812Z" fill="#6499FC"/>
<path d="M109.854 66.6008C110.989 66.6008 111.917 67.5285 111.917 68.6637V120.248C111.917 121.383 110.989 122.311 109.854 122.311H107.035C105.899 122.311 104.972 121.383 104.972 120.248V68.6637C104.972 67.5285 105.899 66.6008 107.035 66.6008H109.854ZM109.854 65.6243H107.035C105.35 65.6243 103.995 66.9914 103.995 68.6637V120.248C103.995 121.932 105.362 123.287 107.035 123.287H109.854C111.539 123.287 112.894 121.92 112.894 120.248V68.6637C112.906 66.9914 111.539 65.6243 109.854 65.6243Z" fill="#45515C"/>
<path d="M126.333 123.301H123.513C121.829 123.301 120.474 121.933 120.474 120.261V92.5161C120.474 90.8317 121.841 89.4767 123.513 89.4767H126.333C128.017 89.4767 129.372 90.8439 129.372 92.5161V120.261C129.384 121.933 128.017 123.301 126.333 123.301Z" fill="#45515C"/>
<path d="M150.148 146.137H38.6428C36.2138 146.137 34.2119 144.148 34.2119 141.706V40.9309C34.2119 38.5018 36.2015 36.5 38.6428 36.5H150.148C152.577 36.5 154.579 38.4896 154.579 40.9309V141.706C154.579 144.148 152.589 146.137 150.148 146.137Z" fill="url(#paint1_linear_1187_1154)"/>
<path d="M154.066 42.3457H34.4683V44.0912H154.066V42.3457Z" fill="#E5EAFF"/>
<path d="M150.148 37.012C152.308 37.012 154.078 38.7697 154.078 40.9424V141.718C154.078 143.879 152.32 145.648 150.148 145.648H38.6428C36.4823 145.648 34.7124 143.891 34.7124 141.718V40.9302C34.7124 38.7697 36.4701 36.9998 38.6428 36.9998H150.148V37.012ZM150.148 36.5115H38.6428C36.2138 36.5115 34.2119 38.5012 34.2119 40.9424V141.718C34.2119 144.147 36.2015 146.149 38.6428 146.149H150.148C152.577 146.149 154.579 144.159 154.579 141.718V40.9302C154.579 38.5012 152.589 36.5115 150.148 36.5115Z" fill="#45515C"/>
<path d="M34.2119 42.3468V38.3187C34.2119 37.3178 35.0297 36.5 36.0307 36.5H152.76C153.761 36.5 154.579 37.3178 154.579 38.3187V42.3468" fill="#45515C"/>
<path d="M138.454 123.506H48.835" stroke="#45515C" stroke-width="0.8047" stroke-miterlimit="10"/>
<path d="M64.3493 120.346H61.5296C59.8451 120.346 58.4902 118.979 58.4902 117.306V103.196C58.4902 101.511 59.8573 100.157 61.5296 100.157H64.3493C66.0338 100.157 67.3887 101.524 67.3887 103.196V117.306C67.4009 118.991 66.0338 120.346 64.3493 120.346Z" fill="white" stroke="#45515C" stroke-width="0.8047" stroke-miterlimit="10" stroke-linecap="round" stroke-linejoin="round"/>
<path d="M78.0082 119.859C76.6044 119.859 75.457 118.711 75.457 117.308V89.5625C75.457 88.1588 76.6044 87.0114 78.0082 87.0114H80.8278C82.2316 87.0114 83.3789 88.1588 83.3789 89.5625V117.308C83.3789 118.711 82.2316 119.859 80.8278 119.859H78.0082Z" fill="#6499FC"/>
<path d="M80.8278 87.499C81.963 87.499 82.8907 88.4266 82.8907 89.5618V117.307C82.8907 118.442 81.963 119.37 80.8278 119.37H78.0081C76.8729 119.37 75.9453 118.442 75.9453 117.307V89.5618C75.9453 88.4266 76.8729 87.499 78.0081 87.499H80.8278ZM80.8278 86.5103H78.0081C76.3237 86.5103 74.9688 87.8774 74.9688 89.5496V117.295C74.9688 118.979 76.3359 120.334 78.0081 120.334H80.8278C82.5123 120.334 83.8672 118.967 83.8672 117.295V89.5496C83.8794 87.8774 82.5123 86.5103 80.8278 86.5103Z" fill="#45515C"/>
<path d="M94.4867 119.734C93.144 119.734 92.0576 118.647 92.0576 117.305V82.9925C92.0576 81.6498 93.144 80.5634 94.4867 80.5634H97.3063C98.649 80.5634 99.7354 81.6498 99.7354 82.9925V117.305C99.7354 118.647 98.649 119.734 97.3063 119.734H94.4867Z" fill="#C4C4C4"/>
<path d="M97.3063 81.1747C98.3072 81.1747 99.1251 81.9926 99.1251 82.9935V117.306C99.1251 118.306 98.3072 119.124 97.3063 119.124H94.4866C93.4857 119.124 92.6679 118.306 92.6679 117.306V82.9935C92.6679 81.9926 93.4857 81.1747 94.4866 81.1747H97.3063ZM97.3063 79.9541H94.4866C92.8022 79.9541 91.4473 81.3212 91.4473 82.9935V117.306C91.4473 118.99 92.8144 120.345 94.4866 120.345H97.3063C98.9908 120.345 100.346 118.978 100.346 117.306V82.9935C100.358 81.3212 98.9908 79.9541 97.3063 79.9541Z" fill="#45515C"/>
<path d="M110.965 119.857C109.561 119.857 108.414 118.709 108.414 117.306V65.7215C108.414 64.3178 109.561 63.1704 110.965 63.1704H113.785C115.189 63.1704 116.336 64.3178 116.336 65.7215V117.306C116.336 118.709 115.189 119.857 113.785 119.857H110.965Z" fill="#6499FC"/>
<path d="M113.785 63.6582C114.92 63.6582 115.848 64.5858 115.848 65.721V117.305C115.848 118.44 114.92 119.368 113.785 119.368H110.965C109.83 119.368 108.902 118.44 108.902 117.305V65.721C108.902 64.5858 109.83 63.6582 110.965 63.6582H113.785ZM113.785 62.6816H110.965C109.281 62.6816 107.926 64.0487 107.926 65.721V117.305C107.926 118.99 109.293 120.344 110.965 120.344H113.785C115.469 120.344 116.824 118.977 116.824 117.305V65.721C116.836 64.0365 115.469 62.6816 113.785 62.6816Z" fill="#45515C"/>
<path d="M130.263 120.346H127.444C125.759 120.346 124.404 118.979 124.404 117.307V89.5615C124.404 87.8771 125.771 86.5222 127.444 86.5222H130.263C131.948 86.5222 133.303 87.8893 133.303 89.5615V117.307C133.315 118.991 131.948 120.346 130.263 120.346Z" fill="#45515C"/>
<path d="M272.248 116.561V157.184" stroke="#45515C" stroke-width="0.5" stroke-miterlimit="10"/>
<path d="M312.492 122.786V157.183" stroke="#45515C" stroke-width="0.5" stroke-miterlimit="10"/>
<path d="M322.586 116.561V157.184" stroke="#45515C" stroke-width="0.5" stroke-miterlimit="10"/>
<path d="M364.405 114.621V157.184" stroke="#45515C" stroke-width="0.5" stroke-miterlimit="10"/>
<path d="M404.076 157.184H218.601" stroke="#45515C" stroke-miterlimit="10"/>
<path d="M228.451 49.4269V157.184" stroke="#45515C" stroke-miterlimit="10"/>
<path d="M243.44 116.563L294.609 136.166L318.607 105.381L329.8 112.193L345.791 88.3292L393.737 75.537" stroke="#6499FC" stroke-width="2" stroke-miterlimit="10" stroke-linecap="round" stroke-linejoin="round"/>
<path d="M393.737 81.6402C397.108 81.6402 399.841 78.9077 399.841 75.537C399.841 72.1663 397.108 69.4338 393.737 69.4338C390.367 69.4338 387.634 72.1663 387.634 75.537C387.634 78.9077 390.367 81.6402 393.737 81.6402Z" fill="white" stroke="#45515C" stroke-miterlimit="10" stroke-linecap="round" stroke-linejoin="round"/>
<path d="M345.18 95.6775C348.551 95.6775 351.283 92.945 351.283 89.5743C351.283 86.2036 348.551 83.4711 345.18 83.4711C341.81 83.4711 339.077 86.2036 339.077 89.5743C339.077 92.945 341.81 95.6775 345.18 95.6775Z" fill="white" stroke="#45515C" stroke-miterlimit="10" stroke-linecap="round" stroke-linejoin="round"/>
<path d="M318.583 111.961C321.953 111.961 324.686 109.228 324.686 105.857C324.686 102.487 321.953 99.7542 318.583 99.7542C315.212 99.7542 312.479 102.487 312.479 105.857C312.479 109.228 315.212 111.961 318.583 111.961Z" fill="white" stroke="#45515C" stroke-miterlimit="10" stroke-linecap="round" stroke-linejoin="round"/>
<path d="M294.072 142.269C297.443 142.269 300.176 139.536 300.176 136.166C300.176 132.795 297.443 130.063 294.072 130.063C290.702 130.063 287.969 132.795 287.969 136.166C287.969 139.536 290.702 142.269 294.072 142.269Z" fill="white" stroke="#45515C" stroke-miterlimit="10" stroke-linecap="round" stroke-linejoin="round"/>
<path d="M243.441 122.665C246.811 122.665 249.544 119.932 249.544 116.562C249.544 113.191 246.811 110.459 243.441 110.459C240.07 110.459 237.337 113.191 237.337 116.562C237.337 119.932 240.07 122.665 243.441 122.665Z" fill="white" stroke="#45515C" stroke-miterlimit="10" stroke-linecap="round" stroke-linejoin="round"/>
<path d="M214.121 60.6195H196.69C194.212 60.6195 192.21 58.6177 192.21 56.1398V53.9061C192.21 51.4282 194.212 49.4263 196.69 49.4263H214.121C216.599 49.4263 218.601 51.4282 218.601 53.9061V56.1398C218.601 58.6055 216.587 60.6195 214.121 60.6195Z" stroke="#45515C" stroke-miterlimit="10"/>
<path d="M214.121 99.7543H196.69C194.212 99.7543 192.21 97.7525 192.21 95.2746V93.0408C192.21 90.5629 194.212 88.5611 196.69 88.5611H214.121C216.599 88.5611 218.601 90.5629 218.601 93.0408V95.2746C218.601 97.7525 216.587 99.7543 214.121 99.7543Z" stroke="#45515C" stroke-miterlimit="10"/>
<path d="M214.121 138.9H196.69C194.212 138.9 192.21 136.899 192.21 134.421V132.187C192.21 129.709 194.212 127.707 196.69 127.707H214.121C216.599 127.707 218.601 129.709 218.601 132.187V134.421C218.601 136.886 216.587 138.9 214.121 138.9Z" stroke="#45515C" stroke-miterlimit="10"/>
<path d="M228.451 136.163L272.248 116.56L312.492 122.785L323.014 116.56L364.405 114.619L399.84 96.9929" stroke="#6499FC" stroke-width="2" stroke-miterlimit="10" stroke-linecap="round" stroke-linejoin="round"/>
<path d="M228.451 110.458L266.987 89.5726L294.072 104.379L336.38 63.1581L399.84 46.5941" stroke="#45515C" stroke-width="0.5" stroke-miterlimit="10"/>
<path d="M184.13 219.424C192.456 219.424 199.205 212.675 199.205 204.35C199.205 196.024 192.456 189.275 184.13 189.275C175.804 189.275 169.055 196.024 169.055 204.35C169.055 212.675 175.804 219.424 184.13 219.424Z" fill="white" stroke="#45515C" stroke-miterlimit="10" stroke-linecap="round" stroke-linejoin="round"/>
<path d="M184.13 204.349L170.056 198.966C172.278 193.144 177.905 189.274 184.13 189.274C192.394 189.274 199.205 196.073 199.205 204.349H184.13Z" fill="white" stroke="#45515C" stroke-miterlimit="10" stroke-linecap="round" stroke-linejoin="round"/>
<path d="M184.13 204.35L193.041 192.192C194.945 193.596 196.508 195.427 197.57 197.539C198.644 199.65 199.193 201.982 199.193 204.35H184.13Z" fill="white" stroke="#45515C" stroke-miterlimit="10" stroke-linecap="round" stroke-linejoin="round"/>
<path d="M184.13 262.33C192.456 262.33 199.205 255.581 199.205 247.255C199.205 238.93 192.456 232.181 184.13 232.181C175.804 232.181 169.055 238.93 169.055 247.255C169.055 255.581 175.804 262.33 184.13 262.33Z" fill="white" stroke="#45515C" stroke-miterlimit="10" stroke-linecap="round" stroke-linejoin="round"/>
<path d="M184.13 247.256L195.519 237.381C197.899 240.127 199.205 243.631 199.205 247.256C199.205 255.52 192.406 262.331 184.13 262.331C175.866 262.331 169.055 255.532 169.055 247.256C169.055 246.743 169.08 246.243 169.128 245.73L184.13 247.256Z" fill="white" stroke="#45515C" stroke-miterlimit="10" stroke-linecap="round" stroke-linejoin="round"/>
<path d="M184.13 247.256L174.036 258.449C172.278 256.862 170.911 254.885 170.069 252.675C169.214 250.466 168.897 248.086 169.141 245.73L184.13 247.256Z" fill="white" stroke="#45515C" stroke-miterlimit="10" stroke-linecap="round" stroke-linejoin="round"/>
<g opacity="0.2">
<g opacity="0.2">
<path opacity="0.2" d="M411.4 213.932H328.593C326.945 213.932 325.614 212.601 325.614 210.953V197.734C325.614 196.086 326.945 194.755 328.593 194.755H411.4C413.048 194.755 414.379 196.086 414.379 197.734V210.953C414.379 212.601 413.048 213.932 411.4 213.932Z" fill="#2C71F0"/>
</g>
<g opacity="0.2">
<path opacity="0.2" d="M411.4 245.217H328.593C326.945 245.217 325.614 243.887 325.614 242.239V229.019C325.614 227.372 326.945 226.041 328.593 226.041H411.4C413.048 226.041 414.379 227.372 414.379 229.019V242.239C414.379 243.887 413.048 245.217 411.4 245.217Z" fill="#2C71F0"/>
</g>
<g opacity="0.2">
<path opacity="0.2" d="M411.4 276.489H328.593C326.945 276.489 325.614 275.158 325.614 273.511V260.291C325.614 258.643 326.945 257.313 328.593 257.313H411.4C413.048 257.313 414.379 258.643 414.379 260.291V273.511C414.379 275.158 413.048 276.489 411.4 276.489Z" fill="#2C71F0"/>
</g>
</g>
<path d="M325.712 208.987C324.406 208.987 323.344 207.925 323.344 206.619V193.399C323.344 192.093 324.406 191.031 325.712 191.031H408.52C409.826 191.031 410.888 192.093 410.888 193.399V206.619C410.888 207.925 409.826 208.987 408.52 208.987H325.712Z" fill="#6499FC"/>
<path d="M408.52 191.642C409.484 191.642 410.277 192.436 410.277 193.4V206.619C410.277 207.584 409.484 208.377 408.52 208.377H325.712C324.747 208.377 323.954 207.584 323.954 206.619V193.4C323.954 192.436 324.747 191.642 325.712 191.642H408.52ZM408.52 190.422H325.712C324.064 190.422 322.733 191.752 322.733 193.4V206.619C322.733 208.267 324.064 209.598 325.712 209.598H408.52C410.167 209.598 411.498 208.267 411.498 206.619V193.4C411.498 191.764 410.155 190.422 408.52 190.422Z" fill="#45515C"/>
<path d="M325.712 240.273C324.406 240.273 323.344 239.211 323.344 237.905V224.686C323.344 223.38 324.406 222.318 325.712 222.318H408.52C409.826 222.318 410.888 223.38 410.888 224.686V237.905C410.888 239.211 409.826 240.273 408.52 240.273H325.712Z" fill="#C4C4C4"/>
<path d="M408.52 222.928C409.484 222.928 410.277 223.721 410.277 224.685V237.905C410.277 238.869 409.484 239.663 408.52 239.663H325.712C324.747 239.663 323.954 238.869 323.954 237.905V224.685C323.954 223.721 324.747 222.928 325.712 222.928H408.52ZM408.52 221.707H325.712C324.064 221.707 322.733 223.038 322.733 224.685V237.905C322.733 239.553 324.064 240.883 325.712 240.883H408.52C410.167 240.883 411.498 239.553 411.498 237.905V224.685C411.498 223.038 410.155 221.707 408.52 221.707Z" fill="#45515C"/>
<path d="M325.712 271.545C324.406 271.545 323.344 270.483 323.344 269.177V255.958C323.344 254.651 324.406 253.589 325.712 253.589H408.52C409.826 253.589 410.888 254.651 410.888 255.958V269.177C410.888 270.483 409.826 271.545 408.52 271.545H325.712Z" fill="#6499FC"/>
<path d="M408.52 254.199C409.484 254.199 410.277 254.993 410.277 255.957V269.176C410.277 270.141 409.484 270.934 408.52 270.934H325.712C324.747 270.934 323.954 270.141 323.954 269.176V255.957C323.954 254.993 324.747 254.199 325.712 254.199H408.52ZM408.52 252.979H325.712C324.064 252.979 322.733 254.309 322.733 255.957V269.176C322.733 270.824 324.064 272.155 325.712 272.155H408.52C410.167 272.155 411.498 270.824 411.498 269.176V255.957C411.498 254.321 410.155 252.979 408.52 252.979Z" fill="#45515C"/>
<path d="M330.899 200.577H367.409" stroke="#45515C" stroke-miterlimit="10" stroke-linecap="round" stroke-linejoin="round"/>
<path d="M330.899 232.192H354.58" stroke="#45515C" stroke-miterlimit="10" stroke-linecap="round" stroke-linejoin="round"/>
<path d="M330.899 262.572H374.403" stroke="#45515C" stroke-miterlimit="10" stroke-linecap="round" stroke-linejoin="round"/>
<defs>
<linearGradient id="paint0_linear_1187_1154" x1="90.4655" y1="149.086" x2="90.4655" y2="39.4557" gradientUnits="userSpaceOnUse">
<stop stop-color="#E5EAFF"/>
<stop offset="0.4462" stop-color="#E7ECFF"/>
<stop offset="0.6268" stop-color="#EEF1FF"/>
<stop offset="0.7592" stop-color="#FAFBFF"/>
<stop offset="0.7947" stop-color="white"/>
</linearGradient>
<linearGradient id="paint1_linear_1187_1154" x1="94.3944" y1="146.14" x2="94.3944" y2="36.5091" gradientUnits="userSpaceOnUse">
<stop stop-color="#E5EAFF"/>
<stop offset="0.4462" stop-color="#E7ECFF"/>
<stop offset="0.6268" stop-color="#EEF1FF"/>
<stop offset="0.7592" stop-color="#FAFBFF"/>
<stop offset="0.7947" stop-color="white"/>
</linearGradient>
</defs>
</svg>
