<svg width="430" height="313" viewBox="0 0 430 313" fill="none" xmlns="http://www.w3.org/2000/svg">
<g opacity="0.2">
<g opacity="0.2">
<path opacity="0.2" d="M354.77 59.319H286.93C285.58 59.319 284.49 58.229 284.49 56.879V46.049C284.49 44.699 285.58 43.609 286.93 43.609H354.77C356.12 43.609 357.21 44.699 357.21 46.049V56.879C357.21 58.219 356.12 59.319 354.77 59.319Z" fill="#2C71F0"/>
</g>
<g opacity="0.2">
<path opacity="0.2" d="M354.77 84.939H286.93C285.58 84.939 284.49 83.849 284.49 82.499V71.669C284.49 70.319 285.58 69.229 286.93 69.229H354.77C356.12 69.229 357.21 70.319 357.21 71.669V82.499C357.21 83.849 356.12 84.939 354.77 84.939Z" fill="#2C71F0"/>
</g>
<g opacity="0.2">
<path opacity="0.2" d="M354.77 110.569H286.93C285.58 110.569 284.49 109.479 284.49 108.129V97.299C284.49 95.949 285.58 94.859 286.93 94.859H354.77C356.12 94.859 357.21 95.949 357.21 97.299V108.129C357.21 109.469 356.12 110.569 354.77 110.569Z" fill="#2C71F0"/>
</g>
</g>
<path d="M386.26 155.589H190.17" stroke="#45515C" stroke-miterlimit="10"/>
<path d="M129.44 169.169V197.559C129.44 209.979 119.37 220.039 106.96 220.039H65.98" stroke="#45515C" stroke-miterlimit="10"/>
<path d="M129.44 195.069V223.459C129.44 235.879 119.37 245.939 106.96 245.939H65.98" stroke="#45515C" stroke-miterlimit="10"/>
<path d="M129.44 220.959V249.349C129.44 261.769 119.37 271.829 106.96 271.829H65.98" stroke="#45515C" stroke-miterlimit="10"/>
<path d="M253.48 151.379V122.989C253.48 110.569 263.55 100.509 275.96 100.509H316.94" stroke="#45515C" stroke-miterlimit="10"/>
<path d="M253.48 125.479V97.089C253.48 84.669 263.55 74.609 275.96 74.609H316.94" stroke="#45515C" stroke-miterlimit="10"/>
<path d="M253.48 99.589V71.199C253.48 58.779 263.55 48.719 275.96 48.719H316.94" stroke="#45515C" stroke-miterlimit="10"/>
<path d="M386.26 151.379V122.989C386.26 110.569 376.19 100.509 363.78 100.509H322.8" stroke="#45515C" stroke-miterlimit="10"/>
<path d="M386.26 125.479V97.089C386.26 84.669 376.19 74.609 363.78 74.609H322.8" stroke="#45515C" stroke-miterlimit="10"/>
<path d="M386.26 99.589V71.199C386.26 58.779 376.19 48.719 363.78 48.719H322.8" stroke="#45515C" stroke-miterlimit="10"/>
<path d="M316.94 254.409V226.019C316.94 213.599 306.87 203.539 294.46 203.539H253.48" stroke="#45515C" stroke-miterlimit="10"/>
<path d="M316.94 270.459C325.799 270.459 332.98 263.278 332.98 254.419C332.98 245.56 325.799 238.379 316.94 238.379C308.081 238.379 300.9 245.56 300.9 254.419C300.9 263.278 308.081 270.459 316.94 270.459Z" fill="#C4C4C4"/>
<path d="M316.94 238.869C325.51 238.869 332.48 245.839 332.48 254.409C332.48 262.979 325.51 269.949 316.94 269.949C308.37 269.949 301.4 262.979 301.4 254.409C301.4 245.849 308.37 238.869 316.94 238.869ZM316.94 237.869C307.8 237.869 300.4 245.279 300.4 254.409C300.4 263.549 307.81 270.949 316.94 270.949C326.07 270.949 333.48 263.539 333.48 254.409C333.48 245.279 326.08 237.869 316.94 237.869Z" fill="#45515C"/>
<path d="M202.1 127.819C202.1 112.589 190.41 100.099 175.52 98.809C169.61 81.539 153.25 69.129 133.98 69.129C116.37 69.129 101.18 79.499 94.1901 94.469C91.2701 93.609 88.1901 93.149 84.9901 93.149C66.9801 93.149 52.3701 107.749 52.3701 125.769C52.3701 143.789 66.9701 158.389 84.9901 158.389L175.77 156.679L177.09 156.659C191.23 154.649 202.1 142.509 202.1 127.819Z" fill="url(#paint0_linear_1187_722)"/>
<path d="M133.25 70.129C151.59 70.129 167.91 81.789 173.85 99.139L174.06 99.759L174.71 99.819C181.69 100.429 188.17 103.609 192.94 108.779C197.74 113.979 200.38 120.749 200.38 127.829C200.38 141.729 190.03 153.689 176.3 155.659L175.04 155.679L84.2801 157.389C66.8501 157.389 52.6601 143.209 52.6601 125.769C52.6601 108.329 66.8401 94.149 84.2801 94.149C87.2901 94.149 90.2901 94.579 93.1901 95.429L94.0101 95.669L94.3701 94.889C101.39 79.849 116.66 70.129 133.25 70.129ZM133.25 69.129C115.64 69.129 100.45 79.499 93.4601 94.469C90.5401 93.609 87.4601 93.149 84.2601 93.149C66.2501 93.149 51.6401 107.749 51.6401 125.769C51.6401 143.789 66.2401 158.389 84.2601 158.389L175.04 156.679L176.36 156.659C190.49 154.659 201.37 142.509 201.37 127.829C201.37 112.599 189.68 100.109 174.79 98.819C168.88 81.549 152.52 69.129 133.25 69.129Z" fill="#45515C"/>
<path d="M284.1 55.879C283.03 55.879 282.16 55.009 282.16 53.939V43.109C282.16 42.039 283.03 41.169 284.1 41.169H351.94C353.01 41.169 353.88 42.039 353.88 43.109V53.939C353.88 55.009 353.01 55.879 351.94 55.879H284.1Z" fill="#6499FC"/>
<path d="M351.94 41.669C352.73 41.669 353.38 42.319 353.38 43.109V53.939C353.38 54.729 352.73 55.379 351.94 55.379H284.1C283.31 55.379 282.66 54.729 282.66 53.939V43.109C282.66 42.319 283.31 41.669 284.1 41.669H351.94ZM351.94 40.669H284.1C282.75 40.669 281.66 41.759 281.66 43.109V53.939C281.66 55.289 282.75 56.379 284.1 56.379H351.94C353.29 56.379 354.38 55.289 354.38 53.939V43.109C354.38 41.759 353.29 40.669 351.94 40.669Z" fill="#45515C"/>
<path d="M284.1 81.509C283.03 81.509 282.16 80.639 282.16 79.569V68.739C282.16 67.669 283.03 66.799 284.1 66.799H351.94C353.01 66.799 353.88 67.669 353.88 68.739V79.569C353.88 80.639 353.01 81.509 351.94 81.509H284.1Z" fill="#6499FC"/>
<path d="M351.94 67.299C352.73 67.299 353.38 67.949 353.38 68.739V79.569C353.38 80.359 352.73 81.009 351.94 81.009H284.1C283.31 81.009 282.66 80.359 282.66 79.569V68.739C282.66 67.949 283.31 67.299 284.1 67.299H351.94ZM351.94 66.299H284.1C282.75 66.299 281.66 67.389 281.66 68.739V79.569C281.66 80.919 282.75 82.009 284.1 82.009H351.94C353.29 82.009 354.38 80.919 354.38 79.569V68.739C354.38 67.389 353.29 66.299 351.94 66.299Z" fill="#45515C"/>
<path d="M284.1 107.129C283.03 107.129 282.16 106.259 282.16 105.189V94.359C282.16 93.289 283.03 92.419 284.1 92.419H351.94C353.01 92.419 353.88 93.289 353.88 94.359V105.189C353.88 106.259 353.01 107.129 351.94 107.129H284.1Z" fill="#6499FC"/>
<path d="M351.94 92.919C352.73 92.919 353.38 93.569 353.38 94.359V105.189C353.38 105.979 352.73 106.629 351.94 106.629H284.1C283.31 106.629 282.66 105.979 282.66 105.189V94.359C282.66 93.569 283.31 92.919 284.1 92.919H351.94ZM351.94 91.919H284.1C282.75 91.919 281.66 93.009 281.66 94.359V105.189C281.66 106.539 282.75 107.629 284.1 107.629H351.94C353.29 107.629 354.38 106.539 354.38 105.189V94.359C354.38 93.009 353.29 91.919 351.94 91.919Z" fill="#45515C"/>
<g opacity="0.2">
<g opacity="0.2">
<path opacity="0.2" d="M102.27 231.439H34.4302C33.0802 231.439 31.9902 230.349 31.9902 228.999V218.169C31.9902 216.819 33.0802 215.729 34.4302 215.729H102.27C103.62 215.729 104.71 216.819 104.71 218.169V228.999C104.71 230.349 103.61 231.439 102.27 231.439Z" fill="#2C71F0"/>
</g>
<g opacity="0.2">
<path opacity="0.2" d="M102.27 257.069H34.4302C33.0802 257.069 31.9902 255.979 31.9902 254.629V243.799C31.9902 242.449 33.0802 241.359 34.4302 241.359H102.27C103.62 241.359 104.71 242.449 104.71 243.799V254.629C104.71 255.969 103.61 257.069 102.27 257.069Z" fill="#2C71F0"/>
</g>
<g opacity="0.2">
<path opacity="0.2" d="M102.27 282.689H34.4302C33.0802 282.689 31.9902 281.599 31.9902 280.249V269.419C31.9902 268.069 33.0802 266.979 34.4302 266.979H102.27C103.62 266.979 104.71 268.069 104.71 269.419V280.249C104.71 281.599 103.61 282.689 102.27 282.689Z" fill="#2C71F0"/>
</g>
</g>
<path d="M32.0601 227.389C30.9901 227.389 30.1201 226.519 30.1201 225.449V214.619C30.1201 213.549 30.9901 212.679 32.0601 212.679H99.9001C100.97 212.679 101.84 213.549 101.84 214.619V225.449C101.84 226.519 100.97 227.389 99.9001 227.389H32.0601Z" fill="#6499FC"/>
<path d="M99.9001 213.179C100.69 213.179 101.34 213.829 101.34 214.619V225.449C101.34 226.239 100.69 226.889 99.9001 226.889H32.0601C31.2701 226.889 30.6201 226.239 30.6201 225.449V214.619C30.6201 213.829 31.2701 213.179 32.0601 213.179H99.9001ZM99.9001 212.179H32.0601C30.7101 212.179 29.6201 213.269 29.6201 214.619V225.449C29.6201 226.799 30.7101 227.889 32.0601 227.889H99.9001C101.25 227.889 102.34 226.799 102.34 225.449V214.619C102.34 213.279 101.25 212.179 99.9001 212.179Z" fill="#45515C"/>
<path d="M32.0601 253.019C30.9901 253.019 30.1201 252.149 30.1201 251.079V240.249C30.1201 239.179 30.9901 238.309 32.0601 238.309H99.9001C100.97 238.309 101.84 239.179 101.84 240.249V251.079C101.84 252.149 100.97 253.019 99.9001 253.019H32.0601Z" fill="#6499FC"/>
<path d="M99.9001 238.809C100.69 238.809 101.34 239.459 101.34 240.249V251.079C101.34 251.869 100.69 252.519 99.9001 252.519H32.0601C31.2701 252.519 30.6201 251.869 30.6201 251.079V240.249C30.6201 239.459 31.2701 238.809 32.0601 238.809H99.9001ZM99.9001 237.809H32.0601C30.7101 237.809 29.6201 238.899 29.6201 240.249V251.079C29.6201 252.429 30.7101 253.519 32.0601 253.519H99.9001C101.25 253.519 102.34 252.429 102.34 251.079V240.249C102.34 238.899 101.25 237.809 99.9001 237.809Z" fill="#45515C"/>
<path d="M32.0601 278.639C30.9901 278.639 30.1201 277.769 30.1201 276.699V265.869C30.1201 264.799 30.9901 263.929 32.0601 263.929H99.9001C100.97 263.929 101.84 264.799 101.84 265.869V276.699C101.84 277.769 100.97 278.639 99.9001 278.639H32.0601Z" fill="#C4C4C4"/>
<path d="M99.9001 264.429C100.69 264.429 101.34 265.079 101.34 265.869V276.699C101.34 277.489 100.69 278.139 99.9001 278.139H32.0601C31.2701 278.139 30.6201 277.489 30.6201 276.699V265.869C30.6201 265.079 31.2701 264.429 32.0601 264.429H99.9001ZM99.9001 263.429H32.0601C30.7101 263.429 29.6201 264.519 29.6201 265.869V276.699C29.6201 278.049 30.7101 279.139 32.0601 279.139H99.9001C101.25 279.139 102.34 278.049 102.34 276.699V265.869C102.34 264.529 101.25 263.429 99.9001 263.429Z" fill="#45515C"/>
<path d="M253.63 153.769V253.319" stroke="#45515C" stroke-miterlimit="10"/>
<path d="M190.17 254.409V226.019C190.17 213.599 200.24 203.539 212.65 203.539H253.63" stroke="#45515C" stroke-miterlimit="10"/>
<path d="M253.2 219.999C262.059 219.999 269.24 212.818 269.24 203.959C269.24 195.1 262.059 187.919 253.2 187.919C244.342 187.919 237.16 195.1 237.16 203.959C237.16 212.818 244.342 219.999 253.2 219.999Z" fill="#6499FC"/>
<path d="M253.2 188.419C261.77 188.419 268.74 195.389 268.74 203.959C268.74 212.529 261.77 219.499 253.2 219.499C244.63 219.499 237.66 212.529 237.66 203.959C237.66 195.389 244.63 188.419 253.2 188.419ZM253.2 187.419C244.06 187.419 236.66 194.829 236.66 203.959C236.66 213.099 244.07 220.499 253.2 220.499C262.33 220.499 269.74 213.089 269.74 203.959C269.74 194.819 262.33 187.419 253.2 187.419Z" fill="#45515C"/>
<path d="M253.2 270.459C262.059 270.459 269.24 263.278 269.24 254.419C269.24 245.56 262.059 238.379 253.2 238.379C244.342 238.379 237.16 245.56 237.16 254.419C237.16 263.278 244.342 270.459 253.2 270.459Z" fill="#6499FC"/>
<path d="M253.2 238.869C261.77 238.869 268.74 245.839 268.74 254.409C268.74 262.979 261.77 269.949 253.2 269.949C244.63 269.949 237.66 262.979 237.66 254.409C237.66 245.849 244.63 238.869 253.2 238.869ZM253.2 237.869C244.06 237.869 236.66 245.279 236.66 254.409C236.66 263.549 244.07 270.949 253.2 270.949C262.33 270.949 269.74 263.539 269.74 254.409C269.74 245.279 262.33 237.869 253.2 237.869Z" fill="#45515C"/>
<path d="M253.2 265.619C259.386 265.619 264.4 260.605 264.4 254.419C264.4 248.233 259.386 243.219 253.2 243.219C247.014 243.219 242 248.233 242 254.419C242 260.605 247.014 265.619 253.2 265.619Z" fill="#6499FC"/>
<path d="M253.2 243.719C259.1 243.719 263.9 248.519 263.9 254.419C263.9 260.319 259.1 265.119 253.2 265.119C247.3 265.119 242.5 260.319 242.5 254.419C242.5 248.519 247.3 243.719 253.2 243.719ZM253.2 242.719C246.74 242.719 241.5 247.959 241.5 254.419C241.5 260.879 246.74 266.119 253.2 266.119C259.66 266.119 264.9 260.879 264.9 254.419C264.89 247.959 259.66 242.719 253.2 242.719Z" fill="#45515C"/>
<path d="M316.94 265.619C323.126 265.619 328.14 260.605 328.14 254.419C328.14 248.233 323.126 243.219 316.94 243.219C310.755 243.219 305.74 248.233 305.74 254.419C305.74 260.605 310.755 265.619 316.94 265.619Z" fill="#6499FC"/>
<path d="M316.94 243.719C322.84 243.719 327.64 248.519 327.64 254.419C327.64 260.319 322.84 265.119 316.94 265.119C311.04 265.119 306.24 260.319 306.24 254.419C306.25 248.519 311.05 243.719 316.94 243.719ZM316.94 242.719C310.48 242.719 305.24 247.959 305.24 254.419C305.24 260.879 310.48 266.119 316.94 266.119C323.4 266.119 328.64 260.879 328.64 254.419C328.64 247.959 323.4 242.719 316.94 242.719Z" fill="#45515C"/>
<path d="M190.17 270.459C199.029 270.459 206.21 263.278 206.21 254.419C206.21 245.56 199.029 238.379 190.17 238.379C181.311 238.379 174.13 245.56 174.13 254.419C174.13 263.278 181.311 270.459 190.17 270.459Z" fill="#C4C4C4"/>
<path d="M190.17 238.869C198.74 238.869 205.71 245.839 205.71 254.409C205.71 262.979 198.74 269.949 190.17 269.949C181.6 269.949 174.63 262.979 174.63 254.409C174.63 245.849 181.6 238.869 190.17 238.869ZM190.17 237.869C181.03 237.869 173.63 245.279 173.63 254.409C173.63 263.549 181.04 270.949 190.17 270.949C199.31 270.949 206.71 263.539 206.71 254.409C206.71 245.279 199.3 237.869 190.17 237.869Z" fill="#45515C"/>
<path d="M386.25 171.629C395.109 171.629 402.29 164.448 402.29 155.589C402.29 146.73 395.109 139.549 386.25 139.549C377.391 139.549 370.21 146.73 370.21 155.589C370.21 164.448 377.391 171.629 386.25 171.629Z" fill="#6499FC"/>
<path d="M386.26 140.049C394.83 140.049 401.8 147.019 401.8 155.589C401.8 164.159 394.83 171.129 386.26 171.129C377.69 171.129 370.72 164.159 370.72 155.589C370.72 147.019 377.69 140.049 386.26 140.049ZM386.26 139.049C377.12 139.049 369.72 146.459 369.72 155.589C369.72 164.729 377.13 172.129 386.26 172.129C395.39 172.129 402.8 164.719 402.8 155.589C402.8 146.449 395.39 139.049 386.26 139.049Z" fill="#45515C"/>
<path d="M342.07 159.569C339.88 159.569 338.09 157.789 338.09 155.589C338.09 153.389 339.88 151.609 342.07 151.609C344.26 151.609 346.05 153.399 346.05 155.589C346.05 157.779 344.26 159.569 342.07 159.569Z" fill="#C4C4C4"/>
<path d="M342.07 152.109C343.99 152.109 345.55 153.669 345.55 155.589C345.55 157.509 343.99 159.069 342.07 159.069C340.15 159.069 338.59 157.509 338.59 155.589C338.59 153.669 340.15 152.109 342.07 152.109ZM342.07 151.109C339.6 151.109 337.59 153.119 337.59 155.589C337.59 158.059 339.6 160.069 342.07 160.069C344.54 160.069 346.55 158.059 346.55 155.589C346.55 153.119 344.54 151.109 342.07 151.109Z" fill="#45515C"/>
<path d="M305.99 159.569C303.8 159.569 302.01 157.789 302.01 155.589C302.01 153.389 303.8 151.609 305.99 151.609C308.18 151.609 309.97 153.399 309.97 155.589C309.97 157.779 308.18 159.569 305.99 159.569Z" fill="#C4C4C4"/>
<path d="M305.99 152.109C307.91 152.109 309.47 153.669 309.47 155.589C309.47 157.509 307.91 159.069 305.99 159.069C304.07 159.069 302.51 157.509 302.51 155.589C302.51 153.669 304.07 152.109 305.99 152.109ZM305.99 151.109C303.52 151.109 301.51 153.119 301.51 155.589C301.51 158.059 303.52 160.069 305.99 160.069C308.46 160.069 310.47 158.059 310.47 155.589C310.47 153.119 308.46 151.109 305.99 151.109Z" fill="#45515C"/>
<path d="M145.76 168.289H108.7C107.47 168.289 106.47 167.289 106.47 166.059V136.699C106.47 135.469 107.47 134.469 108.7 134.469H119.8C120.84 134.469 121.8 135.059 122.26 135.989L123.2 138.159H145.75C146.98 138.159 147.98 139.159 147.98 140.389V166.069C147.99 167.289 146.99 168.289 145.76 168.289Z" fill="#45515C"/>
<path d="M111.6 170.179C110.65 170.179 109.87 169.409 109.87 168.449V139.089C109.87 138.139 110.64 137.359 111.6 137.359H122.7C123.56 137.359 124.33 137.839 124.72 138.609L125.78 141.049H148.66C149.61 141.049 150.39 141.819 150.39 142.779V168.449C150.39 169.399 149.62 170.179 148.66 170.179H111.6Z" fill="#6499FC"/>
<path d="M122.7 137.859C123.36 137.859 123.96 138.219 124.26 138.809L125.19 140.949L125.45 141.549H126.11H148.66C149.34 141.549 149.89 142.099 149.89 142.779V168.459C149.89 169.139 149.34 169.689 148.66 169.689H111.6C110.92 169.689 110.37 169.139 110.37 168.459V139.099C110.37 138.419 110.92 137.869 111.6 137.869H122.7V137.859ZM122.7 136.859H111.6C110.37 136.859 109.37 137.859 109.37 139.089V168.449C109.37 169.679 110.37 170.679 111.6 170.679H148.66C149.89 170.679 150.89 169.679 150.89 168.449V142.769C150.89 141.539 149.89 140.539 148.66 140.539H126.1L125.16 138.369C124.69 137.449 123.74 136.859 122.7 136.859Z" fill="#45515C"/>
<path d="M207.51 168.289H170.45C169.22 168.289 168.22 167.289 168.22 166.059V136.699C168.22 135.469 169.22 134.469 170.45 134.469H181.55C182.59 134.469 183.55 135.059 184.01 135.989L184.95 138.159H207.5C208.73 138.159 209.73 139.159 209.73 140.389V166.069C209.74 167.289 208.74 168.289 207.51 168.289Z" fill="#45515C"/>
<path d="M173.35 170.179C172.4 170.179 171.62 169.409 171.62 168.449V139.089C171.62 138.139 172.39 137.359 173.35 137.359H184.45C185.31 137.359 186.08 137.839 186.47 138.609L187.53 141.049H210.41C211.36 141.049 212.14 141.819 212.14 142.779V168.449C212.14 169.399 211.37 170.179 210.41 170.179H173.35Z" fill="white"/>
<path d="M184.45 137.859C185.11 137.859 185.71 138.219 186.01 138.809L186.94 140.949L187.2 141.549H187.86H210.41C211.09 141.549 211.64 142.099 211.64 142.779V168.459C211.64 169.139 211.09 169.689 210.41 169.689H173.35C172.67 169.689 172.12 169.139 172.12 168.459V139.099C172.12 138.419 172.67 137.869 173.35 137.869H184.45V137.859ZM184.45 136.859H173.35C172.12 136.859 171.12 137.859 171.12 139.089V168.449C171.12 169.679 172.12 170.679 173.35 170.679H210.41C211.64 170.679 212.64 169.679 212.64 168.449V142.769C212.64 141.539 211.64 140.539 210.41 140.539H187.86L186.92 138.369C186.45 137.449 185.49 136.859 184.45 136.859Z" fill="#45515C"/>
<path d="M177.88 174.699C176.93 174.699 176.15 173.929 176.15 172.969V143.599C176.15 142.649 176.92 141.869 177.88 141.869H188.98C189.84 141.869 190.61 142.349 191 143.119L192.06 145.559H214.94C215.89 145.559 216.67 146.329 216.67 147.289V172.969C216.67 173.919 215.9 174.699 214.94 174.699H177.88Z" fill="white"/>
<path d="M188.98 142.389C189.64 142.389 190.24 142.749 190.54 143.339L191.47 145.479L191.73 146.079H192.39H214.94C215.62 146.079 216.17 146.629 216.17 147.309V172.989C216.17 173.669 215.62 174.219 214.94 174.219H177.88C177.2 174.219 176.65 173.669 176.65 172.989V143.629C176.65 142.949 177.2 142.399 177.88 142.399H188.98V142.389ZM188.98 141.389H177.88C176.65 141.389 175.65 142.389 175.65 143.619V172.979C175.65 174.209 176.65 175.209 177.88 175.209H214.94C216.17 175.209 217.17 174.209 217.17 172.979V147.299C217.17 146.069 216.17 145.069 214.94 145.069H192.39L191.45 142.899C190.97 141.979 190.02 141.389 188.98 141.389Z" fill="#45515C"/>
<path d="M182.4 179.229C181.45 179.229 180.67 178.459 180.67 177.499V148.139C180.67 147.189 181.44 146.409 182.4 146.409H193.5C194.36 146.409 195.13 146.889 195.52 147.659L196.58 150.099H219.46C220.41 150.099 221.19 150.869 221.19 151.829V177.499C221.19 178.449 220.42 179.229 219.46 179.229H182.4Z" fill="white"/>
<path d="M193.5 146.909C194.16 146.909 194.76 147.269 195.06 147.859L195.99 149.999L196.25 150.599H196.91H219.46C220.14 150.599 220.69 151.149 220.69 151.829V177.499C220.69 178.179 220.14 178.729 219.46 178.729H182.4C181.72 178.729 181.17 178.179 181.17 177.499V148.139C181.17 147.459 181.72 146.909 182.4 146.909H193.5ZM193.5 145.909H182.4C181.17 145.909 180.17 146.909 180.17 148.139V177.499C180.17 178.729 181.17 179.729 182.4 179.729H219.46C220.69 179.729 221.69 178.729 221.69 177.499V151.819C221.69 150.589 220.69 149.589 219.46 149.589H196.91L195.97 147.419C195.5 146.499 194.55 145.909 193.5 145.909Z" fill="#45515C"/>
<path d="M269.27 168.289H232.21C230.98 168.289 229.98 167.289 229.98 166.059V136.699C229.98 135.469 230.98 134.469 232.21 134.469H243.31C244.35 134.469 245.31 135.059 245.77 135.989L246.71 138.159H269.26C270.49 138.159 271.49 139.159 271.49 140.389V166.069C271.49 167.289 270.5 168.289 269.27 168.289Z" fill="#45515C"/>
<path d="M235.1 170.179C234.15 170.179 233.37 169.409 233.37 168.449V139.089C233.37 138.139 234.14 137.359 235.1 137.359H246.2C247.06 137.359 247.83 137.839 248.22 138.609L249.28 141.049H272.16C273.11 141.049 273.89 141.819 273.89 142.779V168.449C273.89 169.399 273.12 170.179 272.16 170.179H235.1Z" fill="#C4C4C4"/>
<path d="M246.2 137.859C246.86 137.859 247.46 138.219 247.76 138.809L248.69 140.949L248.95 141.549H249.61H272.16C272.84 141.549 273.39 142.099 273.39 142.779V168.459C273.39 169.139 272.84 169.689 272.16 169.689H235.1C234.42 169.689 233.87 169.139 233.87 168.459V139.099C233.87 138.419 234.42 137.869 235.1 137.869H246.2V137.859ZM246.2 136.859H235.1C233.87 136.859 232.87 137.859 232.87 139.089V168.449C232.87 169.679 233.87 170.679 235.1 170.679H272.16C273.39 170.679 274.39 169.679 274.39 168.449V142.769C274.39 141.539 273.39 140.539 272.16 140.539H249.61L248.67 138.369C248.2 137.449 247.25 136.859 246.2 136.859Z" fill="#45515C"/>
<path d="M291.06 48.719H320.97" stroke="#45515C" stroke-miterlimit="10" stroke-linecap="round" stroke-linejoin="round"/>
<path d="M291.06 74.609H310.47" stroke="#45515C" stroke-miterlimit="10" stroke-linecap="round" stroke-linejoin="round"/>
<path d="M291.06 100.509H326.7" stroke="#45515C" stroke-miterlimit="10" stroke-linecap="round" stroke-linejoin="round"/>
<path d="M344.18 48.719H346.77" stroke="white" stroke-miterlimit="10" stroke-linecap="round" stroke-linejoin="round"/>
<path d="M344.18 74.609H346.77" stroke="white" stroke-miterlimit="10" stroke-linecap="round" stroke-linejoin="round"/>
<path d="M344.18 100.509H346.77" stroke="white" stroke-miterlimit="10" stroke-linecap="round" stroke-linejoin="round"/>
<path d="M336.12 48.719H338.71" stroke="white" stroke-miterlimit="10" stroke-linecap="round" stroke-linejoin="round"/>
<path d="M336.12 74.609H338.71" stroke="white" stroke-miterlimit="10" stroke-linecap="round" stroke-linejoin="round"/>
<path d="M336.12 100.509H338.71" stroke="white" stroke-miterlimit="10" stroke-linecap="round" stroke-linejoin="round"/>
<path d="M190.17 265.609C184 265.609 178.97 260.589 178.97 254.409C178.97 248.239 183.99 243.209 190.17 243.209C196.34 243.209 201.37 248.229 201.37 254.409C201.37 260.589 196.34 265.609 190.17 265.609Z" fill="#C4C4C4"/>
<path d="M190.17 243.719C196.07 243.719 200.87 248.519 200.87 254.419C200.87 260.319 196.07 265.119 190.17 265.119C184.27 265.119 179.47 260.319 179.47 254.419C179.47 248.519 184.27 243.719 190.17 243.719ZM190.17 242.719C183.71 242.719 178.47 247.959 178.47 254.419C178.47 260.879 183.71 266.119 190.17 266.119C196.63 266.119 201.87 260.879 201.87 254.419C201.87 247.959 196.63 242.719 190.17 242.719Z" fill="#45515C"/>
<path d="M386.25 166.789C392.435 166.789 397.45 161.775 397.45 155.589C397.45 149.403 392.435 144.389 386.25 144.389C380.064 144.389 375.05 149.403 375.05 155.589C375.05 161.775 380.064 166.789 386.25 166.789Z" fill="#6499FC"/>
<path d="M386.26 144.889C392.16 144.889 396.96 149.689 396.96 155.589C396.96 161.489 392.16 166.289 386.26 166.289C380.36 166.289 375.56 161.489 375.56 155.589C375.56 149.689 380.36 144.889 386.26 144.889ZM386.26 143.889C379.8 143.889 374.56 149.129 374.56 155.589C374.56 162.049 379.8 167.289 386.26 167.289C392.72 167.289 397.96 162.049 397.96 155.589C397.95 149.129 392.71 143.889 386.26 143.889Z" fill="#45515C"/>
<path d="M36.3101 220.499H66.2201" stroke="#45515C" stroke-miterlimit="10" stroke-linecap="round" stroke-linejoin="round"/>
<path d="M36.3101 246.399H55.7101" stroke="#45515C" stroke-miterlimit="10" stroke-linecap="round" stroke-linejoin="round"/>
<path d="M36.3101 271.289H71.9501" stroke="#45515C" stroke-miterlimit="10" stroke-linecap="round" stroke-linejoin="round"/>
<defs>
<linearGradient id="paint0_linear_1187_722" x1="127.233" y1="69.127" x2="127.233" y2="158.383" gradientUnits="userSpaceOnUse">
<stop stop-color="#E5EAFF"/>
<stop offset="0.4462" stop-color="#E7ECFF"/>
<stop offset="0.6268" stop-color="#EEF1FF"/>
<stop offset="0.7592" stop-color="#FAFBFF"/>
<stop offset="0.7947" stop-color="white"/>
</linearGradient>
</defs>
</svg>
