<svg width="430" height="303" viewBox="0 0 430 303" fill="none" xmlns="http://www.w3.org/2000/svg">
<path d="M292.28 280.729H59.4401C57.4501 280.729 55.8101 279.15 55.8101 277.214V34.5418C55.8101 32.6147 57.4401 31.0265 59.4401 31.0265H292.27C294.26 31.0265 295.9 32.605 295.9 34.5418V277.214C295.9 279.141 294.27 280.729 292.28 280.729Z" fill="url(#paint0_linear_1187_563)"/>
<path d="M294.9 42.3085H56.3301V45.6882H294.9V42.3085Z" fill="#E5EAFF"/>
<path d="M292.28 31.9949C293.73 31.9949 294.91 33.1376 294.91 34.5418V277.214C294.91 278.618 293.73 279.76 292.28 279.76H59.4401C57.9901 279.76 56.8101 278.618 56.8101 277.214V34.5418C56.8101 33.1376 57.9901 31.9949 59.4401 31.9949H292.28V31.9949ZM292.28 31.0265H59.4401C57.4501 31.0265 55.8101 32.605 55.8101 34.5418V277.214C55.8101 279.141 57.4401 280.729 59.4401 280.729H292.27C294.26 280.729 295.9 279.15 295.9 277.214V34.5418C295.9 32.6147 294.27 31.0265 292.28 31.0265Z" fill="#45515C"/>
<path d="M55.8101 42.3084V34.5418C55.8101 32.6147 57.4401 31.0265 59.4401 31.0265H292.27C294.26 31.0265 295.9 32.605 295.9 34.5418V42.3084" fill="#45515C"/>
<path d="M137.3 64.0782H98.4299C97.7399 64.0782 97.1899 63.5358 97.1899 62.8773V59.0812C97.1899 58.413 97.7499 57.8804 98.4299 57.8804H137.3C137.99 57.8804 138.54 58.4227 138.54 59.0812V62.8773C138.54 63.5358 137.99 64.0782 137.3 64.0782Z" fill="#6499FC"/>
<path d="M97.1899 73.6652H157.36" stroke="#45515C" stroke-width="1.3865" stroke-miterlimit="10" stroke-linecap="round"/>
<path d="M97.1899 82.4779H161.81" stroke="#45515C" stroke-width="1.3865" stroke-miterlimit="10" stroke-linecap="round"/>
<path d="M97.1899 91.2904H152.03" stroke="#45515C" stroke-width="1.3865" stroke-miterlimit="10" stroke-linecap="round"/>
<path d="M97.1899 100.103H157.36" stroke="#45515C" stroke-width="1.3865" stroke-miterlimit="10" stroke-linecap="round"/>
<path d="M190.9 73.6652H195.35" stroke="#45515C" stroke-width="1.3865" stroke-miterlimit="10" stroke-linecap="round"/>
<path d="M190.9 82.4779H199.81" stroke="#45515C" stroke-width="1.3865" stroke-miterlimit="10" stroke-linecap="round"/>
<path d="M190.9 85.3928H199.81" stroke="#45515C" stroke-width="1.3865" stroke-miterlimit="10" stroke-linecap="round"/>
<path d="M190.9 91.2904H195.35" stroke="#45515C" stroke-width="1.3865" stroke-miterlimit="10" stroke-linecap="round"/>
<path d="M190.9 100.103H195.35" stroke="#45515C" stroke-width="1.3865" stroke-miterlimit="10" stroke-linecap="round"/>
<path d="M216.42 73.6652H220.87" stroke="#45515C" stroke-width="1.3865" stroke-miterlimit="10" stroke-linecap="round"/>
<path d="M216.42 82.4779H221.96" stroke="#6499FC" stroke-width="1.3865" stroke-miterlimit="10" stroke-linecap="round"/>
<path d="M216.42 91.2904H225.69" stroke="#45515C" stroke-width="1.3865" stroke-miterlimit="10" stroke-linecap="round"/>
<path d="M216.42 100.103H225.69" stroke="#45515C" stroke-width="1.3865" stroke-miterlimit="10" stroke-linecap="round"/>
<path d="M241.93 73.6652H246.38" stroke="#6499FC" stroke-width="1.3865" stroke-miterlimit="10" stroke-linecap="round"/>
<path d="M241.93 82.4779H246.38" stroke="#45515C" stroke-width="1.3865" stroke-miterlimit="10" stroke-linecap="round"/>
<path d="M241.93 91.2904H246.38" stroke="#45515C" stroke-width="1.3865" stroke-miterlimit="10" stroke-linecap="round"/>
<path d="M241.93 100.103H246.38" stroke="#45515C" stroke-width="1.3865" stroke-miterlimit="10" stroke-linecap="round"/>
<path d="M267.44 73.6652H271.9" stroke="#45515C" stroke-width="1.3865" stroke-miterlimit="10" stroke-linecap="round"/>
<path d="M267.44 82.4779H271.9" stroke="#45515C" stroke-width="1.3865" stroke-miterlimit="10" stroke-linecap="round"/>
<path d="M267.44 91.2904H276.35" stroke="#45515C" stroke-width="1.3865" stroke-miterlimit="10" stroke-linecap="round"/>
<path d="M267.44 100.103H271.9" stroke="#45515C" stroke-width="1.3865" stroke-miterlimit="10" stroke-linecap="round"/>
<path d="M80.2101 65.1725C82.607 65.1725 84.5501 63.2908 84.5501 60.9696C84.5501 58.6484 82.607 56.7667 80.2101 56.7667C77.8132 56.7667 75.8701 58.6484 75.8701 60.9696C75.8701 63.2908 77.8132 65.1725 80.2101 65.1725Z" stroke="#6499FC" stroke-width="1.3865" stroke-miterlimit="10" stroke-linecap="round"/>
<path d="M295.9 117.108H55.8101" stroke="#45515C" stroke-width="0.5" stroke-miterlimit="10"/>
<path d="M137.3 141.425H98.4299C97.7399 141.425 97.1899 140.882 97.1899 140.224V136.428C97.1899 135.759 97.7499 135.227 98.4299 135.227H137.3C137.99 135.227 138.54 135.769 138.54 136.428V140.224C138.54 140.882 137.99 141.425 137.3 141.425Z" fill="#6499FC"/>
<path d="M97.1899 151.012H157.36" stroke="#45515C" stroke-width="1.3865" stroke-miterlimit="10" stroke-linecap="round"/>
<path d="M97.1899 159.824H161.81" stroke="#45515C" stroke-width="1.3865" stroke-miterlimit="10" stroke-linecap="round"/>
<path d="M97.1899 168.646H152.03" stroke="#45515C" stroke-width="1.3865" stroke-miterlimit="10" stroke-linecap="round"/>
<path d="M190.9 151.012H195.35" stroke="#45515C" stroke-width="1.3865" stroke-miterlimit="10" stroke-linecap="round"/>
<path d="M190.9 159.824H199.81" stroke="#6499FC" stroke-width="1.3865" stroke-miterlimit="10" stroke-linecap="round"/>
<path d="M190.9 162.749H199.81" stroke="#6499FC" stroke-width="1.3865" stroke-miterlimit="10" stroke-linecap="round"/>
<path d="M190.9 168.646H195.35" stroke="#45515C" stroke-width="1.3865" stroke-miterlimit="10" stroke-linecap="round"/>
<path d="M190.9 177.459H195.35" stroke="#45515C" stroke-width="1.3865" stroke-miterlimit="10" stroke-linecap="round"/>
<path d="M216.42 151.012H220.87" stroke="#45515C" stroke-width="1.3865" stroke-miterlimit="10" stroke-linecap="round"/>
<path d="M216.42 159.824H221.96" stroke="#45515C" stroke-width="1.3865" stroke-miterlimit="10" stroke-linecap="round"/>
<path d="M216.42 168.646H225.69" stroke="#45515C" stroke-width="1.3865" stroke-miterlimit="10" stroke-linecap="round"/>
<path d="M216.42 177.459H225.69" stroke="#45515C" stroke-width="1.3865" stroke-miterlimit="10" stroke-linecap="round"/>
<path d="M241.93 151.012H246.38" stroke="#45515C" stroke-width="1.3865" stroke-miterlimit="10" stroke-linecap="round"/>
<path d="M241.93 159.824H246.38" stroke="#45515C" stroke-width="1.3865" stroke-miterlimit="10" stroke-linecap="round"/>
<path d="M241.93 168.646H246.38" stroke="#45515C" stroke-width="1.3865" stroke-miterlimit="10" stroke-linecap="round"/>
<path d="M241.93 177.459H246.38" stroke="#45515C" stroke-width="1.3865" stroke-miterlimit="10" stroke-linecap="round"/>
<path d="M267.44 151.012H271.9" stroke="#45515C" stroke-width="1.3865" stroke-miterlimit="10" stroke-linecap="round"/>
<path d="M267.44 159.824H271.9" stroke="#45515C" stroke-width="1.3865" stroke-miterlimit="10" stroke-linecap="round"/>
<path d="M267.44 168.646H276.35" stroke="#6499FC" stroke-width="1.3865" stroke-miterlimit="10" stroke-linecap="round"/>
<path d="M267.44 177.459H271.9" stroke="#45515C" stroke-width="1.3865" stroke-miterlimit="10" stroke-linecap="round"/>
<path d="M80.2101 142.529C82.607 142.529 84.5501 140.647 84.5501 138.326C84.5501 136.004 82.607 134.123 80.2101 134.123C77.8132 134.123 75.8701 136.004 75.8701 138.326C75.8701 140.647 77.8132 142.529 80.2101 142.529Z" stroke="#6499FC" stroke-width="1.3865" stroke-miterlimit="10" stroke-linecap="round"/>
<path d="M295.9 194.464H55.8101" stroke="#45515C" stroke-width="0.5" stroke-miterlimit="10"/>
<path d="M137.3 218.78H98.4299C97.7399 218.78 97.1899 218.238 97.1899 217.579V213.783C97.1899 213.115 97.7499 212.583 98.4299 212.583H137.3C137.99 212.583 138.54 213.125 138.54 213.783V217.579C138.54 218.238 137.99 218.78 137.3 218.78Z" fill="#6499FC"/>
<path d="M97.1899 245.992H152.03" stroke="#45515C" stroke-width="1.3865" stroke-miterlimit="10" stroke-linecap="round"/>
<path d="M97.1899 254.805H157.36" stroke="#45515C" stroke-width="1.3865" stroke-miterlimit="10" stroke-linecap="round"/>
<path d="M190.9 228.367H195.35" stroke="#45515C" stroke-width="1.3865" stroke-miterlimit="10" stroke-linecap="round"/>
<path d="M190.9 237.18H199.81" stroke="#45515C" stroke-width="1.3865" stroke-miterlimit="10" stroke-linecap="round"/>
<path d="M190.9 240.095H199.81" stroke="#45515C" stroke-width="1.3865" stroke-miterlimit="10" stroke-linecap="round"/>
<path d="M190.9 245.992H195.35" stroke="#6499FC" stroke-width="1.3865" stroke-miterlimit="10" stroke-linecap="round"/>
<path d="M190.9 254.805H195.35" stroke="#45515C" stroke-width="1.3865" stroke-miterlimit="10" stroke-linecap="round"/>
<path d="M216.42 228.367H220.87" stroke="#45515C" stroke-width="1.3865" stroke-miterlimit="10" stroke-linecap="round"/>
<path d="M216.42 237.18H221.96" stroke="#45515C" stroke-width="1.3865" stroke-miterlimit="10" stroke-linecap="round"/>
<path d="M216.42 245.992H225.69" stroke="#45515C" stroke-width="1.3865" stroke-miterlimit="10" stroke-linecap="round"/>
<path d="M216.42 254.805H225.69" stroke="#45515C" stroke-width="1.3865" stroke-miterlimit="10" stroke-linecap="round"/>
<path d="M241.93 228.367H246.38" stroke="#45515C" stroke-width="1.3865" stroke-miterlimit="10" stroke-linecap="round"/>
<path d="M241.93 237.18H246.38" stroke="#45515C" stroke-width="1.3865" stroke-miterlimit="10" stroke-linecap="round"/>
<path d="M241.93 245.992H246.38" stroke="#45515C" stroke-width="1.3865" stroke-miterlimit="10" stroke-linecap="round"/>
<path d="M241.93 254.805H246.38" stroke="#45515C" stroke-width="1.3865" stroke-miterlimit="10" stroke-linecap="round"/>
<path d="M267.44 228.367H271.9" stroke="#45515C" stroke-width="1.3865" stroke-miterlimit="10" stroke-linecap="round"/>
<path d="M267.44 237.18H271.9" stroke="#45515C" stroke-width="1.3865" stroke-miterlimit="10" stroke-linecap="round"/>
<path d="M267.44 245.992H276.35" stroke="#45515C" stroke-width="1.3865" stroke-miterlimit="10" stroke-linecap="round"/>
<path d="M267.44 254.805H271.9" stroke="#45515C" stroke-width="1.3865" stroke-miterlimit="10" stroke-linecap="round"/>
<path d="M80.2101 219.875C82.607 219.875 84.5501 217.993 84.5501 215.672C84.5501 213.351 82.607 211.469 80.2101 211.469C77.8132 211.469 75.8701 213.351 75.8701 215.672C75.8701 217.993 77.8132 219.875 80.2101 219.875Z" stroke="#6499FC" stroke-width="1.3865" stroke-miterlimit="10" stroke-linecap="round"/>
<g opacity="0.2">
<path opacity="0.2" d="M400.34 134.133H271.96C270.6 134.133 269.5 133.067 269.5 131.75V65.5504C269.5 64.2333 270.6 63.1681 271.96 63.1681H400.34C401.7 63.1681 402.8 64.2333 402.8 65.5504V131.75C402.8 133.067 401.7 134.133 400.34 134.133Z" fill="#2C71F0"/>
</g>
<path d="M267.96 130.258C266.88 130.258 266 129.406 266 128.36V62.1508C266 61.1049 266.88 60.2527 267.96 60.2527H395.21C396.29 60.2527 397.17 61.1049 397.17 62.1508V128.351C397.17 129.397 396.29 130.249 395.21 130.249H267.96V130.258Z" fill="#6499FC"/>
<path d="M395.21 60.7374C396.01 60.7374 396.67 61.3669 396.67 62.1513V128.351C396.67 129.126 396.02 129.765 395.21 129.765H267.96C267.16 129.765 266.5 129.136 266.5 128.351V62.1513C266.5 61.3766 267.15 60.7374 267.96 60.7374H395.21ZM395.21 59.769H267.96C266.6 59.769 265.5 60.8343 265.5 62.1513V128.351C265.5 129.668 266.6 130.734 267.96 130.734H395.21C396.57 130.734 397.67 129.668 397.67 128.351V62.1513C397.67 60.844 396.57 59.769 395.21 59.769Z" fill="#45515C"/>
<path d="M343.94 80.6574H305.07C304.38 80.6574 303.83 80.1151 303.83 79.4566V75.6604C303.83 74.9922 304.39 74.4596 305.07 74.4596H343.94C344.63 74.4596 345.18 75.0019 345.18 75.6604V79.4566C345.18 80.1151 344.62 80.6574 343.94 80.6574Z" fill="#E5EAFF"/>
<path d="M303.83 90.2444H364" stroke="#E5EAFF" stroke-miterlimit="10" stroke-linecap="round" stroke-linejoin="round"/>
<path d="M303.83 99.0571H368.44" stroke="#E5EAFF" stroke-miterlimit="10" stroke-linecap="round" stroke-linejoin="round"/>
<path d="M303.83 107.87H358.67" stroke="#E5EAFF" stroke-miterlimit="10" stroke-linecap="round" stroke-linejoin="round"/>
<path d="M303.83 116.682H364" stroke="#E5EAFF" stroke-miterlimit="10" stroke-linecap="round" stroke-linejoin="round"/>
<path d="M286.85 74.3143C288.69 74.3143 290.19 75.7669 290.19 77.5488C290.19 79.3307 288.69 80.7833 286.85 80.7833C285.01 80.7833 283.51 79.3307 283.51 77.5488C283.5 75.7669 285 74.3143 286.85 74.3143ZM286.85 73.3459C284.45 73.3459 282.51 75.2246 282.51 77.5488C282.51 79.873 284.45 81.7517 286.85 81.7517C289.25 81.7517 291.19 79.873 291.19 77.5488C291.19 75.2343 289.24 73.3459 286.85 73.3459Z" fill="#E5EAFF"/>
<g opacity="0.2">
<path opacity="0.2" d="M159.35 240.56H30.9698C29.6098 240.56 28.5098 239.494 28.5098 238.177V171.977C28.5098 170.66 29.6098 169.595 30.9698 169.595H159.35C160.71 169.595 161.81 170.66 161.81 171.977V238.177C161.81 239.494 160.71 240.56 159.35 240.56Z" fill="#2C71F0"/>
</g>
<path d="M26.9698 236.686C25.8898 236.686 25.0098 235.833 25.0098 234.787V168.578C25.0098 167.532 25.8898 166.68 26.9698 166.68H154.22C155.3 166.68 156.18 167.532 156.18 168.578V234.787C156.18 235.833 155.3 236.686 154.22 236.686H26.9698Z" fill="#6499FC"/>
<path d="M154.22 167.165C155.02 167.165 155.68 167.794 155.68 168.578V234.778C155.68 235.553 155.03 236.192 154.22 236.192H26.9698C26.1698 236.192 25.5098 235.563 25.5098 234.778V168.578C25.5098 167.804 26.1598 167.165 26.9698 167.165H154.22V167.165ZM154.22 166.196H26.9698C25.6098 166.196 24.5098 167.261 24.5098 168.578V234.778C24.5098 236.095 25.6098 237.161 26.9698 237.161H154.22C155.58 237.161 156.68 236.095 156.68 234.778V168.578C156.68 167.271 155.58 166.196 154.22 166.196Z" fill="#45515C"/>
<path d="M102.95 187.084H64.0798C63.3898 187.084 62.8398 186.542 62.8398 185.884V182.088C62.8398 181.419 63.3998 180.887 64.0798 180.887H102.95C103.64 180.887 104.19 181.429 104.19 182.088V185.884C104.19 186.542 103.63 187.084 102.95 187.084Z" fill="#E5EAFF"/>
<path d="M62.8398 196.672H123.01" stroke="#E5EAFF" stroke-miterlimit="10" stroke-linecap="round" stroke-linejoin="round"/>
<path d="M62.8398 205.484H127.45" stroke="#E5EAFF" stroke-miterlimit="10" stroke-linecap="round" stroke-linejoin="round"/>
<path d="M62.8398 214.297H117.68" stroke="#E5EAFF" stroke-miterlimit="10" stroke-linecap="round" stroke-linejoin="round"/>
<path d="M62.8398 223.109H123.01" stroke="#E5EAFF" stroke-miterlimit="10" stroke-linecap="round" stroke-linejoin="round"/>
<path d="M45.8498 180.741C47.6898 180.741 49.1898 182.194 49.1898 183.976C49.1898 185.758 47.6898 187.21 45.8498 187.21C44.0098 187.21 42.5098 185.758 42.5098 183.976C42.5098 182.194 44.0098 180.741 45.8498 180.741ZM45.8498 179.773C43.4498 179.773 41.5098 181.652 41.5098 183.976C41.5098 186.3 43.4498 188.179 45.8498 188.179C48.2498 188.179 50.1898 186.3 50.1898 183.976C50.1998 181.661 48.2498 179.773 45.8498 179.773Z" fill="#E5EAFF"/>
<path d="M363.37 277.494L363.58 279.741L354.29 285.193L352.47 283.925L363.37 277.494Z" fill="#45515C"/>
<path d="M306.55 192.548L300.496 196.122L319.437 226.21L325.491 222.636L306.55 192.548Z" fill="#45515C"/>
<path d="M349.02 283.111L304.08 211.73C303.36 210.587 303.73 209.086 304.92 208.389L315.82 201.959C317 201.262 318.55 201.62 319.27 202.772L364.21 274.153C364.93 275.296 364.56 276.797 363.37 277.494L352.47 283.924C351.29 284.622 349.74 284.263 349.02 283.111Z" fill="#6499FC"/>
<path d="M351.17 283.798C350.46 283.798 349.82 283.45 349.45 282.869L304.51 211.488C303.93 210.568 304.23 209.367 305.18 208.815L316.08 202.385C316.4 202.201 316.76 202.104 317.12 202.104C317.83 202.104 318.47 202.453 318.84 203.034L363.78 274.415C364.36 275.334 364.06 276.535 363.11 277.087L352.21 283.517C351.9 283.701 351.54 283.798 351.17 283.798Z" fill="#C4C4C4"/>
<path d="M317.13 202.569C317.66 202.569 318.15 202.831 318.42 203.276L363.36 274.657C363.79 275.345 363.57 276.245 362.86 276.671L351.96 283.102C351.72 283.237 351.45 283.315 351.18 283.315C350.65 283.315 350.16 283.053 349.89 282.608L304.95 211.227C304.52 210.539 304.74 209.639 305.45 209.213L316.35 202.782C316.58 202.647 316.85 202.569 317.13 202.569ZM317.13 201.601C316.68 201.601 316.23 201.717 315.83 201.959L304.93 208.389C303.75 209.087 303.37 210.588 304.09 211.73L349.03 283.111C349.5 283.867 350.33 284.273 351.18 284.273C351.63 284.273 352.08 284.157 352.48 283.915L363.38 277.485C364.56 276.788 364.94 275.287 364.22 274.144L319.28 202.763C318.8 202.017 317.97 201.601 317.13 201.601Z" fill="#45515C"/>
<path d="M282.18 208.496C311.794 208.496 335.8 185.248 335.8 156.57C335.8 127.893 311.794 104.645 282.18 104.645C252.567 104.645 228.56 127.893 228.56 156.57C228.56 185.248 252.567 208.496 282.18 208.496Z" fill="#6499FC"/>
<path d="M282.18 208.011C252.89 208.011 229.06 184.934 229.06 156.57C229.06 128.205 252.89 105.128 282.18 105.128C311.47 105.128 335.3 128.205 335.3 156.57C335.3 184.934 311.47 208.011 282.18 208.011Z" fill="#C4C4C4"/>
<path d="M282.18 105.613C311.19 105.613 334.8 128.477 334.8 156.57C334.8 184.664 311.19 207.528 282.18 207.528C253.17 207.528 229.56 184.664 229.56 156.57C229.56 128.477 253.17 105.613 282.18 105.613ZM282.18 104.645C252.57 104.645 228.56 127.896 228.56 156.57C228.56 185.245 252.57 208.496 282.18 208.496C311.79 208.496 335.8 185.245 335.8 156.57C335.8 127.896 311.8 104.645 282.18 104.645Z" fill="#45515C"/>
<path d="M282.18 203.383C308.878 203.383 330.52 182.424 330.52 156.57C330.52 130.716 308.878 109.758 282.18 109.758C255.483 109.758 233.84 130.716 233.84 156.57C233.84 182.424 255.483 203.383 282.18 203.383Z" stroke="#45515C" stroke-miterlimit="10"/>
<path d="M282.18 199.664C306.757 199.664 326.68 180.37 326.68 156.57C326.68 132.77 306.757 113.476 282.18 113.476C257.604 113.476 237.68 132.77 237.68 156.57C237.68 180.37 257.604 199.664 282.18 199.664Z" fill="white"/>
<path d="M282.18 114.455C306.16 114.455 325.68 133.348 325.68 156.58C325.68 179.812 306.17 198.706 282.18 198.706C258.19 198.706 238.68 179.812 238.68 156.58C238.68 133.348 258.2 114.455 282.18 114.455ZM282.18 113.486C257.61 113.486 237.68 132.777 237.68 156.58C237.68 180.384 257.6 199.674 282.18 199.674C306.76 199.674 326.68 180.384 326.68 156.58C326.68 132.777 306.76 113.486 282.18 113.486Z" fill="#45515C"/>
<path d="M248.53 156.813C248.53 156.813 280.74 194.716 316.8 156.813C316.8 156.813 284.59 118.91 248.53 156.813Z" fill="white"/>
<path d="M248.53 156.813C248.53 156.813 280.74 194.716 316.8 156.813C316.8 156.813 284.59 118.91 248.53 156.813Z" stroke="#45515C" stroke-miterlimit="10"/>
<path d="M282.51 140.921C291.56 140.921 298.92 148.049 298.92 156.813C298.92 165.577 291.56 172.704 282.51 172.704C273.46 172.704 266.1 165.577 266.1 156.813C266.1 148.049 273.46 140.921 282.51 140.921ZM282.51 139.953C272.9 139.953 265.1 147.497 265.1 156.813C265.1 166.119 272.89 173.673 282.51 173.673C292.12 173.673 299.92 166.129 299.92 156.813C299.92 147.497 292.12 139.953 282.51 139.953Z" fill="#45515C"/>
<path d="M282.51 169.809C289.922 169.809 295.93 163.99 295.93 156.813C295.93 149.635 289.922 143.817 282.51 143.817C275.099 143.817 269.09 149.635 269.09 156.813C269.09 163.99 275.099 169.809 282.51 169.809Z" fill="#6499FC"/>
<defs>
<linearGradient id="paint0_linear_1187_563" x1="175.859" y1="280.726" x2="175.859" y2="31.0307" gradientUnits="userSpaceOnUse">
<stop stop-color="#E5EAFF"/>
<stop offset="0.4462" stop-color="#E7ECFF"/>
<stop offset="0.6268" stop-color="#EEF1FF"/>
<stop offset="0.7592" stop-color="#FAFBFF"/>
<stop offset="0.7947" stop-color="white"/>
</linearGradient>
</defs>
</svg>
