<svg width="430" height="313" viewBox="0 0 430 313" fill="none" xmlns="http://www.w3.org/2000/svg">
<path d="M183.12 42.819C166.95 42.819 153.83 55.929 153.83 72.109C153.83 82.749 159.51 92.069 168 97.199C168 97.199 168 97.199 168.01 97.199C168.51 97.499 169.02 97.779 169.53 98.049C169.65 98.109 169.77 98.179 169.9 98.239C170.34 98.459 170.79 98.679 171.25 98.879C171.35 98.919 171.44 98.969 171.54 99.009C172.09 99.249 172.64 99.469 173.21 99.669C173.3 99.699 173.39 99.729 173.49 99.759C173.96 99.919 174.44 100.079 174.92 100.219C175.07 100.259 175.23 100.309 175.38 100.349C175.88 100.489 176.38 100.609 176.89 100.719C176.97 100.739 177.05 100.759 177.14 100.779C177.72 100.899 178.32 100.999 178.91 101.089C179.06 101.109 179.21 101.129 179.37 101.149C179.83 101.209 180.3 101.259 180.77 101.299C180.94 101.309 181.12 101.329 181.29 101.339C181.9 101.379 182.51 101.399 183.14 101.399C183.77 101.399 184.37 101.369 184.99 101.339C185.16 101.329 185.34 101.309 185.51 101.299C185.98 101.259 186.45 101.209 186.91 101.149C187.06 101.129 187.22 101.109 187.37 101.089C187.97 100.999 188.56 100.899 189.14 100.779C189.22 100.759 189.3 100.739 189.39 100.719C189.9 100.609 190.4 100.479 190.9 100.349C191.05 100.309 191.21 100.259 191.36 100.219C191.84 100.079 192.32 99.929 192.79 99.759C192.88 99.729 192.97 99.699 193.06 99.669C193.62 99.469 194.18 99.249 194.73 99.009C194.83 98.969 194.92 98.919 195.01 98.879C195.47 98.679 195.92 98.459 196.36 98.239C196.48 98.179 196.6 98.119 196.72 98.049C197.24 97.779 197.75 97.499 198.25 97.199C206.74 92.069 212.42 82.759 212.42 72.109C212.41 55.929 199.3 42.819 183.12 42.819Z" fill="#E5EAFF"/>
<path d="M183.12 221.969C166.95 221.969 153.83 235.079 153.83 251.259C153.83 261.899 159.51 271.219 168 276.349C168.5 276.649 169.01 276.929 169.53 277.209C169.65 277.269 169.77 277.339 169.9 277.399C170.34 277.619 170.79 277.839 171.25 278.039C171.35 278.079 171.44 278.129 171.54 278.169C172.09 278.409 172.64 278.629 173.21 278.829C173.3 278.859 173.39 278.889 173.49 278.919C173.96 279.079 174.44 279.239 174.92 279.379C175.07 279.419 175.23 279.469 175.38 279.509C175.88 279.649 176.38 279.769 176.89 279.879C176.97 279.899 177.05 279.919 177.14 279.939C177.72 280.059 178.32 280.159 178.91 280.249C179.06 280.269 179.21 280.289 179.37 280.309C179.83 280.369 180.3 280.419 180.77 280.459C180.94 280.469 181.12 280.489 181.29 280.499C181.9 280.539 182.51 280.559 183.14 280.559C183.77 280.559 184.37 280.529 184.99 280.499C185.16 280.489 185.34 280.469 185.51 280.459C185.98 280.419 186.45 280.369 186.91 280.309C187.06 280.289 187.22 280.269 187.37 280.249C187.97 280.159 188.56 280.059 189.14 279.939C189.22 279.919 189.3 279.899 189.39 279.879C189.9 279.769 190.4 279.639 190.9 279.509C191.05 279.469 191.21 279.419 191.36 279.379C191.84 279.239 192.32 279.089 192.79 278.919C192.88 278.889 192.97 278.859 193.06 278.829C193.62 278.629 194.18 278.409 194.73 278.169C194.83 278.129 194.92 278.079 195.01 278.039C195.47 277.839 195.92 277.619 196.36 277.399C196.48 277.339 196.6 277.279 196.72 277.209C206.05 272.309 212.42 262.539 212.42 251.269C212.41 235.079 199.3 221.969 183.12 221.969Z" fill="#E5EAFF"/>
<path d="M390.01 71.009C390.01 54.839 376.9 41.719 360.72 41.719C344.55 41.719 331.43 54.829 331.43 71.009C331.43 81.649 337.11 90.969 345.6 96.099C346.1 96.399 346.61 96.679 347.13 96.959C347.25 97.019 347.37 97.079 347.49 97.149C347.93 97.379 348.39 97.589 348.84 97.789C348.93 97.829 349.03 97.879 349.12 97.919C349.67 98.159 350.22 98.379 350.79 98.579C350.88 98.609 350.97 98.639 351.06 98.669C351.53 98.839 352.01 98.989 352.49 99.129C352.64 99.169 352.8 99.219 352.95 99.259C353.45 99.399 353.95 99.519 354.46 99.629C354.54 99.649 354.62 99.669 354.71 99.689C355.29 99.809 355.89 99.909 356.48 99.999C356.63 100.019 356.78 100.039 356.94 100.059C357.4 100.119 357.87 100.169 358.34 100.209C358.51 100.219 358.69 100.239 358.86 100.249C359.47 100.289 360.08 100.309 360.71 100.309C361.34 100.309 361.94 100.279 362.56 100.249C362.73 100.239 362.91 100.219 363.08 100.209C363.55 100.169 364.02 100.119 364.48 100.059C364.63 100.039 364.78 100.019 364.93 99.999C365.53 99.909 366.12 99.809 366.71 99.689C366.79 99.669 366.87 99.649 366.95 99.629C367.46 99.519 367.97 99.389 368.47 99.259C368.62 99.219 368.78 99.169 368.93 99.129C369.41 98.989 369.89 98.839 370.37 98.669C370.46 98.639 370.55 98.609 370.64 98.579C371.21 98.379 371.76 98.159 372.31 97.919C372.4 97.879 372.5 97.839 372.59 97.789C373.05 97.589 373.5 97.369 373.94 97.149C374.06 97.089 374.18 97.029 374.3 96.959C374.82 96.689 375.33 96.409 375.83 96.099C384.33 90.959 390.01 81.649 390.01 71.009Z" fill="#E5EAFF"/>
<path d="M29.5403 102.769C35.3558 102.769 40.0703 98.0546 40.0703 92.239C40.0703 86.4235 35.3558 81.709 29.5403 81.709C23.7247 81.709 19.0103 86.4235 19.0103 92.239C19.0103 98.0546 23.7247 102.769 29.5403 102.769Z" fill="#6499FC" stroke="#45515C" stroke-miterlimit="10"/>
<path d="M125.12 111.399H18.2202" stroke="#45515C" stroke-width="0.5" stroke-miterlimit="10" stroke-linecap="round"/>
<path d="M123.54 89.759H56.5602C55.6902 89.759 54.9902 89.059 54.9902 88.189V87.579C54.9902 86.709 55.6902 86.009 56.5602 86.009H123.55C124.42 86.009 125.12 86.709 125.12 87.579V88.189C125.12 89.049 124.41 89.759 123.54 89.759Z" fill="#45515C"/>
<path d="M101.21 100.289H56.5602C55.6902 100.289 54.9902 99.589 54.9902 98.719V98.109C54.9902 97.239 55.6902 96.539 56.5602 96.539H101.21C102.08 96.539 102.78 97.239 102.78 98.109V98.719C102.78 99.589 102.08 100.289 101.21 100.289Z" fill="#45515C"/>
<path d="M316.2 150.599C322.016 150.599 326.73 145.885 326.73 140.069C326.73 134.253 322.016 129.539 316.2 129.539C310.385 129.539 305.67 134.253 305.67 140.069C305.67 145.885 310.385 150.599 316.2 150.599Z" fill="white" stroke="#45515C" stroke-miterlimit="10"/>
<path d="M411.78 159.229H304.88" stroke="#45515C" stroke-width="0.5" stroke-miterlimit="10" stroke-linecap="round"/>
<path d="M410.2 137.589H343.21C342.34 137.589 341.64 136.889 341.64 136.019V135.409C341.64 134.539 342.34 133.839 343.21 133.839H410.2C411.07 133.839 411.77 134.539 411.77 135.409V136.019C411.78 136.879 411.07 137.589 410.2 137.589Z" fill="#45515C"/>
<path d="M387.87 148.119H343.22C342.35 148.119 341.65 147.419 341.65 146.549V145.939C341.65 145.069 342.35 144.369 343.22 144.369H387.87C388.74 144.369 389.44 145.069 389.44 145.939V146.549C389.44 147.419 388.74 148.119 387.87 148.119Z" fill="#45515C"/>
<path d="M311.65 137.589L316.2 142.739L333.16 126.869" stroke="#6499FC" stroke-width="2" stroke-miterlimit="10" stroke-linecap="round" stroke-linejoin="round"/>
<path d="M316.2 195.429C322.016 195.429 326.73 190.715 326.73 184.899C326.73 179.083 322.016 174.369 316.2 174.369C310.385 174.369 305.67 179.083 305.67 184.899C305.67 190.715 310.385 195.429 316.2 195.429Z" fill="white" stroke="#45515C" stroke-miterlimit="10"/>
<path d="M410.2 182.419H343.21C342.34 182.419 341.64 181.719 341.64 180.849V180.239C341.64 179.369 342.34 178.669 343.21 178.669H410.2C411.07 178.669 411.77 179.369 411.77 180.239V180.849C411.78 181.719 411.07 182.419 410.2 182.419Z" fill="#45515C"/>
<path d="M387.87 192.949H343.22C342.35 192.949 341.65 192.249 341.65 191.379V190.769C341.65 189.899 342.35 189.199 343.22 189.199H387.87C388.74 189.199 389.44 189.899 389.44 190.769V191.379C389.44 192.249 388.74 192.949 387.87 192.949Z" fill="#45515C"/>
<path d="M311.65 182.419L316.2 187.569L333.16 171.709" stroke="#6499FC" stroke-width="2" stroke-miterlimit="10" stroke-linecap="round" stroke-linejoin="round"/>
<path d="M411.78 204.609H304.88" stroke="#45515C" stroke-width="0.5" stroke-miterlimit="10" stroke-linecap="round"/>
<path d="M263.31 40.139H250.14C244.38 40.139 239.71 44.809 239.71 50.569V69.579" stroke="#45515C" stroke-miterlimit="10"/>
<path d="M263.31 47.309C259.35 47.309 256.13 44.089 256.13 40.139C256.13 36.179 259.35 32.959 263.31 32.959C267.27 32.959 270.48 36.179 270.48 40.139C270.48 44.089 267.26 47.309 263.31 47.309Z" fill="#C4C4C4"/>
<path d="M263.31 33.459C266.99 33.459 269.99 36.449 269.99 40.139C269.99 43.829 267 46.819 263.31 46.819C259.62 46.819 256.63 43.829 256.63 40.139C256.63 36.449 259.63 33.459 263.31 33.459ZM263.31 32.459C259.07 32.459 255.63 35.899 255.63 40.139C255.63 44.379 259.07 47.819 263.31 47.819C267.55 47.819 270.99 44.379 270.99 40.139C270.99 35.899 267.55 32.459 263.31 32.459Z" fill="#45515C"/>
<path d="M183.29 69.519H339.26" stroke="#45515C" stroke-miterlimit="10"/>
<path d="M263.31 98.959H250.14C244.38 98.959 239.71 94.289 239.71 88.529V69.519" stroke="#45515C" stroke-miterlimit="10"/>
<path d="M239.9 76.889C235.94 76.889 232.72 73.669 232.72 69.709C232.72 65.749 235.94 62.539 239.9 62.539C243.86 62.539 247.07 65.759 247.07 69.709C247.07 73.669 243.85 76.889 239.9 76.889Z" fill="#6499FC"/>
<path d="M239.9 63.039C243.58 63.039 246.58 66.029 246.58 69.719C246.58 73.409 243.59 76.399 239.9 76.399C236.21 76.399 233.22 73.409 233.22 69.719C233.22 66.029 236.21 63.039 239.9 63.039ZM239.9 62.039C235.66 62.039 232.22 65.479 232.22 69.719C232.22 73.959 235.66 77.399 239.9 77.399C244.14 77.399 247.58 73.959 247.58 69.719C247.58 65.479 244.13 62.039 239.9 62.039Z" fill="#45515C"/>
<path d="M286.25 76.889C282.29 76.889 279.07 73.669 279.07 69.709C279.07 65.749 282.29 62.539 286.25 62.539C290.21 62.539 293.42 65.759 293.42 69.709C293.42 73.669 290.2 76.889 286.25 76.889Z" fill="#6499FC"/>
<path d="M286.25 63.039C289.93 63.039 292.93 66.029 292.93 69.719C292.93 73.409 289.94 76.399 286.25 76.399C282.56 76.399 279.57 73.409 279.57 69.719C279.57 66.029 282.57 63.039 286.25 63.039ZM286.25 62.039C282.01 62.039 278.57 65.479 278.57 69.719C278.57 73.959 282.01 77.399 286.25 77.399C290.49 77.399 293.93 73.959 293.93 69.719C293.93 65.479 290.49 62.039 286.25 62.039Z" fill="#45515C"/>
<path d="M263.31 106.139C259.35 106.139 256.13 102.919 256.13 98.969C256.13 95.009 259.35 91.789 263.31 91.789C267.27 91.789 270.48 95.009 270.48 98.969C270.48 102.919 267.26 106.139 263.31 106.139Z" fill="#C4C4C4"/>
<path d="M263.31 92.289C266.99 92.289 269.99 95.279 269.99 98.969C269.99 102.659 267 105.649 263.31 105.649C259.62 105.649 256.63 102.659 256.63 98.969C256.63 95.279 259.63 92.289 263.31 92.289ZM263.31 91.289C259.07 91.289 255.63 94.729 255.63 98.969C255.63 103.209 259.07 106.649 263.31 106.649C267.55 106.649 270.99 103.209 270.99 98.969C270.99 94.729 267.55 91.289 263.31 91.289Z" fill="#45515C"/>
<path d="M222.69 184.759V171.589C222.69 165.829 218.02 161.159 212.26 161.159H180.74" stroke="#45515C" stroke-miterlimit="10"/>
<path d="M222.69 191.929C218.73 191.929 215.51 188.709 215.51 184.749C215.51 180.789 218.73 177.579 222.69 177.579C226.65 177.579 229.86 180.799 229.86 184.749C229.86 188.709 226.64 191.929 222.69 191.929Z" fill="#C4C4C4"/>
<path d="M222.69 178.079C226.37 178.079 229.37 181.069 229.37 184.759C229.37 188.449 226.38 191.439 222.69 191.439C219.01 191.439 216.01 188.449 216.01 184.759C216.01 181.069 219 178.079 222.69 178.079ZM222.69 177.079C218.45 177.079 215.01 180.519 215.01 184.759C215.01 188.999 218.45 192.439 222.69 192.439C226.93 192.439 230.37 188.999 230.37 184.759C230.37 180.519 226.92 177.079 222.69 177.079Z" fill="#45515C"/>
<path d="M248.95 184.759V171.589C248.95 165.829 244.28 161.159 238.52 161.159H214.22" stroke="#45515C" stroke-miterlimit="10"/>
<path d="M248.95 192.439C253.192 192.439 256.63 189.001 256.63 184.759C256.63 180.517 253.192 177.079 248.95 177.079C244.708 177.079 241.27 180.517 241.27 184.759C241.27 189.001 244.708 192.439 248.95 192.439Z" fill="white" stroke="#45515C" stroke-miterlimit="10" stroke-linecap="round" stroke-linejoin="round"/>
<path d="M275.21 184.759V171.589C275.21 165.829 270.54 161.159 264.78 161.159H236.98" stroke="#45515C" stroke-miterlimit="10"/>
<path d="M275.21 192.439C279.452 192.439 282.89 189.001 282.89 184.759C282.89 180.517 279.452 177.079 275.21 177.079C270.969 177.079 267.53 180.517 267.53 184.759C267.53 189.001 270.969 192.439 275.21 192.439Z" fill="white" stroke="#45515C" stroke-miterlimit="10" stroke-linecap="round" stroke-linejoin="round"/>
<path d="M123.25 265.609V252.439C123.25 246.679 127.92 242.009 133.68 242.009H152.69" stroke="#45515C" stroke-miterlimit="10"/>
<path d="M123.25 272.789C119.29 272.789 116.07 269.569 116.07 265.619C116.07 261.659 119.29 258.439 123.25 258.439C127.21 258.439 130.43 261.659 130.43 265.619C130.42 269.569 127.2 272.789 123.25 272.789Z" fill="#6499FC"/>
<path d="M123.25 258.939C126.93 258.939 129.93 261.929 129.93 265.619C129.93 269.309 126.94 272.299 123.25 272.299C119.56 272.299 116.57 269.309 116.57 265.619C116.57 261.929 119.57 258.939 123.25 258.939ZM123.25 257.939C119.01 257.939 115.57 261.379 115.57 265.619C115.57 269.859 119.01 273.299 123.25 273.299C127.49 273.299 130.93 269.859 130.93 265.619C130.92 261.369 127.49 257.939 123.25 257.939Z" fill="#45515C"/>
<path d="M96.98 265.609V252.439C96.98 246.679 101.65 242.009 107.41 242.009H131.71" stroke="#45515C" stroke-miterlimit="10"/>
<path d="M96.9796 272.789C93.0196 272.789 89.8096 269.569 89.8096 265.619C89.8096 261.659 93.0296 258.439 96.9796 258.439C100.94 258.439 104.16 261.659 104.16 265.619C104.16 269.569 100.94 272.789 96.9796 272.789Z" fill="#6499FC"/>
<path d="M96.9798 258.939C100.66 258.939 103.66 261.929 103.66 265.619C103.66 269.309 100.67 272.299 96.9798 272.299C93.2898 272.299 90.2998 269.309 90.2998 265.619C90.2998 261.929 93.2998 258.939 96.9798 258.939ZM96.9798 257.939C92.7398 257.939 89.2998 261.379 89.2998 265.619C89.2998 269.859 92.7398 273.299 96.9798 273.299C101.22 273.299 104.66 269.859 104.66 265.619C104.66 261.379 101.22 257.939 96.9798 257.939Z" fill="#45515C"/>
<path d="M70.7202 265.609V252.439C70.7202 246.679 75.3902 242.009 81.1502 242.009H108.95" stroke="#45515C" stroke-miterlimit="10"/>
<path d="M70.72 272.789C66.76 272.789 63.54 269.569 63.54 265.619C63.54 261.659 66.76 258.439 70.72 258.439C74.68 258.439 77.9 261.659 77.9 265.609C77.9 269.569 74.68 272.789 70.72 272.789Z" fill="#C4C4C4"/>
<path d="M70.72 258.939C74.4 258.939 77.4 261.929 77.4 265.619C77.4 269.309 74.41 272.299 70.72 272.299C67.03 272.299 64.04 269.309 64.04 265.619C64.04 261.929 67.04 258.939 70.72 258.939ZM70.72 257.939C66.48 257.939 63.04 261.379 63.04 265.619C63.04 269.859 66.48 273.299 70.72 273.299C74.96 273.299 78.4 269.859 78.4 265.619C78.4 261.379 74.96 257.939 70.72 257.939Z" fill="#45515C"/>
<path d="M123.25 221.319V208.149C123.25 202.389 127.92 197.719 133.68 197.719H180.6" stroke="#45515C" stroke-miterlimit="10"/>
<path d="M123.25 228.999C127.491 228.999 130.93 225.561 130.93 221.319C130.93 217.077 127.491 213.639 123.25 213.639C119.008 213.639 115.57 217.077 115.57 221.319C115.57 225.561 119.008 228.999 123.25 228.999Z" fill="white" stroke="#45515C" stroke-miterlimit="10" stroke-linecap="round" stroke-linejoin="round"/>
<path d="M96.98 221.319V208.149C96.98 202.389 101.65 197.719 107.41 197.719H131.71" stroke="#45515C" stroke-miterlimit="10"/>
<path d="M96.9796 228.499C93.0196 228.499 89.8096 225.279 89.8096 221.319C89.8096 217.359 93.0296 214.149 96.9796 214.149C100.94 214.149 104.16 217.369 104.16 221.319C104.16 225.279 100.94 228.499 96.9796 228.499Z" fill="#C4C4C4"/>
<path d="M96.9798 214.649C100.66 214.649 103.66 217.639 103.66 221.329C103.66 225.019 100.67 228.009 96.9798 228.009C93.2898 228.009 90.2998 225.019 90.2998 221.329C90.2998 217.639 93.2998 214.649 96.9798 214.649ZM96.9798 213.649C92.7398 213.649 89.2998 217.089 89.2998 221.329C89.2998 225.569 92.7398 229.009 96.9798 229.009C101.22 229.009 104.66 225.569 104.66 221.329C104.66 217.079 101.22 213.649 96.9798 213.649Z" fill="#45515C"/>
<path d="M70.7202 221.319V208.149C70.7202 202.389 75.3902 197.719 81.1502 197.719H108.95" stroke="#45515C" stroke-miterlimit="10"/>
<path d="M70.72 228.499C66.76 228.499 63.54 225.279 63.54 221.329C63.54 217.369 66.76 214.149 70.72 214.149C74.68 214.149 77.9 217.369 77.9 221.329C77.9 225.279 74.68 228.499 70.72 228.499Z" fill="#6499FC"/>
<path d="M70.72 214.649C74.4 214.649 77.4 217.639 77.4 221.329C77.4 225.019 74.41 228.009 70.72 228.009C67.03 228.009 64.04 225.019 64.04 221.329C64.04 217.639 67.04 214.649 70.72 214.649ZM70.72 213.649C66.48 213.649 63.04 217.089 63.04 221.329C63.04 225.569 66.48 229.009 70.72 229.009C74.96 229.009 78.4 225.569 78.4 221.329C78.39 217.079 74.96 213.649 70.72 213.649Z" fill="#45515C"/>
<path d="M180.8 69.719V235.319" stroke="#45515C" stroke-miterlimit="10"/>
<path d="M180.6 168.519C176.64 168.519 173.42 165.299 173.42 161.349C173.42 157.389 176.64 154.169 180.6 154.169C184.56 154.169 187.78 157.389 187.78 161.349C187.78 165.299 184.56 168.519 180.6 168.519Z" fill="#6499FC"/>
<path d="M180.6 154.669C184.28 154.669 187.28 157.659 187.28 161.349C187.28 165.039 184.29 168.029 180.6 168.029C176.92 168.029 173.92 165.039 173.92 161.349C173.92 157.659 176.92 154.669 180.6 154.669ZM180.6 153.669C176.36 153.669 172.92 157.109 172.92 161.349C172.92 165.589 176.36 169.029 180.6 169.029C184.84 169.029 188.28 165.589 188.28 161.349C188.28 157.109 184.84 153.669 180.6 153.669Z" fill="#45515C"/>
<path d="M180.6 204.889C176.64 204.889 173.42 201.669 173.42 197.719C173.42 193.759 176.64 190.539 180.6 190.539C184.56 190.539 187.78 193.759 187.78 197.719C187.78 201.679 184.56 204.889 180.6 204.889Z" fill="#6499FC"/>
<path d="M180.6 191.039C184.28 191.039 187.28 194.029 187.28 197.719C187.28 201.409 184.29 204.399 180.6 204.399C176.92 204.399 173.92 201.409 173.92 197.719C173.92 194.029 176.92 191.039 180.6 191.039ZM180.6 190.039C176.36 190.039 172.92 193.479 172.92 197.719C172.92 201.959 176.36 205.399 180.6 205.399C184.84 205.399 188.28 201.959 188.28 197.719C188.28 193.479 184.84 190.039 180.6 190.039Z" fill="#45515C"/>
<path d="M180.37 63.039C184.05 63.039 187.05 66.029 187.05 69.719C187.05 73.409 184.06 76.399 180.37 76.399C176.69 76.399 173.69 73.409 173.69 69.719C173.69 66.029 176.69 63.039 180.37 63.039ZM180.37 62.039C176.13 62.039 172.69 65.479 172.69 69.719C172.69 73.959 176.13 77.399 180.37 77.399C184.61 77.399 188.05 73.959 188.05 69.719C188.05 65.479 184.61 62.039 180.37 62.039Z" fill="#45515C"/>
<path d="M180.37 134.019C184.612 134.019 188.05 130.581 188.05 126.339C188.05 122.097 184.612 118.659 180.37 118.659C176.129 118.659 172.69 122.097 172.69 126.339C172.69 130.581 176.129 134.019 180.37 134.019Z" fill="white" stroke="#45515C" stroke-miterlimit="10" stroke-linecap="round" stroke-linejoin="round"/>
<path d="M180.73 99.009C196.907 99.009 210.02 85.8954 210.02 69.719C210.02 53.5426 196.907 40.429 180.73 40.429C164.554 40.429 151.44 53.5426 151.44 69.719C151.44 85.8954 164.554 99.009 180.73 99.009Z" fill="#6499FC" stroke="#45515C" stroke-miterlimit="10"/>
<path d="M193.23 83.019H168.23V61.759C168.23 56.829 172.27 52.789 177.2 52.789H184.26C189.19 52.789 193.23 56.829 193.23 61.759V83.019Z" fill="white" stroke="#45515C" stroke-miterlimit="10" stroke-linecap="round" stroke-linejoin="round"/>
<path d="M192.27 83.019H169.19C167.22 83.019 165.61 84.629 165.61 86.599V94.809C170.02 97.479 175.2 99.009 180.73 99.009C186.26 99.009 191.43 97.469 195.85 94.809V86.599C195.85 84.629 194.24 83.019 192.27 83.019Z" fill="white" stroke="#45515C" stroke-miterlimit="10" stroke-linecap="round" stroke-linejoin="round"/>
<path d="M181.59 90.509H179.87C177.44 90.509 175.45 88.519 175.45 86.089V78.139C175.45 75.709 177.44 73.719 179.87 73.719H181.59C184.02 73.719 186.01 75.709 186.01 78.139V86.089C186.02 88.519 184.03 90.509 181.59 90.509Z" fill="white" stroke="#45515C" stroke-miterlimit="10" stroke-linecap="round" stroke-linejoin="round"/>
<path d="M189.671 62.009V69.559C189.671 74.469 185.651 78.489 180.741 78.489C175.831 78.489 171.811 74.469 171.811 69.559V62.009" fill="white"/>
<path d="M189.671 62.009V69.559C189.671 74.469 185.651 78.489 180.741 78.489C175.831 78.489 171.811 74.469 171.811 69.559V62.009" stroke="#45515C" stroke-miterlimit="10" stroke-linecap="round" stroke-linejoin="round"/>
<path d="M170.59 61.639C170.59 61.639 178.6 62.759 180.84 56.169C180.84 56.169 183.12 62.759 190.87 61.469" fill="white"/>
<path d="M170.59 61.639C170.59 61.639 178.6 62.759 180.84 56.169C180.84 56.169 183.12 62.759 190.87 61.469" stroke="#45515C" stroke-miterlimit="10" stroke-linecap="round" stroke-linejoin="round"/>
<path d="M180.73 277.649C196.631 277.649 209.52 264.759 209.52 248.859C209.52 232.959 196.631 220.069 180.73 220.069C164.83 220.069 151.94 232.959 151.94 248.859C151.94 264.759 164.83 277.649 180.73 277.649Z" fill="#C4C4C4"/>
<path d="M180.73 220.579C196.33 220.579 209.02 233.269 209.02 248.869C209.02 264.469 196.33 277.159 180.73 277.159C165.13 277.159 152.44 264.469 152.44 248.869C152.44 233.269 165.14 220.579 180.73 220.579ZM180.73 219.579C164.56 219.579 151.44 232.689 151.44 248.869C151.44 265.049 164.55 278.159 180.73 278.159C196.91 278.159 210.02 265.049 210.02 248.869C210.02 232.689 196.91 219.579 180.73 219.579Z" fill="#45515C"/>
<path d="M186.47 250.729H175C171.26 250.729 168.24 247.699 168.24 243.969V240.909C168.24 235.979 172.28 231.939 177.21 231.939H184.27C189.2 231.939 193.24 235.979 193.24 240.909V243.969C193.23 247.699 190.2 250.729 186.47 250.729Z" fill="white" stroke="#45515C" stroke-miterlimit="10" stroke-linecap="round" stroke-linejoin="round"/>
<path d="M192.27 262.169H169.19C167.22 262.169 165.61 263.779 165.61 265.749V273.959C170.02 276.629 175.2 278.159 180.73 278.159C186.26 278.159 191.43 276.619 195.85 273.959V265.749C195.85 263.779 194.24 262.169 192.27 262.169Z" fill="white" stroke="#45515C" stroke-miterlimit="10" stroke-linecap="round" stroke-linejoin="round"/>
<path d="M181.59 269.659H179.87C177.44 269.659 175.45 267.669 175.45 265.239V257.289C175.45 254.859 177.44 252.869 179.87 252.869H181.59C184.02 252.869 186.01 254.859 186.01 257.289V265.239C186.02 267.669 184.03 269.659 181.59 269.659Z" fill="white" stroke="#45515C" stroke-miterlimit="10" stroke-linecap="round" stroke-linejoin="round"/>
<path d="M189.671 241.159V248.709C189.671 253.619 185.651 257.639 180.741 257.639C175.831 257.639 171.811 253.619 171.811 248.709V241.159" fill="white"/>
<path d="M189.671 241.159V248.709C189.671 253.619 185.651 257.639 180.741 257.639C175.831 257.639 171.811 253.619 171.811 248.709V241.159" stroke="#45515C" stroke-miterlimit="10" stroke-linecap="round" stroke-linejoin="round"/>
<path d="M170.59 240.779C170.59 240.779 178.6 241.899 180.84 235.309C180.84 235.309 183.12 241.899 190.87 240.609" fill="white"/>
<path d="M170.59 240.779C170.59 240.779 178.6 241.899 180.84 235.309C180.84 235.309 183.12 241.899 190.87 240.609" stroke="#45515C" stroke-miterlimit="10" stroke-linecap="round" stroke-linejoin="round"/>
<path d="M358.33 97.399C342.46 97.399 329.54 84.489 329.54 68.609C329.54 52.729 342.45 39.819 358.33 39.819C374.2 39.819 387.12 52.729 387.12 68.609C387.12 84.489 374.2 97.399 358.33 97.399Z" fill="#C4C4C4"/>
<path d="M358.33 40.329C373.93 40.329 386.62 53.019 386.62 68.619C386.62 84.219 373.93 96.899 358.33 96.899C342.73 96.899 330.04 84.209 330.04 68.609C330.04 53.009 342.73 40.329 358.33 40.329ZM358.33 39.329C342.16 39.329 329.04 52.439 329.04 68.619C329.04 84.799 342.15 97.909 358.33 97.909C374.51 97.909 387.62 84.799 387.62 68.619C387.62 52.439 374.5 39.329 358.33 39.329Z" fill="#45515C"/>
<path d="M364.71 69.719H351.96C348.58 69.719 345.84 66.979 345.84 63.599V60.669C345.84 55.739 349.88 51.699 354.81 51.699H361.87C366.8 51.699 370.84 55.739 370.84 60.669V63.599C370.83 66.969 368.09 69.719 364.71 69.719Z" fill="white" stroke="#45515C" stroke-miterlimit="10" stroke-linecap="round" stroke-linejoin="round"/>
<path d="M369.87 81.919H346.79C344.82 81.919 343.21 83.529 343.21 85.499V93.709C347.62 96.379 352.8 97.909 358.33 97.909C363.86 97.909 369.03 96.369 373.45 93.709V85.499C373.45 83.529 371.84 81.919 369.87 81.919Z" fill="white" stroke="#45515C" stroke-miterlimit="10" stroke-linecap="round" stroke-linejoin="round"/>
<path d="M359.19 89.409H357.47C355.04 89.409 353.05 87.419 353.05 84.989V77.039C353.05 74.609 355.04 72.619 357.47 72.619H359.19C361.62 72.619 363.61 74.609 363.61 77.039V84.989C363.61 87.419 361.62 89.409 359.19 89.409Z" fill="white" stroke="#45515C" stroke-miterlimit="10" stroke-linecap="round" stroke-linejoin="round"/>
<path d="M367.26 60.909V68.459C367.26 73.369 363.24 77.389 358.33 77.389C353.42 77.389 349.4 73.369 349.4 68.459V60.909" fill="white"/>
<path d="M367.26 60.909V68.459C367.26 73.369 363.24 77.389 358.33 77.389C353.42 77.389 349.4 73.369 349.4 68.459V60.909" stroke="#45515C" stroke-miterlimit="10" stroke-linecap="round" stroke-linejoin="round"/>
<path d="M348.19 60.539C348.19 60.539 356.2 61.659 358.44 55.069C358.44 55.069 360.72 61.659 368.47 60.369" fill="white"/>
<path d="M348.19 60.539C348.19 60.539 356.2 61.659 358.44 55.069C358.44 55.069 360.72 61.659 368.47 60.369" stroke="#45515C" stroke-miterlimit="10" stroke-linecap="round" stroke-linejoin="round"/>
<path d="M124.27 146.549H99.47C98.65 146.549 97.98 145.879 97.98 145.059V125.409C97.98 124.589 98.65 123.919 99.47 123.919H106.9C107.6 123.919 108.24 124.309 108.55 124.939L109.18 126.389H124.27C125.09 126.389 125.76 127.059 125.76 127.879V145.059C125.76 145.889 125.09 146.549 124.27 146.549Z" fill="#45515C"/>
<path d="M101.4 147.649C100.85 147.649 100.41 147.209 100.41 146.659V127.009C100.41 126.459 100.85 126.019 101.4 126.019H108.83C109.34 126.019 109.8 126.299 110.03 126.759L110.78 128.489H126.2C126.75 128.489 127.19 128.929 127.19 129.479V146.659C127.19 147.209 126.75 147.649 126.2 147.649H101.4Z" fill="white"/>
<path d="M108.83 126.519C109.14 126.519 109.43 126.689 109.57 126.969L110.19 128.389L110.45 128.989H111.11H126.2C126.47 128.989 126.69 129.209 126.69 129.479V146.659C126.69 146.929 126.47 147.149 126.2 147.149H101.4C101.13 147.149 100.91 146.929 100.91 146.659V127.009C100.91 126.739 101.13 126.519 101.4 126.519H108.83V126.519ZM108.83 125.519H101.4C100.58 125.519 99.9102 126.189 99.9102 127.009V146.659C99.9102 147.479 100.58 148.149 101.4 148.149H126.2C127.02 148.149 127.69 147.479 127.69 146.659V129.479C127.69 128.659 127.02 127.989 126.2 127.989H111.11L110.48 126.539C110.17 125.919 109.53 125.519 108.83 125.519Z" fill="#45515C"/>
<path d="M84.7802 146.549H59.9802C59.1602 146.549 58.4902 145.879 58.4902 145.059V125.409C58.4902 124.589 59.1602 123.919 59.9802 123.919H67.4102C68.1102 123.919 68.7502 124.309 69.0602 124.939L69.6902 126.389H84.7802C85.6002 126.389 86.2702 127.059 86.2702 127.879V145.059C86.2702 145.889 85.6002 146.549 84.7802 146.549Z" fill="#45515C"/>
<path d="M61.9202 147.649C61.3702 147.649 60.9302 147.209 60.9302 146.659V127.009C60.9302 126.459 61.3702 126.019 61.9202 126.019H69.3502C69.8602 126.019 70.3202 126.299 70.5502 126.759L71.3002 128.489H86.7202C87.2702 128.489 87.7102 128.929 87.7102 129.479V146.659C87.7102 147.209 87.2702 147.649 86.7202 147.649H61.9202Z" fill="white"/>
<path d="M69.3502 126.519C69.6602 126.519 69.9502 126.689 70.0902 126.969L70.7102 128.389L70.9702 128.989H71.6302H86.7202C86.9902 128.989 87.2102 129.209 87.2102 129.479V146.659C87.2102 146.929 86.9902 147.149 86.7202 147.149H61.9202C61.6502 147.149 61.4302 146.929 61.4302 146.659V127.009C61.4302 126.739 61.6502 126.519 61.9202 126.519H69.3502V126.519ZM69.3502 125.519H61.9202C61.1002 125.519 60.4302 126.189 60.4302 127.009V146.659C60.4302 147.479 61.1002 148.149 61.9202 148.149H86.7202C87.5402 148.149 88.2102 147.479 88.2102 146.659V129.479C88.2102 128.659 87.5402 127.989 86.7202 127.989H71.6202L70.9902 126.539C70.6802 125.919 70.0502 125.519 69.3502 125.519Z" fill="#45515C"/>
<path d="M45.3003 146.549H20.5003C19.6803 146.549 19.0103 145.879 19.0103 145.059V125.409C19.0103 124.589 19.6803 123.919 20.5003 123.919H27.9303C28.6303 123.919 29.2703 124.309 29.5803 124.939L30.2103 126.389H45.3003C46.1203 126.389 46.7903 127.059 46.7903 127.879V145.059C46.7903 145.889 46.1203 146.549 45.3003 146.549Z" fill="#45515C"/>
<path d="M22.4304 147.649C21.8804 147.649 21.4404 147.209 21.4404 146.659V127.009C21.4404 126.459 21.8804 126.019 22.4304 126.019H29.8604C30.3704 126.019 30.8304 126.299 31.0604 126.759L31.8104 128.489H47.2304C47.7804 128.489 48.2204 128.929 48.2204 129.479V146.659C48.2204 147.209 47.7804 147.649 47.2304 147.649H22.4304Z" fill="white"/>
<path d="M29.8604 126.519C30.1704 126.519 30.4604 126.689 30.6004 126.969L31.2204 128.389L31.4804 128.989H32.1404H47.2304C47.5004 128.989 47.7204 129.209 47.7204 129.479V146.659C47.7204 146.929 47.5004 147.149 47.2304 147.149H22.4304C22.1604 147.149 21.9404 146.929 21.9404 146.659V127.009C21.9404 126.739 22.1604 126.519 22.4304 126.519H29.8604V126.519ZM29.8604 125.519H22.4304C21.6104 125.519 20.9404 126.189 20.9404 127.009V146.659C20.9404 147.479 21.6104 148.149 22.4304 148.149H47.2304C48.0504 148.149 48.7204 147.479 48.7204 146.659V129.479C48.7204 128.659 48.0504 127.989 47.2304 127.989H32.1404L31.5104 126.539C31.2004 125.919 30.5604 125.519 29.8604 125.519Z" fill="#45515C"/>
</svg>
