<svg width="76" height="76" viewBox="0 0 76 76" fill="none" xmlns="http://www.w3.org/2000/svg">
<g clip-path="url(#clip0_973_501)">
<path d="M38 69.8104C55.5682 69.8104 69.81 55.5686 69.81 38.0004C69.81 20.4323 55.5682 6.19043 38 6.19043C20.4318 6.19043 6.19 20.4323 6.19 38.0004C6.19 55.5686 20.4318 69.8104 38 69.8104Z" fill="#0F2637" stroke="#F4F6FB" stroke-width="1.2526" stroke-miterlimit="10" stroke-linecap="round" stroke-linejoin="round"/>
<path d="M47.03 52.4502H28.97C24.91 52.4502 21.59 55.7702 21.59 59.8302V65.2402C26.38 68.1302 32 69.8002 38.01 69.8002C44.02 69.8002 49.64 68.1302 54.43 65.2402V59.8302C54.42 55.7702 51.1 52.4502 47.03 52.4502Z" fill="#0F2637" stroke="#F4F6FB" stroke-width="1.2526" stroke-miterlimit="10" stroke-linecap="round" stroke-linejoin="round"/>
<path d="M39.16 60.5906H36.85C34.33 60.5906 32.27 58.5306 32.27 56.0106V46.9306C32.27 44.4106 34.33 42.3506 36.85 42.3506H39.16C41.68 42.3506 43.74 44.4106 43.74 46.9306V56.0106C43.74 58.5306 41.68 60.5906 39.16 60.5906Z" fill="#0F2637" stroke="#F4F6FB" stroke-width="1.2526" stroke-miterlimit="10" stroke-linecap="round" stroke-linejoin="round"/>
<path d="M51.58 41.2204H24.42V28.5804C24.42 23.6504 28.46 19.6104 33.39 19.6104H42.6C47.53 19.6104 51.57 23.6504 51.57 28.5804V41.2204H51.58Z" fill="#0F2637" stroke="#F4F6FB" stroke-width="1.2526" stroke-miterlimit="10" stroke-linecap="round" stroke-linejoin="round"/>
<path d="M47.7 29.6309V37.8309C47.7 43.1709 43.33 47.5309 38 47.5309C32.66 47.5309 28.3 43.1609 28.3 37.8309V29.6309" fill="#0F2637"/>
<path d="M47.7 29.6309V37.8309C47.7 43.1709 43.33 47.5309 38 47.5309C32.66 47.5309 28.3 43.1609 28.3 37.8309V29.6309" stroke="#F4F6FB" stroke-width="1.2526" stroke-miterlimit="10" stroke-linecap="round" stroke-linejoin="round"/>
<path d="M26.98 29.23C26.98 29.23 35.68 30.45 38.12 23.29C38.12 23.29 40.6 30.45 49.01 29.04" fill="#0F2637"/>
<path d="M26.98 29.23C26.98 29.23 35.68 30.45 38.12 23.29C38.12 23.29 40.6 30.45 49.01 29.04" stroke="#F4F6FB" stroke-width="1.2526" stroke-miterlimit="10" stroke-linecap="round" stroke-linejoin="round"/>
<path d="M65.3767 62.3997C55.1521 73.3385 38.8245 77.3412 24.2109 71.2223C5.45513 63.3576 -3.37521 41.774 4.4895 23.0182" stroke="#F4F6FB" stroke-width="0.5093" stroke-miterlimit="10" stroke-linecap="round" stroke-linejoin="round" stroke-dasharray="2.04 2.04"/>
<path d="M52.6888 3.28599C67.639 9.55497 76.2821 24.5345 75.1938 39.8548" stroke="#F4F6FB" stroke-width="0.5093" stroke-miterlimit="10" stroke-linecap="round" stroke-linejoin="round" stroke-dasharray="2.04 2.04"/>
</g>
<defs>
<clipPath id="clip0_973_501">
<rect width="76" height="76" fill="white"/>
</clipPath>
</defs>
</svg>
