<svg width="69" height="69" viewBox="0 0 69 69" fill="none" xmlns="http://www.w3.org/2000/svg">
<path d="M66.5578 56.5439H2.44223" stroke="#F4F6FB" stroke-width="1.2526" stroke-miterlimit="10" stroke-linecap="round" stroke-linejoin="round"/>
<path d="M2.44223 6.5459V56.5437" stroke="#F4F6FB" stroke-width="1.2526" stroke-miterlimit="10" stroke-linecap="round" stroke-linejoin="round"/>
<path d="M11.0763 33.4558L27.6 42.907L41.3183 20.0916L47.7189 23.9865L60.4204 10.3408" stroke="#F4F6FB" stroke-width="1.2526" stroke-miterlimit="10" stroke-linecap="round" stroke-linejoin="round"/>
<path d="M60.0754 14.5351C62.0008 14.5351 63.5617 12.9743 63.5617 11.0488C63.5617 9.12338 62.0008 7.5625 60.0754 7.5625C58.15 7.5625 56.5891 9.12338 56.5891 11.0488C56.5891 12.9743 58.15 14.5351 60.0754 14.5351Z" fill="#0F2637" stroke="#F4F6FB" stroke-width="1.2526" stroke-miterlimit="10" stroke-linecap="round" stroke-linejoin="round"/>
<path d="M41.3092 23.8506C43.2346 23.8506 44.7955 22.2897 44.7955 20.3642C44.7955 18.4388 43.2346 16.8779 41.3092 16.8779C39.3838 16.8779 37.8229 18.4388 37.8229 20.3642C37.8229 22.2897 39.3838 23.8506 41.3092 23.8506Z" fill="#0F2637" stroke="#F4F6FB" stroke-width="1.2526" stroke-miterlimit="10" stroke-linecap="round" stroke-linejoin="round"/>
<path d="M27.2913 46.3935C29.2167 46.3935 30.7776 44.8327 30.7776 42.9072C30.7776 40.9818 29.2167 39.4209 27.2913 39.4209C25.3659 39.4209 23.805 40.9818 23.805 42.9072C23.805 44.8327 25.3659 46.3935 27.2913 46.3935Z" fill="#0F2637" stroke="#F4F6FB" stroke-width="1.2526" stroke-miterlimit="10" stroke-linecap="round" stroke-linejoin="round"/>
<path d="M11.0763 36.9424C13.0018 36.9424 14.5626 35.3815 14.5626 33.456C14.5626 31.5306 13.0018 29.9697 11.0763 29.9697C9.15087 29.9697 7.59 31.5306 7.59 33.456C7.59 35.3815 9.15087 36.9424 11.0763 36.9424Z" fill="#0F2637" stroke="#F4F6FB" stroke-width="1.2526" stroke-miterlimit="10" stroke-linecap="round" stroke-linejoin="round"/>
<path d="M60.4658 56.5434V14.5352" stroke="#F4F6FB" stroke-width="0.6263" stroke-miterlimit="10" stroke-linecap="round" stroke-linejoin="round" stroke-dasharray="2.51 2.51"/>
<path d="M41.3092 56.5439V23.8506" stroke="#F4F6FB" stroke-width="0.6263" stroke-miterlimit="10" stroke-linecap="round" stroke-linejoin="round" stroke-dasharray="2.51 2.51"/>
<path d="M27.2913 56.5438V46.3936" stroke="#F4F6FB" stroke-width="0.6263" stroke-miterlimit="10" stroke-linecap="round" stroke-linejoin="round" stroke-dasharray="2.51 2.51"/>
<path d="M11.0763 56.5438V36.9424" stroke="#F4F6FB" stroke-width="0.6263" stroke-miterlimit="10" stroke-linecap="round" stroke-linejoin="round" stroke-dasharray="2.51 2.51"/>
<path d="M58.4684 62.4543H62.4632C62.9262 62.4543 63.3075 62.0729 63.3075 61.6099V61.1832C63.3075 60.7202 62.9262 60.3389 62.4632 60.3389H58.4684C58.0054 60.3389 57.6241 60.7202 57.6241 61.1832V61.6099C57.6241 62.0729 58.0054 62.4543 58.4684 62.4543Z" fill="#F4F6FB"/>
<path d="M39.3118 62.4543H43.3066C43.7696 62.4543 44.1509 62.0729 44.1509 61.6099V61.1832C44.1509 60.7202 43.7696 60.3389 43.3066 60.3389H39.3118C38.8488 60.3389 38.4675 60.7202 38.4675 61.1832V61.6099C38.4675 62.0729 38.8397 62.4543 39.3118 62.4543Z" fill="#F4F6FB"/>
<path d="M29.2887 60.3389H25.2939C24.8309 60.3389 24.4496 60.7202 24.4496 61.1832V61.6099C24.4496 62.0729 24.8309 62.4543 25.2939 62.4543H29.2887C29.7517 62.4543 30.133 62.0729 30.133 61.6099V61.1832C30.133 60.7111 29.7608 60.3389 29.2887 60.3389Z" fill="#F4F6FB"/>
<path d="M13.0737 60.3389H9.07893C8.6159 60.3389 8.23459 60.7202 8.23459 61.1832V61.6099C8.23459 62.0729 8.6159 62.4543 9.07893 62.4543H13.0737C13.5367 62.4543 13.918 62.0729 13.918 61.6099V61.1832C13.9271 60.7111 13.5458 60.3389 13.0737 60.3389Z" fill="#F4F6FB"/>
</svg>
