<svg width="30" height="28" viewBox="0 0 30 28" fill="none" xmlns="http://www.w3.org/2000/svg">
<path d="M0.0140381 0V28H29.5563V0H0.0140381ZM15.7682 15.96V21.7531H13.8021V15.8731L8.67298 6.81656H11.0364L13.9906 12.5083C13.9906 12.6 14.0925 12.6966 14.1892 12.7883C14.286 12.88 14.286 12.9766 14.3879 13.16L14.4846 13.2566V13.3483C14.5814 13.5366 14.5814 13.6283 14.6833 13.831C14.7801 13.9228 14.7801 14.111 14.8769 14.2028C15.0352 13.9234 15.1747 13.6347 15.2945 13.3386C15.4261 13.0393 15.5972 12.757 15.8039 12.4986L18.7581 6.8069H20.8974L15.7682 15.96Z" fill="white"/>
</svg>
