<svg width="76" height="76" viewBox="0 0 76 76" fill="none" xmlns="http://www.w3.org/2000/svg">
<path d="M38 42.4796C48.1731 42.4796 56.42 34.2327 56.42 24.0596C56.42 13.8866 48.1731 5.63965 38 5.63965C27.8269 5.63965 19.58 13.8866 19.58 24.0596C19.58 34.2327 27.8269 42.4796 38 42.4796Z" fill="#0F2637" stroke="#F4F6FB" stroke-width="1.2526" stroke-miterlimit="10" stroke-linecap="round" stroke-linejoin="round"/>
<path d="M38 37.8793C45.6326 37.8793 51.82 31.6918 51.82 24.0593C51.82 16.4267 45.6326 10.2393 38 10.2393C30.3674 10.2393 24.18 16.4267 24.18 24.0593C24.18 31.6918 30.3674 37.8793 38 37.8793Z" stroke="#F4F6FB" stroke-width="0.3848" stroke-miterlimit="10" stroke-linecap="round" stroke-linejoin="round" stroke-dasharray="1.54 1.54"/>
<path d="M39.55 23.3895L37.61 23.2095C36.45 23.0995 36.04 22.6395 36.04 21.9995V21.9895C36.04 20.9895 36.88 20.5895 38.67 20.5895C39.76 20.5895 41.47 20.7495 41.47 20.7495V20.2995V19.7995V19.3495C40.86 19.3095 40.21 19.2495 39.42 19.2195V17.8895V17.4395H38.23V17.8895V19.2195C35.98 19.2695 34.79 20.0095 34.79 21.4795V21.9295V22.1295V22.5795C34.79 23.7095 35.83 24.4595 37.28 24.5995L39.21 24.7795C40.37 24.8795 40.78 25.3395 40.78 25.9895V26.0195C40.78 27.0195 39.95 27.4195 38.16 27.4195C36.73 27.4195 34.85 27.2795 34.85 27.2795V27.7295V28.2195V28.6695C34.85 28.6695 36.45 28.7995 38.24 28.7995V30.2195V30.6695H39.43V30.2195V28.7295C41.17 28.5195 42.04 27.7995 42.04 26.5195V26.0695V25.8395V25.3895C42.02 24.2795 41.07 23.5295 39.55 23.3895Z" fill="#F4F6FB"/>
<path d="M38 70.3595C48.1731 70.3595 56.42 62.1126 56.42 51.9395C56.42 41.7664 48.1731 33.5195 38 33.5195C27.8269 33.5195 19.58 41.7664 19.58 51.9395C19.58 62.1126 27.8269 70.3595 38 70.3595Z" fill="#0F2637" stroke="#F4F6FB" stroke-width="1.2526" stroke-miterlimit="10" stroke-linecap="round" stroke-linejoin="round"/>
<path d="M38 65.7591C45.6326 65.7591 51.82 59.5717 51.82 51.9391C51.82 44.3066 45.6326 38.1191 38 38.1191C30.3674 38.1191 24.18 44.3066 24.18 51.9391C24.18 59.5717 30.3674 65.7591 38 65.7591Z" stroke="#F4F6FB" stroke-width="0.3848" stroke-miterlimit="10" stroke-linecap="round" stroke-linejoin="round" stroke-dasharray="1.54 1.54"/>
<path d="M39.55 51.2698L37.61 51.0898C36.45 50.9798 36.04 50.5198 36.04 49.8798V49.8698C36.04 48.8698 36.88 48.4698 38.67 48.4698C39.76 48.4698 41.47 48.6298 41.47 48.6298V48.1798V47.6898V47.2398C40.86 47.1998 40.21 47.1398 39.42 47.1098V45.7798V45.2998H38.23V45.7498V47.0798C35.98 47.1298 34.79 47.8698 34.79 49.3398V49.7898V49.9898V50.4398C34.79 51.5698 35.83 52.3198 37.28 52.4598L39.21 52.6398C40.37 52.7398 40.78 53.1998 40.78 53.8498V53.8798C40.78 54.8798 39.95 55.2798 38.16 55.2798C36.73 55.2798 34.85 55.1398 34.85 55.1398V55.5898V56.0798V56.5298C34.85 56.5298 36.45 56.6598 38.24 56.6598V58.0798V58.5298H39.43V58.0798V56.5898C41.17 56.3798 42.04 55.6598 42.04 54.3798V53.9298V53.6998V53.2498C42.02 52.1598 41.07 51.4098 39.55 51.2698Z" fill="#F4F6FB"/>
</svg>
