<svg width="76" height="76" viewBox="0 0 76 76" fill="none" xmlns="http://www.w3.org/2000/svg">
<path d="M35.03 63.8699C49.3176 63.8699 60.9 52.2875 60.9 37.9999C60.9 23.7123 49.3176 12.1299 35.03 12.1299C20.7424 12.1299 9.16 23.7123 9.16 37.9999C9.16 52.2875 20.7424 63.8699 35.03 63.8699Z" stroke="#F4F6FB" stroke-width="1.2526" stroke-miterlimit="10" stroke-linecap="round" stroke-linejoin="round"/>
<path d="M63.94 24.7002C69.34 36.4502 67.2 50.8102 57.53 60.4902C45.11 72.9102 24.97 72.9102 12.55 60.4902" stroke="#F4F6FB" stroke-width="0.5093" stroke-miterlimit="10" stroke-linecap="round" stroke-linejoin="round" stroke-dasharray="2.04 2.04"/>
<path d="M12.54 15.5099C22.44 5.6099 37.24 3.5999 49.13 9.4799" stroke="#F4F6FB" stroke-width="0.5093" stroke-miterlimit="10" stroke-linecap="round" stroke-linejoin="round" stroke-dasharray="2.04 2.04"/>
<path d="M16.69 19.7594C16.69 19.7594 21.95 23.8894 21.48 28.4894C21.01 33.0794 21.48 33.5594 23.62 35.2194C25.76 36.8794 27.18 38.8494 26.23 41.5394C25.36 44.0194 20.55 49.8594 30.19 59.4794C31.47 60.7594 33.65 60.3194 34.3 58.6294C35.14 56.4294 36.17 53.7094 36.68 52.3094C37.63 49.6994 40.24 47.0894 36.68 43.2894C33.12 39.4894 28.61 38.0694 30.98 35.4594C33.35 32.8494 39.05 29.3694 37.39 24.7794C35.73 20.1894 32.22 14.9894 35.04 12.1494" stroke="#F4F6FB" stroke-width="1.2526" stroke-miterlimit="10" stroke-linecap="round" stroke-linejoin="round"/>
<path d="M53.09 19.4902C53.09 19.4902 47.11 19.4902 48.54 24.7702C49.5 28.3302 60.16 31.8402 60.16 31.8402" stroke="#F4F6FB" stroke-width="1.2526" stroke-miterlimit="10" stroke-linecap="round" stroke-linejoin="round"/>
<path d="M60.9 37.9996C60.9 37.9996 53.52 34.8496 50.36 37.9996C46.72 41.6196 52.34 46.7096 52.34 46.7096C52.34 46.7096 55.84 51.3596 52.79 56.8096" stroke="#F4F6FB" stroke-width="1.2526" stroke-miterlimit="10" stroke-linecap="round" stroke-linejoin="round"/>
<path d="M14.32 22.5C14.32 22.5 19.64 27.08 18.57 31.84C17.5 36.6 9.34 35.04 9.34 35.04" stroke="#F4F6FB" stroke-width="1.2526" stroke-miterlimit="10" stroke-linecap="round" stroke-linejoin="round"/>
</svg>
